<svg width="572" height="312" viewBox="0 0 572 312" fill="none" xmlns="http://www.w3.org/2000/svg">
<path d="M9.13 56.825C4.345 56.825 1.65 51.82 1.65 46.98C1.65 32.515 16.885 16.18 23.155 10.9C22.605 9.25 22.165 7.71 21.78 6.39C20.13 0.779996 15.4 1.66 15.4 1.66V1H26.18C26.18 1 26.455 2.045 27.005 3.805C29.15 10.68 34.595 28.5 37.29 37.08C40.7 47.86 42.57 55.45 48.29 55.45V56H27.39V55.45C30.415 55.45 33.33 55.175 34.155 52.315C34.925 49.675 33.66 45.165 31.35 37.355C29.92 32.845 27.72 25.75 25.63 19.095C26.015 31.8 21.89 56.825 9.13 56.825ZM23.54 12.165C16.885 17.94 5.995 30.205 5.995 44.065C5.995 47.585 7.7 51.435 11.22 51.435C19.91 51.435 26.015 29.325 24.255 14.64C23.87 13.375 23.54 12.11 23.155 10.9C23.265 11.34 23.375 11.725 23.54 12.165ZM69.1453 1.55V1H78.3853L108.8 42.305V35.485C108.8 19.975 106.765 1.55 99.3953 1.55V1H115.015V1.55C109.295 1.55 109.955 7.6 109.955 19.315V43.9L112.76 47.695V56.825L75.3603 6.005V21.515C75.3603 37.025 77.3953 55.45 84.7653 55.45V56H69.1453V55.45C74.8653 55.45 74.2053 49.4 74.2053 37.685V19.315C74.2053 7.6 74.8653 1.55 69.1453 1.55ZM138.789 56.825C127.459 56.825 118.054 47.585 118.054 36.2C118.054 24.815 127.459 15.575 138.789 15.575C150.119 15.575 154.739 23.165 154.739 27.84C154.739 32.515 150.889 33.505 147.479 33.505H122.729C122.729 44.12 131.584 52.26 141.649 52.26C149.184 52.26 154.959 47.75 157.159 42.25L157.709 42.47C155.454 50.775 147.864 56.825 138.789 56.825ZM122.729 32.35C128.174 32.24 131.529 32.075 137.579 32.075C143.244 32.075 149.129 31.855 149.129 27.125C149.129 21.185 144.014 17.5 136.424 17.5C128.229 17.5 123.169 23.385 122.729 32.35ZM154.15 16.4H171.75V16.95C169 16.95 167.295 18.545 167.295 21.24C167.295 23.825 169.165 30.04 170.925 36.365C172.245 41.095 173.51 45.99 174.225 48.52C175.38 52.755 175.71 53.69 176.37 53.69C178.02 53.69 181.65 31.25 182.42 26.355C180.44 21.02 178.075 16.95 174.665 16.95V16.4H192.265V16.95C189.515 16.95 187.81 18.545 187.81 21.24C187.81 23.825 189.68 30.04 191.44 36.365C192.76 41.095 194.025 45.99 194.74 48.52C195.895 52.755 196.225 53.69 196.885 53.69C198.755 53.69 202.495 29.16 202.495 29.16C203.21 25.365 203.65 17.005 197.16 17.005V16.4H215.145V16.95C209.425 16.95 206.95 23.11 204.915 30.92C204.915 30.92 202.66 38.895 201.725 42.25C199.8 49.18 198.755 56.825 194.685 56.825C191.935 56.825 191.165 54.35 189.57 49.345C188.525 46.1 187.26 41.645 186.215 38.18C185.555 36.035 184.895 33.78 184.235 31.58C183.63 33.615 181.98 39.5 181.21 42.25C179.285 49.18 178.24 56.825 174.17 56.825C171.42 56.825 170.65 54.35 169.055 49.345C168.01 46.1 166.8 41.645 165.7 38.18C162.675 28.5 159.87 16.95 154.15 16.95V16.4ZM235.22 1.55V1H256.12V1.55C253.095 1.55 250.18 1.825 249.355 4.685C248.585 7.325 249.85 11.835 252.16 19.645C254.415 26.795 260.08 44.78 262.775 53.855C264.975 45.935 269.1 28.665 271.245 19.15C268 8.755 266.075 1.55 260.52 1.55V1H281.42V1.55C278.395 1.55 275.48 1.825 274.655 4.685C273.885 7.325 275.15 11.835 277.46 19.645C279.715 26.795 285.38 44.78 288.075 53.855C290.88 43.735 296.875 18.325 297.81 13.32C299.35 4.96 298.305 1.55 290 1.55V1H310.9V1.55C305.18 1.55 303.31 9.14 299.9 19.92C297.205 28.5 291.76 46.32 289.615 53.195C289.065 54.955 288.79 56 288.79 56H282.63C282.63 56 282.355 54.955 281.805 53.195C279.99 47.475 275.92 34.11 273.06 24.87C270.2 34.11 266.075 47.475 264.315 53.195C263.765 54.955 263.49 56 263.49 56H257.33C257.33 56 257.055 54.955 256.505 53.195C254.36 46.32 248.915 28.5 246.22 19.92C242.81 9.14 240.94 1.55 235.22 1.55ZM303.505 47.64C303.505 36.09 317.695 33.065 327.705 26.025C326 19.865 324.9 16.675 321.38 16.675C316.375 16.675 312.525 24.705 307.795 24.705C305.87 24.705 304.44 23.33 304.77 21.46C305.87 19.315 313.845 15.575 321.16 15.575C331.995 15.575 333.205 27.29 336.395 37.3C341.125 52.04 341.84 55.45 347.34 55.45V56H338.98C336.285 56 335.79 54.79 334.36 49.455C333.975 48.025 331.83 40.6 330.18 34.825C328.365 46.815 322.645 56.825 313.075 56.825C306.915 56.825 303.505 52.7 303.505 47.64ZM328.035 27.07C319.84 33.285 309.005 37.41 309.005 46.595C309.005 50.225 311.59 52.865 315.22 52.865C326.44 52.865 329.465 35.76 328.915 30.425C328.585 29.325 328.31 28.225 328.035 27.07ZM341.034 75.8C335.754 75.8 331.189 71.95 331.189 66.67C331.189 60.29 337.569 56 343.949 56C346.754 56 351.099 56.825 353.849 56.825C354.344 56.825 354.784 56.825 355.224 56.77C353.684 55.945 352.309 53.36 350.879 49.345C349.779 46.21 348.349 41.59 347.194 38.18C343.729 27.84 341.144 16.95 335.424 16.95V16.4H353.024V16.95C350.274 16.95 348.569 18.545 348.569 21.24C348.569 23.825 350.494 30.095 352.419 36.365C355.004 44.835 357.534 53.415 359.404 53.415C360.284 53.415 361.329 52.645 361.329 48.74C361.329 39.94 359.789 35.32 359.789 26.685C359.789 21.735 362.044 15.575 367.269 15.575C373.154 15.575 375.959 23.275 375.959 29.82C375.959 52.37 357.644 75.8 341.034 75.8ZM336.029 65.9C336.029 70.3 340.429 72.94 344.774 72.94C359.129 72.94 371.339 51.6 371.339 32.845C371.339 26.685 370.184 20.745 365.949 20.745C362.374 20.745 361.824 25.64 361.824 29.325C361.824 38.235 362.539 44.23 362.539 49.62C362.539 50.72 362.319 52.535 361.439 54.075C361.109 54.79 359.404 57.925 354.014 57.925C350.054 57.925 348.624 57.705 344.939 57.705C339.604 57.705 336.029 61.17 336.029 65.9ZM398.232 13.32L401.147 1H440.417L443.332 13.32H443.057C439.812 7.6 434.642 2.1 425.512 2.1H423.532V37.685C423.532 49.4 422.872 55.45 428.592 55.45V56H412.972V55.45C418.692 55.45 418.032 49.4 418.032 37.685V2.1H416.052C406.922 2.1 401.752 7.6 398.507 13.32H398.232ZM430.384 36.2C430.384 24.815 439.789 15.575 451.119 15.575C462.449 15.575 471.854 24.815 471.854 36.2C471.854 47.585 462.449 56.825 451.119 56.825C439.789 56.825 430.384 47.585 430.384 36.2ZM446.554 18.875C439.074 18.875 432.914 24.32 433.684 33.505C434.124 43.35 444.739 53.525 455.739 53.525C463.219 53.525 469.324 48.08 468.554 38.895C468.169 29.05 457.554 18.875 446.554 18.875ZM27.61 141.825C13.585 141.825 2.2 129.12 2.2 113.5C2.2 97.88 12.76 85.175 27.61 85.175C38.5 85.175 42.735 90.62 42.735 90.62C42.185 93.315 40.315 93.755 39.105 93.755C35.09 93.755 28.93 87.485 21.67 87.485C15.29 87.485 7.26 96.56 7.26 111.025C7.26 126.755 18.865 139.46 31.13 139.46C39.27 139.46 43.45 135.06 43.45 130.385C43.45 128.955 42.735 128.295 42.735 126.92C42.735 126.15 43.285 125.49 44.055 125.49C44.66 125.49 46.255 125.82 46.255 128.735C46.255 134.565 39.215 141.825 27.61 141.825ZM52.7145 122.685C52.7145 110.97 53.3745 104.92 47.6545 104.92V104.37C51.2295 104.37 55.2445 102.72 58.2695 100.575C58.2695 100.575 58.2145 107.89 58.2145 117.185C58.4345 109.43 65.6395 100.575 73.9445 100.575C75.2645 100.575 77.2445 100.63 78.3445 101.4C79.4995 104.7 77.4095 106.735 74.2745 106.735C72.0195 106.735 71.1945 105.635 68.0045 105.635C61.7345 105.635 58.2145 114.985 58.2145 124.445C58.2145 134.4 57.5545 140.45 63.2745 140.45V141H47.6545V140.45C53.3745 140.45 52.7145 134.4 52.7145 122.685ZM97.7543 141.825C86.4243 141.825 77.0193 132.585 77.0193 121.2C77.0193 109.815 86.4243 100.575 97.7543 100.575C109.084 100.575 113.704 108.165 113.704 112.84C113.704 117.515 109.854 118.505 106.444 118.505H81.6943C81.6943 129.12 90.5493 137.26 100.614 137.26C108.149 137.26 113.924 132.75 116.124 127.25L116.674 127.47C114.419 135.775 106.829 141.825 97.7543 141.825ZM81.6943 117.35C87.1393 117.24 90.4943 117.075 96.5443 117.075C102.209 117.075 108.094 116.855 108.094 112.125C108.094 106.185 102.979 102.5 95.3893 102.5C87.1943 102.5 82.1343 108.385 81.6943 117.35ZM119.17 132.64C119.17 121.09 133.36 118.065 143.37 111.025C141.665 104.865 140.565 101.675 137.045 101.675C132.04 101.675 128.19 109.705 123.46 109.705C121.535 109.705 120.105 108.33 120.435 106.46C121.535 104.315 129.51 100.575 136.825 100.575C147.66 100.575 148.87 112.29 152.06 122.3C156.79 137.04 157.505 140.45 163.005 140.45V141H154.645C151.95 141 151.455 139.79 150.025 134.455C149.64 133.025 147.495 125.6 145.845 119.825C144.03 131.815 138.31 141.825 128.74 141.825C122.58 141.825 119.17 137.7 119.17 132.64ZM143.7 112.07C135.505 118.285 124.67 122.41 124.67 131.595C124.67 135.225 127.255 137.865 130.885 137.865C142.105 137.865 145.13 120.76 144.58 115.425C144.25 114.325 143.975 113.225 143.7 112.07ZM158.877 103.05V101.4C162.452 101.4 168.172 94.415 169.657 89.74H170.207C170.207 89.74 170.152 94.58 170.152 101.4H178.897V103.05H170.152C170.152 104.975 170.152 107.01 170.152 109.155V132.695C170.152 135.72 171.032 140.01 174.167 140.01C176.807 140.01 178.897 138.47 180.162 136.435L180.712 136.82C179.667 138.69 176.477 141.825 172.902 141.825C166.357 141.825 164.652 136.985 164.652 131.595V103.05H158.877ZM199.268 141.825C187.938 141.825 178.533 132.585 178.533 121.2C178.533 109.815 187.938 100.575 199.268 100.575C210.598 100.575 215.218 108.165 215.218 112.84C215.218 117.515 211.368 118.505 207.958 118.505H183.208C183.208 129.12 192.063 137.26 202.128 137.26C209.663 137.26 215.438 132.75 217.638 127.25L218.188 127.47C215.933 135.775 208.343 141.825 199.268 141.825ZM183.208 117.35C188.653 117.24 192.008 117.075 198.058 117.075C203.723 117.075 209.608 116.855 209.608 112.125C209.608 106.185 204.493 102.5 196.903 102.5C188.708 102.5 183.648 108.385 183.208 117.35ZM239.912 132.64C239.912 121.09 254.102 118.065 264.112 111.025C262.407 104.865 261.307 101.675 257.787 101.675C252.782 101.675 248.932 109.705 244.202 109.705C242.277 109.705 240.847 108.33 241.177 106.46C242.277 104.315 250.252 100.575 257.567 100.575C268.402 100.575 269.612 112.29 272.802 122.3C277.532 137.04 278.247 140.45 283.747 140.45V141H275.387C272.692 141 272.197 139.79 270.767 134.455C270.382 133.025 268.237 125.6 266.587 119.825C264.772 131.815 259.052 141.825 249.482 141.825C243.322 141.825 239.912 137.7 239.912 132.64ZM264.442 112.07C256.247 118.285 245.412 122.41 245.412 131.595C245.412 135.225 247.997 137.865 251.627 137.865C262.847 137.865 265.872 120.76 265.322 115.425C264.992 114.325 264.717 113.225 264.442 112.07ZM290.171 122.685C290.171 110.97 290.831 104.92 285.111 104.92V104.37C288.686 104.37 292.701 102.72 295.726 100.575C295.726 100.575 295.671 107.01 295.671 115.48C297.871 108.88 302.821 100.575 309.421 100.575C315.691 100.575 317.176 110.365 319.101 117.075C321.906 126.81 324.326 140.45 330.486 140.45V141H323.336C318.991 141 317.781 134.84 315.966 127.085C315.196 123.785 314.151 119.44 313.326 116.14C311.621 109.32 309.806 104.425 306.616 104.425C301.061 104.425 295.726 115.26 295.671 121.695V122.685C295.671 134.4 295.011 140.45 300.731 140.45V141H285.111V140.45C290.831 140.45 290.171 134.4 290.171 122.685ZM328.816 123.29C328.816 109.54 339.651 101.345 350.321 100.63C349.881 98.925 349.551 97.825 349.551 97.825C347.571 91.775 347.351 88.695 343.886 88.695C342.566 88.695 341.576 88.97 340.091 89.355V88.805C343.886 87.485 348.011 85.175 349.826 85.175C352.191 85.175 352.466 87.54 353.401 90.675C353.401 90.675 357.636 107.34 360.386 117.075C363.136 126.81 365.611 140.45 371.771 140.45V141H364.621C361.706 141 360.221 138.195 358.956 133.96C356.096 138.36 351.366 141.825 345.261 141.825C333.436 141.825 328.816 133.245 328.816 123.29ZM350.651 101.73C340.091 102.335 333.876 112.015 333.876 121.64C333.876 130.44 337.891 139.955 347.021 139.955C352.246 139.955 356.096 136.49 358.571 132.585C358.131 130.88 357.691 129.065 357.251 127.085C355.271 118.56 353.016 110.145 350.651 101.73ZM394.021 99.585C394.021 96.89 396.386 85.175 413.986 85.175C424.876 85.175 429.111 90.62 429.111 90.62C428.561 93.315 426.691 93.755 425.481 93.755C421.466 93.755 415.306 87.485 408.046 87.485C402.216 87.485 398.256 91.335 398.256 97.11C398.256 113.5 431.366 108.11 431.366 126.425C431.366 138.91 421.466 141.825 411.786 141.825C403.756 141.825 396.111 137.315 394.296 135.115V126.04C398.421 133.685 405.021 140.285 416.076 140.285C421.906 140.285 427.846 136.655 427.846 129.615C427.846 112.785 394.021 118.89 394.021 99.585ZM456.49 141.825C445.16 141.825 435.755 132.585 435.755 121.2C435.755 109.815 445.16 100.575 456.49 100.575C467.82 100.575 472.44 108.165 472.44 112.84C472.44 117.515 468.59 118.505 465.18 118.505H440.43C440.43 129.12 449.285 137.26 459.35 137.26C466.885 137.26 472.66 132.75 474.86 127.25L475.41 127.47C473.155 135.775 465.565 141.825 456.49 141.825ZM440.43 117.35C445.875 117.24 449.23 117.075 455.28 117.075C460.945 117.075 466.83 116.855 466.83 112.125C466.83 106.185 461.715 102.5 454.125 102.5C445.93 102.5 440.87 108.385 440.43 117.35ZM492.425 141H476.805V140.45C482.525 140.45 481.865 134.4 481.865 122.685V104.755C481.92 94.69 482.085 89.52 476.805 89.52V88.97C480.38 88.97 484.395 87.32 487.42 85.175C487.42 85.175 487.365 94.03 487.365 104.59V122.685C487.365 134.4 486.705 140.45 492.425 140.45V141ZM509.129 141H493.509V140.45C499.229 140.45 498.569 134.4 498.569 122.685V104.755C498.624 94.69 498.789 89.52 493.509 89.52V88.97C497.084 88.97 501.099 87.32 504.124 85.175C504.124 85.175 504.069 94.03 504.069 104.59V122.685C504.069 134.4 503.409 140.45 509.129 140.45V141ZM0.825 171.55V171H35.86L38.83 181.56H38.555C34.54 175.84 25.905 172.1 15.895 172.1H11.385V197.4H34.98L36.245 202.57C31.735 200.535 26.18 198.5 15.015 198.5H11.385V207.685C11.385 219.4 10.725 225.45 16.445 225.45V226H0.825V225.45C6.545 225.45 5.885 219.4 5.885 207.685V189.315C5.885 177.6 6.545 171.55 0.825 171.55ZM38.818 217.64C38.818 206.09 53.008 203.065 63.018 196.025C61.313 189.865 60.213 186.675 56.693 186.675C51.688 186.675 47.838 194.705 43.108 194.705C41.183 194.705 39.753 193.33 40.083 191.46C41.183 189.315 49.158 185.575 56.473 185.575C67.308 185.575 68.518 197.29 71.708 207.3C76.438 222.04 77.153 225.45 82.653 225.45V226H74.293C71.598 226 71.103 224.79 69.673 219.455C69.288 218.025 67.143 210.6 65.493 204.825C63.678 216.815 57.958 226.825 48.388 226.825C42.228 226.825 38.818 222.7 38.818 217.64ZM63.348 197.07C55.153 203.285 44.318 207.41 44.318 216.595C44.318 220.225 46.903 222.865 50.533 222.865C61.753 222.865 64.778 205.76 64.228 200.425C63.898 199.325 63.623 198.225 63.348 197.07ZM112.793 217.035C112.793 205.705 82.9275 211.37 82.9275 196.85C82.9275 189.15 92.3325 185.575 100.143 185.575C106.248 185.575 110.868 187.005 115.103 190.305C115.488 192.505 113.838 194.265 111.583 194.265C106.743 194.265 105.588 187.005 96.9525 187.005C92.9375 187.005 87.3275 189.48 87.3275 194.485C87.3275 206.53 116.753 199.05 116.753 215.825C116.753 223.525 108.118 226.825 100.418 226.825C93.2675 226.825 89.5825 225.34 84.1375 221.655V210.325H84.6875C86.2825 218.63 92.5525 225.615 101.298 225.615C106.908 225.615 112.793 222.645 112.793 217.035ZM119.52 225.45C125.24 225.45 124.58 219.4 124.58 207.685V189.755C124.635 179.69 124.8 174.52 119.52 174.52V173.97C123.095 173.97 127.11 172.32 130.135 170.175C130.135 170.175 130.08 179.03 130.08 189.59V200.48C132.28 193.88 137.23 185.575 143.83 185.575C150.1 185.575 151.585 195.365 153.51 202.075C156.315 211.81 158.735 225.45 164.895 225.45V226H157.745C153.4 226 152.19 219.84 150.375 212.085C149.605 208.785 148.56 204.44 147.735 201.14C146.03 194.32 144.215 189.425 141.025 189.425C135.47 189.425 130.08 200.315 130.08 206.75V207.685C130.08 219.4 129.42 225.45 135.14 225.45V226H119.52V225.45ZM165.98 189.92V189.37C169.555 189.37 173.57 187.72 176.595 185.575C176.595 185.575 176.54 195.97 176.54 207.685C176.54 219.4 175.88 225.45 181.6 225.45V226H165.98V225.45C171.7 225.45 171.04 219.4 171.04 207.685C171.04 195.97 171.7 189.92 165.98 189.92ZM173.405 184.09C170.655 184.09 168.4 181.835 168.4 179.03C168.4 176.28 170.655 174.025 173.405 174.025C176.21 174.025 178.465 176.28 178.465 179.03C178.465 181.835 176.21 184.09 173.405 184.09ZM184.334 206.2C184.334 194.815 193.739 185.575 205.069 185.575C216.399 185.575 225.804 194.815 225.804 206.2C225.804 217.585 216.399 226.825 205.069 226.825C193.739 226.825 184.334 217.585 184.334 206.2ZM200.504 188.875C193.024 188.875 186.864 194.32 187.634 203.505C188.074 213.35 198.689 223.525 209.689 223.525C217.169 223.525 223.274 218.08 222.504 208.895C222.119 199.05 211.504 188.875 200.504 188.875ZM233.613 207.685C233.613 195.97 234.273 189.92 228.553 189.92V189.37C232.128 189.37 236.143 187.72 239.168 185.575C239.168 185.575 239.113 192.01 239.113 200.48C241.313 193.88 246.263 185.575 252.863 185.575C259.133 185.575 260.618 195.365 262.543 202.075C265.348 211.81 267.768 225.45 273.928 225.45V226H266.778C262.433 226 261.223 219.84 259.408 212.085C258.638 208.785 257.593 204.44 256.768 201.14C255.063 194.32 253.248 189.425 250.058 189.425C244.503 189.425 239.168 200.26 239.113 206.695V207.685C239.113 219.4 238.453 225.45 244.173 225.45V226H228.553V225.45C234.273 225.45 233.613 219.4 233.613 207.685ZM294.516 225.45C300.236 225.45 299.576 219.4 299.576 207.685V189.315C299.576 177.6 300.236 171.55 294.516 171.55V171H317.506C327.736 171 333.181 177.27 333.181 183.32C333.181 192.175 324.876 193.88 321.796 194.21C330.486 198.885 337.251 202.13 337.251 211.26C337.251 219.455 330.926 226 318.221 226H294.516V225.45ZM305.076 224.9H316.351C325.536 224.9 331.696 219.125 331.696 211.26C331.696 197.51 311.071 196.41 305.076 178.205V224.9ZM314.316 171.88H305.076C305.076 174.08 305.186 185.795 320.036 193.22L320.256 193.33C324.821 192.45 327.736 188.215 327.736 182.99C327.736 177.545 323.886 171.88 314.316 171.88ZM362.388 226.825C351.058 226.825 341.653 217.585 341.653 206.2C341.653 194.815 351.058 185.575 362.388 185.575C373.718 185.575 378.338 193.165 378.338 197.84C378.338 202.515 374.488 203.505 371.078 203.505H346.328C346.328 214.12 355.183 222.26 365.248 222.26C372.783 222.26 378.558 217.75 380.758 212.25L381.308 212.47C379.053 220.775 371.463 226.825 362.388 226.825ZM346.328 202.35C351.773 202.24 355.128 202.075 361.178 202.075C366.843 202.075 372.728 201.855 372.728 197.125C372.728 191.185 367.613 187.5 360.023 187.5C351.828 187.5 346.768 193.385 346.328 202.35ZM380.508 226V225.45C386.228 225.45 385.568 219.4 385.568 207.685V188.27C385.568 177.215 390.628 170.175 399.318 170.175C401.353 170.175 403.388 170.285 405.753 171.66C406.083 174.19 404.048 175.29 402.563 175.29C399.428 175.29 398.713 172.155 395.633 172.155C391.288 172.155 391.068 178.535 391.068 185.63V186.4H399.483V188.05H391.068V207.685C391.068 219.4 390.408 225.45 396.128 225.45V226H380.508ZM399.5 206.2C399.5 194.815 408.905 185.575 420.235 185.575C431.565 185.575 440.97 194.815 440.97 206.2C440.97 217.585 431.565 226.825 420.235 226.825C408.905 226.825 399.5 217.585 399.5 206.2ZM415.67 188.875C408.19 188.875 402.03 194.32 402.8 203.505C403.24 213.35 413.855 223.525 424.855 223.525C432.335 223.525 438.44 218.08 437.67 208.895C437.285 199.05 426.67 188.875 415.67 188.875ZM448.779 207.685C448.779 195.97 449.439 189.92 443.719 189.92V189.37C447.294 189.37 451.309 187.72 454.334 185.575C454.334 185.575 454.279 192.89 454.279 202.185C454.499 194.43 461.704 185.575 470.009 185.575C471.329 185.575 473.309 185.63 474.409 186.4C475.564 189.7 473.474 191.735 470.339 191.735C468.084 191.735 467.259 190.635 464.069 190.635C457.799 190.635 454.279 199.985 454.279 209.445C454.279 219.4 453.619 225.45 459.339 225.45V226H443.719V225.45C449.439 225.45 448.779 219.4 448.779 207.685ZM493.819 226.825C482.489 226.825 473.084 217.585 473.084 206.2C473.084 194.815 482.489 185.575 493.819 185.575C505.149 185.575 509.769 193.165 509.769 197.84C509.769 202.515 505.919 203.505 502.509 203.505H477.759C477.759 214.12 486.614 222.26 496.679 222.26C504.214 222.26 509.989 217.75 512.189 212.25L512.739 212.47C510.484 220.775 502.894 226.825 493.819 226.825ZM477.759 202.35C483.204 202.24 486.559 202.075 492.609 202.075C498.274 202.075 504.159 201.855 504.159 197.125C504.159 191.185 499.044 187.5 491.454 187.5C483.259 187.5 478.199 193.385 477.759 202.35ZM533.638 171.55V171H549.258V171.55C543.538 171.55 544.198 177.6 544.198 189.315V207.685C544.198 219.4 543.538 225.45 549.258 225.45V226H533.638V225.45C539.358 225.45 538.698 219.4 538.698 207.685V189.315C538.698 177.6 539.358 171.55 533.638 171.55ZM550.107 188.05V186.4C553.682 186.4 559.402 179.415 560.887 174.74H561.437C561.437 174.74 561.382 179.58 561.382 186.4H570.127V188.05H561.382C561.382 189.975 561.382 192.01 561.382 194.155V217.695C561.382 220.72 562.262 225.01 565.397 225.01C568.037 225.01 570.127 223.47 571.392 221.435L571.942 221.82C570.897 223.69 567.707 226.825 564.132 226.825C557.587 226.825 555.882 221.985 555.882 216.595V188.05H550.107ZM5.885 274.315C5.885 262.6 6.545 256.55 0.825 256.55V256H11.385V279.1C12.1 268.87 20.13 255.175 35.31 255.175C37.95 255.175 41.14 255.45 42.735 256V261.17C40.095 260.51 36.795 260.07 33.715 260.07C19.195 260.07 12.43 270.245 11.495 282.4H39.985V283.5H11.44C11.385 284.105 11.385 284.71 11.385 285.315V309.9H16.115C28.16 309.9 39.05 307.81 44.715 299.505H44.99L40.975 311H0.825V310.45C6.545 310.45 5.885 304.4 5.885 292.685V274.315ZM62.7198 291.585C56.8898 282.51 50.6198 271.95 45.0098 271.95V271.4H61.6198V271.95C60.2448 271.95 59.1998 272.555 59.1448 274.15C59.0348 276.845 64.6448 284.435 68.2748 289.88C71.6298 284.655 75.5348 278.385 75.5348 275.195C75.5348 272.445 73.5548 271.95 72.1798 271.95V271.4H86.2048V271.95C80.7048 271.95 74.6548 281.96 68.9348 290.925C74.7648 299.945 80.9798 310.45 86.5898 310.45V311H69.9798V310.45C71.3548 310.45 72.3998 309.79 72.4548 308.195C72.5648 305.555 67.0098 298.02 63.3798 292.63C60.0248 297.8 56.1748 304.07 56.1748 307.205C56.1748 309.955 58.1548 310.45 59.5298 310.45V311H45.5048V310.45C50.9498 310.45 56.9998 300.495 62.7198 291.585ZM87.132 274.92V274.37C90.707 274.37 94.722 272.72 97.747 270.575C97.747 270.575 97.692 280.97 97.692 292.685C97.692 304.4 97.032 310.45 102.752 310.45V311H87.132V310.45C92.852 310.45 92.192 304.4 92.192 292.685C92.192 280.97 92.852 274.92 87.132 274.92ZM94.557 269.09C91.807 269.09 89.552 266.835 89.552 264.03C89.552 261.28 91.807 259.025 94.557 259.025C97.362 259.025 99.617 261.28 99.617 264.03C99.617 266.835 97.362 269.09 94.557 269.09ZM135.351 302.035C135.351 290.705 105.486 296.37 105.486 281.85C105.486 274.15 114.891 270.575 122.701 270.575C128.806 270.575 133.426 272.005 137.661 275.305C138.046 277.505 136.396 279.265 134.141 279.265C129.301 279.265 128.146 272.005 119.511 272.005C115.496 272.005 109.886 274.48 109.886 279.485C109.886 291.53 139.311 284.05 139.311 300.825C139.311 308.525 130.676 311.825 122.976 311.825C115.826 311.825 112.141 310.34 106.696 306.655V295.325H107.246C108.841 303.63 115.111 310.615 123.856 310.615C129.466 310.615 135.351 307.645 135.351 302.035ZM141.528 273.05V271.4C145.103 271.4 150.823 264.415 152.308 259.74H152.858C152.858 259.74 152.803 264.58 152.803 271.4H161.548V273.05H152.803C152.803 274.975 152.803 277.01 152.803 279.155V302.695C152.803 305.72 153.683 310.01 156.818 310.01C159.458 310.01 161.548 308.47 162.813 306.435L163.363 306.82C162.318 308.69 159.128 311.825 155.553 311.825C149.008 311.825 147.303 306.985 147.303 301.595V273.05H141.528ZM195.454 302.035C195.454 290.705 165.589 296.37 165.589 281.85C165.589 274.15 174.994 270.575 182.804 270.575C188.909 270.575 193.529 272.005 197.764 275.305C198.149 277.505 196.499 279.265 194.244 279.265C189.404 279.265 188.249 272.005 179.614 272.005C175.599 272.005 169.989 274.48 169.989 279.485C169.989 291.53 199.414 284.05 199.414 300.825C199.414 308.525 190.779 311.825 183.079 311.825C175.929 311.825 172.244 310.34 166.799 306.655V295.325H167.349C168.944 303.63 175.214 310.615 183.959 310.615C189.569 310.615 195.454 307.645 195.454 302.035Z" fill="white"/>
</svg>
