<svg width="313" height="170" viewBox="0 0 313 170" fill="none" xmlns="http://www.w3.org/2000/svg">
<path d="M32.1929 31.45C29.5829 31.45 28.1129 28.72 28.1129 26.08C28.1129 18.19 36.4229 9.28 39.8429 6.4C39.5429 5.5 39.3029 4.66 39.0929 3.94C38.1929 0.879998 35.6129 1.36 35.6129 1.36V1H41.4929C41.4929 1 41.6429 1.57 41.9429 2.53C43.1129 6.28 46.0829 16 47.5529 20.68C49.4129 26.56 50.4329 30.7 53.5529 30.7V31H42.1529V30.7C43.8029 30.7 45.3929 30.55 45.8429 28.99C46.2629 27.55 45.5729 25.09 44.3129 20.83C43.5329 18.37 42.3329 14.5 41.1929 10.87C41.4029 17.8 39.1529 31.45 32.1929 31.45ZM40.0529 7.09C36.4229 10.24 30.4829 16.93 30.4829 24.49C30.4829 26.41 31.4129 28.51 33.3329 28.51C38.0729 28.51 41.4029 16.45 40.4429 8.44C40.2329 7.75 40.0529 7.06 39.8429 6.4C39.9029 6.64 39.9629 6.85 40.0529 7.09ZM64.9285 1.3V1H69.9685L86.5585 23.53V19.81C86.5585 11.35 85.4485 1.3 81.4285 1.3V1H89.9485V1.3C86.8285 1.3 87.1885 4.6 87.1885 10.99V24.4L88.7185 26.47V31.45L68.3185 3.73V12.19C68.3185 20.65 69.4285 30.7 73.4485 30.7V31H64.9285V30.7C68.0485 30.7 67.6885 27.4 67.6885 21.01V10.99C67.6885 4.6 68.0485 1.3 64.9285 1.3ZM102.916 31.45C96.7363 31.45 91.6063 26.41 91.6063 20.2C91.6063 13.99 96.7363 8.95 102.916 8.95C109.096 8.95 111.616 13.09 111.616 15.64C111.616 18.19 109.516 18.73 107.656 18.73H94.1562C94.1562 24.52 98.9863 28.96 104.476 28.96C108.586 28.96 111.736 26.5 112.936 23.5L113.236 23.62C112.006 28.15 107.866 31.45 102.916 31.45ZM94.1562 18.1C97.1263 18.04 98.9563 17.95 102.256 17.95C105.346 17.95 108.556 17.83 108.556 15.25C108.556 12.01 105.766 10 101.626 10C97.1563 10 94.3963 13.21 94.1562 18.1ZM111.295 9.4H120.895V9.7C119.395 9.7 118.465 10.57 118.465 12.04C118.465 13.45 119.485 16.84 120.445 20.29C121.165 22.87 121.855 25.54 122.245 26.92C122.875 29.23 123.055 29.74 123.415 29.74C124.315 29.74 126.295 17.5 126.715 14.83C125.635 11.92 124.345 9.7 122.485 9.7V9.4H132.085V9.7C130.585 9.7 129.655 10.57 129.655 12.04C129.655 13.45 130.675 16.84 131.635 20.29C132.355 22.87 133.045 25.54 133.435 26.92C134.065 29.23 134.245 29.74 134.605 29.74C135.625 29.74 137.665 16.36 137.665 16.36C138.055 14.29 138.295 9.73 134.755 9.73V9.4H144.565V9.7C141.445 9.7 140.095 13.06 138.985 17.32C138.985 17.32 137.755 21.67 137.245 23.5C136.195 27.28 135.625 31.45 133.405 31.45C131.905 31.45 131.485 30.1 130.615 27.37C130.045 25.6 129.355 23.17 128.785 21.28C128.425 20.11 128.065 18.88 127.705 17.68C127.375 18.79 126.475 22 126.055 23.5C125.005 27.28 124.435 31.45 122.215 31.45C120.715 31.45 120.295 30.1 119.425 27.37C118.855 25.6 118.195 23.17 117.595 21.28C115.945 16 114.415 9.7 111.295 9.7V9.4ZM155.514 1.3V1H166.914V1.3C165.264 1.3 163.674 1.45 163.224 3.01C162.804 4.45 163.494 6.91 164.754 11.17C165.984 15.07 169.074 24.88 170.544 29.83C171.744 25.51 173.994 16.09 175.164 10.9C173.394 5.23 172.344 1.3 169.314 1.3V1H180.714V1.3C179.064 1.3 177.474 1.45 177.024 3.01C176.604 4.45 177.294 6.91 178.554 11.17C179.784 15.07 182.874 24.88 184.344 29.83C185.874 24.31 189.144 10.45 189.654 7.72C190.494 3.16 189.924 1.3 185.394 1.3V1H196.794V1.3C193.674 1.3 192.654 5.44 190.794 11.32C189.324 16 186.354 25.72 185.184 29.47C184.884 30.43 184.734 31 184.734 31H181.374C181.374 31 181.224 30.43 180.924 29.47C179.934 26.35 177.714 19.06 176.154 14.02C174.594 19.06 172.344 26.35 171.384 29.47C171.084 30.43 170.934 31 170.934 31H167.574C167.574 31 167.424 30.43 167.124 29.47C165.954 25.72 162.984 16 161.514 11.32C159.654 5.44 158.634 1.3 155.514 1.3ZM192.761 26.44C192.761 20.14 200.501 18.49 205.961 14.65C205.031 11.29 204.431 9.55 202.511 9.55C199.781 9.55 197.681 13.93 195.101 13.93C194.051 13.93 193.271 13.18 193.451 12.16C194.051 10.99 198.401 8.95 202.391 8.95C208.301 8.95 208.961 15.34 210.701 20.8C213.281 28.84 213.671 30.7 216.671 30.7V31H212.111C210.641 31 210.371 30.34 209.591 27.43C209.381 26.65 208.211 22.6 207.311 19.45C206.321 25.99 203.201 31.45 197.981 31.45C194.621 31.45 192.761 29.2 192.761 26.44ZM206.141 15.22C201.671 18.61 195.761 20.86 195.761 25.87C195.761 27.85 197.171 29.29 199.151 29.29C205.271 29.29 206.921 19.96 206.621 17.05C206.441 16.45 206.291 15.85 206.141 15.22ZM213.231 41.8C210.351 41.8 207.861 39.7 207.861 36.82C207.861 33.34 211.341 31 214.821 31C216.351 31 218.721 31.45 220.221 31.45C220.491 31.45 220.731 31.45 220.971 31.42C220.131 30.97 219.381 29.56 218.601 27.37C218.001 25.66 217.221 23.14 216.591 21.28C214.701 15.64 213.291 9.7 210.171 9.7V9.4H219.771V9.7C218.271 9.7 217.341 10.57 217.341 12.04C217.341 13.45 218.391 16.87 219.441 20.29C220.851 24.91 222.231 29.59 223.251 29.59C223.731 29.59 224.301 29.17 224.301 27.04C224.301 22.24 223.461 19.72 223.461 15.01C223.461 12.31 224.691 8.95 227.541 8.95C230.751 8.95 232.281 13.15 232.281 16.72C232.281 29.02 222.291 41.8 213.231 41.8ZM210.501 36.4C210.501 38.8 212.901 40.24 215.271 40.24C223.101 40.24 229.761 28.6 229.761 18.37C229.761 15.01 229.131 11.77 226.821 11.77C224.871 11.77 224.571 14.44 224.571 16.45C224.571 21.31 224.961 24.58 224.961 27.52C224.961 28.12 224.841 29.11 224.361 29.95C224.181 30.34 223.251 32.05 220.311 32.05C218.151 32.05 217.371 31.93 215.361 31.93C212.451 31.93 210.501 33.82 210.501 36.4ZM244.43 7.72L246.02 1H267.44L269.03 7.72H268.88C267.11 4.6 264.29 1.6 259.31 1.6H258.23V21.01C258.23 27.4 257.87 30.7 260.99 30.7V31H252.47V30.7C255.59 30.7 255.23 27.4 255.23 21.01V1.6H254.15C249.17 1.6 246.35 4.6 244.58 7.72H244.43ZM261.968 20.2C261.968 13.99 267.098 8.95 273.278 8.95C279.458 8.95 284.588 13.99 284.588 20.2C284.588 26.41 279.458 31.45 273.278 31.45C267.098 31.45 261.968 26.41 261.968 20.2ZM270.788 10.75C266.708 10.75 263.348 13.72 263.768 18.73C264.008 24.1 269.798 29.65 275.798 29.65C279.878 29.65 283.208 26.68 282.788 21.67C282.578 16.3 276.788 10.75 270.788 10.75ZM32.561 77.45C24.911 77.45 18.701 70.52 18.701 62C18.701 53.48 24.461 46.55 32.561 46.55C38.501 46.55 40.811 49.52 40.811 49.52C40.511 50.99 39.491 51.23 38.831 51.23C36.641 51.23 33.281 47.81 29.321 47.81C25.841 47.81 21.461 52.76 21.461 60.65C21.461 69.23 27.791 76.16 34.481 76.16C38.921 76.16 41.201 73.76 41.201 71.21C41.201 70.43 40.811 70.07 40.811 69.32C40.811 68.9 41.111 68.54 41.531 68.54C41.861 68.54 42.731 68.72 42.731 70.31C42.731 73.49 38.891 77.45 32.561 77.45ZM46.2543 67.01C46.2543 60.62 46.6143 57.32 43.4943 57.32V57.02C45.4443 57.02 47.6343 56.12 49.2843 54.95C49.2843 54.95 49.2543 58.94 49.2543 64.01C49.3743 59.78 53.3043 54.95 57.8343 54.95C58.5543 54.95 59.6343 54.98 60.2343 55.4C60.8643 57.2 59.7243 58.31 58.0143 58.31C56.7843 58.31 56.3343 57.71 54.5943 57.71C51.1743 57.71 49.2543 62.81 49.2543 67.97C49.2543 73.4 48.8943 76.7 52.0143 76.7V77H43.4943V76.7C46.6143 76.7 46.2543 73.4 46.2543 67.01ZM70.8215 77.45C64.6415 77.45 59.5115 72.41 59.5115 66.2C59.5115 59.99 64.6415 54.95 70.8215 54.95C77.0015 54.95 79.5215 59.09 79.5215 61.64C79.5215 64.19 77.4215 64.73 75.5615 64.73H62.0615C62.0615 70.52 66.8915 74.96 72.3815 74.96C76.4915 74.96 79.6415 72.5 80.8415 69.5L81.1415 69.62C79.9115 74.15 75.7715 77.45 70.8215 77.45ZM62.0615 64.1C65.0315 64.04 66.8615 63.95 70.1615 63.95C73.2515 63.95 76.4615 63.83 76.4615 61.25C76.4615 58.01 73.6715 56 69.5315 56C65.0615 56 62.3015 59.21 62.0615 64.1ZM82.5025 72.44C82.5025 66.14 90.2425 64.49 95.7025 60.65C94.7725 57.29 94.1725 55.55 92.2525 55.55C89.5225 55.55 87.4225 59.93 84.8425 59.93C83.7925 59.93 83.0125 59.18 83.1925 58.16C83.7925 56.99 88.1425 54.95 92.1325 54.95C98.0425 54.95 98.7025 61.34 100.443 66.8C103.023 74.84 103.413 76.7 106.413 76.7V77H101.853C100.383 77 100.113 76.34 99.3325 73.43C99.1225 72.65 97.9525 68.6 97.0525 65.45C96.0625 71.99 92.9425 77.45 87.7225 77.45C84.3625 77.45 82.5025 75.2 82.5025 72.44ZM95.8825 61.22C91.4125 64.61 85.5025 66.86 85.5025 71.87C85.5025 73.85 86.9125 75.29 88.8925 75.29C95.0125 75.29 96.6625 65.96 96.3625 63.05C96.1825 62.45 96.0325 61.85 95.8825 61.22ZM104.161 56.3V55.4C106.111 55.4 109.231 51.59 110.041 49.04H110.341C110.341 49.04 110.311 51.68 110.311 55.4H115.081V56.3H110.311C110.311 57.35 110.311 58.46 110.311 59.63V72.47C110.311 74.12 110.791 76.46 112.501 76.46C113.941 76.46 115.081 75.62 115.771 74.51L116.071 74.72C115.501 75.74 113.761 77.45 111.811 77.45C108.241 77.45 107.311 74.81 107.311 71.87V56.3H104.161ZM126.193 77.45C120.013 77.45 114.883 72.41 114.883 66.2C114.883 59.99 120.013 54.95 126.193 54.95C132.373 54.95 134.893 59.09 134.893 61.64C134.893 64.19 132.793 64.73 130.933 64.73H117.433C117.433 70.52 122.263 74.96 127.753 74.96C131.863 74.96 135.013 72.5 136.213 69.5L136.513 69.62C135.283 74.15 131.143 77.45 126.193 77.45ZM117.433 64.1C120.403 64.04 122.233 63.95 125.533 63.95C128.623 63.95 131.833 63.83 131.833 61.25C131.833 58.01 129.043 56 124.903 56C120.433 56 117.673 59.21 117.433 64.1ZM148.362 72.44C148.362 66.14 156.102 64.49 161.562 60.65C160.632 57.29 160.032 55.55 158.112 55.55C155.382 55.55 153.282 59.93 150.702 59.93C149.652 59.93 148.872 59.18 149.052 58.16C149.652 56.99 154.002 54.95 157.992 54.95C163.902 54.95 164.562 61.34 166.302 66.8C168.882 74.84 169.272 76.7 172.272 76.7V77H167.712C166.242 77 165.972 76.34 165.192 73.43C164.982 72.65 163.812 68.6 162.912 65.45C161.922 71.99 158.802 77.45 153.582 77.45C150.222 77.45 148.362 75.2 148.362 72.44ZM161.742 61.22C157.272 64.61 151.362 66.86 151.362 71.87C151.362 73.85 152.772 75.29 154.752 75.29C160.872 75.29 162.522 65.96 162.222 63.05C162.042 62.45 161.892 61.85 161.742 61.22ZM175.776 67.01C175.776 60.62 176.136 57.32 173.016 57.32V57.02C174.966 57.02 177.156 56.12 178.806 54.95C178.806 54.95 178.776 58.46 178.776 63.08C179.976 59.48 182.676 54.95 186.276 54.95C189.696 54.95 190.506 60.29 191.556 63.95C193.086 69.26 194.406 76.7 197.766 76.7V77H193.866C191.496 77 190.836 73.64 189.846 69.41C189.426 67.61 188.856 65.24 188.406 63.44C187.476 59.72 186.486 57.05 184.746 57.05C181.716 57.05 178.806 62.96 178.776 66.47V67.01C178.776 73.4 178.416 76.7 181.536 76.7V77H173.016V76.7C176.136 76.7 175.776 73.4 175.776 67.01ZM196.855 67.34C196.855 59.84 202.765 55.37 208.585 54.98C208.345 54.05 208.165 53.45 208.165 53.45C207.085 50.15 206.965 48.47 205.075 48.47C204.355 48.47 203.815 48.62 203.005 48.83V48.53C205.075 47.81 207.325 46.55 208.315 46.55C209.605 46.55 209.755 47.84 210.265 49.55C210.265 49.55 212.575 58.64 214.075 63.95C215.575 69.26 216.925 76.7 220.285 76.7V77H216.385C214.795 77 213.985 75.47 213.295 73.16C211.735 75.56 209.155 77.45 205.825 77.45C199.375 77.45 196.855 72.77 196.855 67.34ZM208.765 55.58C203.005 55.91 199.615 61.19 199.615 66.44C199.615 71.24 201.805 76.43 206.785 76.43C209.635 76.43 211.735 74.54 213.085 72.41C212.845 71.48 212.605 70.49 212.365 69.41C211.285 64.76 210.055 60.17 208.765 55.58ZM232.422 54.41C232.422 52.94 233.712 46.55 243.312 46.55C249.252 46.55 251.562 49.52 251.562 49.52C251.262 50.99 250.242 51.23 249.582 51.23C247.392 51.23 244.032 47.81 240.072 47.81C236.892 47.81 234.732 49.91 234.732 53.06C234.732 62 252.792 59.06 252.792 69.05C252.792 75.86 247.392 77.45 242.112 77.45C237.732 77.45 233.562 74.99 232.572 73.79V68.84C234.822 73.01 238.422 76.61 244.452 76.61C247.632 76.61 250.872 74.63 250.872 70.79C250.872 61.61 232.422 64.94 232.422 54.41ZM266.495 77.45C260.315 77.45 255.185 72.41 255.185 66.2C255.185 59.99 260.315 54.95 266.495 54.95C272.675 54.95 275.195 59.09 275.195 61.64C275.195 64.19 273.095 64.73 271.235 64.73H257.735C257.735 70.52 262.565 74.96 268.055 74.96C272.165 74.96 275.315 72.5 276.515 69.5L276.815 69.62C275.585 74.15 271.445 77.45 266.495 77.45ZM257.735 64.1C260.705 64.04 262.535 63.95 265.835 63.95C268.925 63.95 272.135 63.83 272.135 61.25C272.135 58.01 269.345 56 265.205 56C260.735 56 257.975 59.21 257.735 64.1ZM286.096 77H277.576V76.7C280.696 76.7 280.336 73.4 280.336 67.01V57.23C280.366 51.74 280.456 48.92 277.576 48.92V48.62C279.526 48.62 281.716 47.72 283.366 46.55C283.366 46.55 283.336 51.38 283.336 57.14V67.01C283.336 73.4 282.976 76.7 286.096 76.7V77ZM295.208 77H286.688V76.7C289.808 76.7 289.448 73.4 289.448 67.01V57.23C289.478 51.74 289.568 48.92 286.688 48.92V48.62C288.638 48.62 290.828 47.72 292.478 46.55C292.478 46.55 292.448 51.38 292.448 57.14V67.01C292.448 73.4 292.088 76.7 295.208 76.7V77ZM0.958789 93.3V93H20.0688L21.6888 98.76H21.5388C19.3488 95.64 14.6388 93.6 9.17879 93.6H6.71879V107.4H19.5888L20.2788 110.22C17.8188 109.11 14.7888 108 8.69879 108H6.71879V113.01C6.71879 119.4 6.35879 122.7 9.47879 122.7V123H0.958789V122.7C4.07879 122.7 3.71879 119.4 3.71879 113.01V102.99C3.71879 96.6 4.07879 93.3 0.958789 93.3ZM21.6822 118.44C21.6822 112.14 29.4222 110.49 34.8822 106.65C33.9522 103.29 33.3522 101.55 31.4322 101.55C28.7022 101.55 26.6022 105.93 24.0222 105.93C22.9722 105.93 22.1922 105.18 22.3722 104.16C22.9722 102.99 27.3222 100.95 31.3122 100.95C37.2222 100.95 37.8822 107.34 39.6222 112.8C42.2022 120.84 42.5922 122.7 45.5922 122.7V123H41.0322C39.5622 123 39.2922 122.34 38.5122 119.43C38.3022 118.65 37.1322 114.6 36.2322 111.45C35.2422 117.99 32.1222 123.45 26.9022 123.45C23.5422 123.45 21.6822 121.2 21.6822 118.44ZM35.0622 107.22C30.5922 110.61 24.6822 112.86 24.6822 117.87C24.6822 119.85 26.0922 121.29 28.0722 121.29C34.1922 121.29 35.8422 111.96 35.5422 109.05C35.3622 108.45 35.2122 107.85 35.0622 107.22ZM62.032 118.11C62.032 111.93 45.742 115.02 45.742 107.1C45.742 102.9 50.872 100.95 55.132 100.95C58.462 100.95 60.982 101.73 63.292 103.53C63.502 104.73 62.602 105.69 61.372 105.69C58.732 105.69 58.102 101.73 53.392 101.73C51.202 101.73 48.142 103.08 48.142 105.81C48.142 112.38 64.192 108.3 64.192 117.45C64.192 121.65 59.482 123.45 55.282 123.45C51.382 123.45 49.372 122.64 46.402 120.63V114.45H46.702C47.572 118.98 50.992 122.79 55.762 122.79C58.822 122.79 62.032 121.17 62.032 118.11ZM65.7014 122.7C68.8214 122.7 68.4614 119.4 68.4614 113.01V103.23C68.4914 97.74 68.5814 94.92 65.7014 94.92V94.62C67.6514 94.62 69.8414 93.72 71.4914 92.55C71.4914 92.55 71.4614 97.38 71.4614 103.14V109.08C72.6614 105.48 75.3614 100.95 78.9614 100.95C82.3814 100.95 83.1914 106.29 84.2414 109.95C85.7714 115.26 87.0914 122.7 90.4514 122.7V123H86.5514C84.1814 123 83.5214 119.64 82.5314 115.41C82.1114 113.61 81.5414 111.24 81.0914 109.44C80.1614 105.72 79.1714 103.05 77.4314 103.05C74.4014 103.05 71.4614 108.99 71.4614 112.5V113.01C71.4614 119.4 71.1014 122.7 74.2214 122.7V123H65.7014V122.7ZM91.0432 103.32V103.02C92.9932 103.02 95.1832 102.12 96.8332 100.95C96.8332 100.95 96.8032 106.62 96.8032 113.01C96.8032 119.4 96.4432 122.7 99.5632 122.7V123H91.0432V122.7C94.1632 122.7 93.8032 119.4 93.8032 113.01C93.8032 106.62 94.1632 103.32 91.0432 103.32ZM95.0932 100.14C93.5932 100.14 92.3632 98.91 92.3632 97.38C92.3632 95.88 93.5932 94.65 95.0932 94.65C96.6232 94.65 97.8532 95.88 97.8532 97.38C97.8532 98.91 96.6232 100.14 95.0932 100.14ZM101.054 112.2C101.054 105.99 106.184 100.95 112.364 100.95C118.544 100.95 123.674 105.99 123.674 112.2C123.674 118.41 118.544 123.45 112.364 123.45C106.184 123.45 101.054 118.41 101.054 112.2ZM109.874 102.75C105.794 102.75 102.434 105.72 102.854 110.73C103.094 116.1 108.884 121.65 114.884 121.65C118.964 121.65 122.294 118.68 121.874 113.67C121.664 108.3 115.874 102.75 109.874 102.75ZM127.934 113.01C127.934 106.62 128.294 103.32 125.174 103.32V103.02C127.124 103.02 129.314 102.12 130.964 100.95C130.964 100.95 130.934 104.46 130.934 109.08C132.134 105.48 134.834 100.95 138.434 100.95C141.854 100.95 142.664 106.29 143.714 109.95C145.244 115.26 146.564 122.7 149.924 122.7V123H146.024C143.654 123 142.994 119.64 142.004 115.41C141.584 113.61 141.014 111.24 140.564 109.44C139.634 105.72 138.644 103.05 136.904 103.05C133.874 103.05 130.964 108.96 130.934 112.47V113.01C130.934 119.4 130.574 122.7 133.694 122.7V123H125.174V122.7C128.294 122.7 127.934 119.4 127.934 113.01ZM161.154 122.7C164.274 122.7 163.914 119.4 163.914 113.01V102.99C163.914 96.6 164.274 93.3 161.154 93.3V93H173.694C179.274 93 182.244 96.42 182.244 99.72C182.244 104.55 177.714 105.48 176.034 105.66C180.774 108.21 184.464 109.98 184.464 114.96C184.464 119.43 181.014 123 174.084 123H161.154V122.7ZM166.914 122.4H173.064C178.074 122.4 181.434 119.25 181.434 114.96C181.434 107.46 170.184 106.86 166.914 96.93V122.4ZM171.954 93.48H166.914C166.914 94.68 166.974 101.07 175.074 105.12L175.194 105.18C177.684 104.7 179.274 102.39 179.274 99.54C179.274 96.57 177.174 93.48 171.954 93.48ZM198.175 123.45C191.995 123.45 186.865 118.41 186.865 112.2C186.865 105.99 191.995 100.95 198.175 100.95C204.355 100.95 206.875 105.09 206.875 107.64C206.875 110.19 204.775 110.73 202.915 110.73H189.415C189.415 116.52 194.245 120.96 199.735 120.96C203.845 120.96 206.995 118.5 208.195 115.5L208.495 115.62C207.265 120.15 203.125 123.45 198.175 123.45ZM189.415 110.1C192.385 110.04 194.215 109.95 197.515 109.95C200.605 109.95 203.815 109.83 203.815 107.25C203.815 104.01 201.025 102 196.885 102C192.415 102 189.655 105.21 189.415 110.1ZM208.058 123V122.7C211.178 122.7 210.818 119.4 210.818 113.01V102.42C210.818 96.39 213.578 92.55 218.318 92.55C219.428 92.55 220.538 92.61 221.828 93.36C222.008 94.74 220.898 95.34 220.088 95.34C218.378 95.34 217.988 93.63 216.308 93.63C213.938 93.63 213.818 97.11 213.818 100.98V101.4H218.408V102.3H213.818V113.01C213.818 119.4 213.458 122.7 216.578 122.7V123H208.058ZM218.418 112.2C218.418 105.99 223.548 100.95 229.728 100.95C235.908 100.95 241.038 105.99 241.038 112.2C241.038 118.41 235.908 123.45 229.728 123.45C223.548 123.45 218.418 118.41 218.418 112.2ZM227.238 102.75C223.158 102.75 219.798 105.72 220.218 110.73C220.458 116.1 226.248 121.65 232.248 121.65C236.328 121.65 239.658 118.68 239.238 113.67C239.028 108.3 233.238 102.75 227.238 102.75ZM245.297 113.01C245.297 106.62 245.657 103.32 242.537 103.32V103.02C244.487 103.02 246.677 102.12 248.327 100.95C248.327 100.95 248.297 104.94 248.297 110.01C248.417 105.78 252.347 100.95 256.877 100.95C257.597 100.95 258.677 100.98 259.277 101.4C259.907 103.2 258.767 104.31 257.057 104.31C255.827 104.31 255.377 103.71 253.637 103.71C250.217 103.71 248.297 108.81 248.297 113.97C248.297 119.4 247.937 122.7 251.057 122.7V123H242.537V122.7C245.657 122.7 245.297 119.4 245.297 113.01ZM269.864 123.45C263.684 123.45 258.554 118.41 258.554 112.2C258.554 105.99 263.684 100.95 269.864 100.95C276.044 100.95 278.564 105.09 278.564 107.64C278.564 110.19 276.464 110.73 274.604 110.73H261.104C261.104 116.52 265.934 120.96 271.424 120.96C275.534 120.96 278.684 118.5 279.884 115.5L280.184 115.62C278.954 120.15 274.814 123.45 269.864 123.45ZM261.104 110.1C264.074 110.04 265.904 109.95 269.204 109.95C272.294 109.95 275.504 109.83 275.504 107.25C275.504 104.01 272.714 102 268.574 102C264.104 102 261.344 105.21 261.104 110.1ZM291.584 93.3V93H300.104V93.3C296.984 93.3 297.344 96.6 297.344 102.99V113.01C297.344 119.4 296.984 122.7 300.104 122.7V123H291.584V122.7C294.704 122.7 294.344 119.4 294.344 113.01V102.99C294.344 96.6 294.704 93.3 291.584 93.3ZM300.567 102.3V101.4C302.517 101.4 305.637 97.59 306.447 95.04H306.747C306.747 95.04 306.717 97.68 306.717 101.4H311.487V102.3H306.717C306.717 103.35 306.717 104.46 306.717 105.63V118.47C306.717 120.12 307.197 122.46 308.907 122.46C310.347 122.46 311.487 121.62 312.177 120.51L312.477 120.72C311.907 121.74 310.167 123.45 308.217 123.45C304.647 123.45 303.717 120.81 303.717 117.87V102.3H300.567ZM104.72 148.99C104.72 142.6 105.08 139.3 101.96 139.3V139H107.72V151.6C108.11 146.02 112.49 138.55 120.77 138.55C122.21 138.55 123.95 138.7 124.82 139V141.82C123.38 141.46 121.58 141.22 119.9 141.22C111.98 141.22 108.29 146.77 107.78 153.4H123.32V154H107.75C107.72 154.33 107.72 154.66 107.72 154.99V168.4H110.3C116.87 168.4 122.81 167.26 125.9 162.73H126.05L123.86 169H101.96V168.7C105.08 168.7 104.72 165.4 104.72 159.01V148.99ZM135.721 158.41C132.541 153.46 129.121 147.7 126.061 147.7V147.4H135.121V147.7C134.371 147.7 133.801 148.03 133.771 148.9C133.711 150.37 136.771 154.51 138.751 157.48C140.581 154.63 142.711 151.21 142.711 149.47C142.711 147.97 141.631 147.7 140.881 147.7V147.4H148.531V147.7C145.531 147.7 142.231 153.16 139.111 158.05C142.291 162.97 145.681 168.7 148.741 168.7V169H139.681V168.7C140.431 168.7 141.001 168.34 141.031 167.47C141.091 166.03 138.061 161.92 136.081 158.98C134.251 161.8 132.151 165.22 132.151 166.93C132.151 168.43 133.231 168.7 133.981 168.7V169H126.331V168.7C129.301 168.7 132.601 163.27 135.721 158.41ZM149.036 149.32V149.02C150.986 149.02 153.176 148.12 154.826 146.95C154.826 146.95 154.796 152.62 154.796 159.01C154.796 165.4 154.436 168.7 157.556 168.7V169H149.036V168.7C152.156 168.7 151.796 165.4 151.796 159.01C151.796 152.62 152.156 149.32 149.036 149.32ZM153.086 146.14C151.586 146.14 150.356 144.91 150.356 143.38C150.356 141.88 151.586 140.65 153.086 140.65C154.616 140.65 155.846 141.88 155.846 143.38C155.846 144.91 154.616 146.14 153.086 146.14ZM175.338 164.11C175.338 157.93 159.048 161.02 159.048 153.1C159.048 148.9 164.178 146.95 168.438 146.95C171.768 146.95 174.288 147.73 176.598 149.53C176.808 150.73 175.908 151.69 174.678 151.69C172.038 151.69 171.408 147.73 166.698 147.73C164.508 147.73 161.448 149.08 161.448 151.81C161.448 158.38 177.498 154.3 177.498 163.45C177.498 167.65 172.788 169.45 168.588 169.45C164.688 169.45 162.678 168.64 159.708 166.63V160.45H160.008C160.878 164.98 164.298 168.79 169.068 168.79C172.128 168.79 175.338 167.17 175.338 164.11ZM178.707 148.3V147.4C180.657 147.4 183.777 143.59 184.587 141.04H184.887C184.887 141.04 184.857 143.68 184.857 147.4H189.627V148.3H184.857C184.857 149.35 184.857 150.46 184.857 151.63V164.47C184.857 166.12 185.337 168.46 187.047 168.46C188.487 168.46 189.627 167.62 190.317 166.51L190.617 166.72C190.047 167.74 188.307 169.45 186.357 169.45C182.787 169.45 181.857 166.81 181.857 163.87V148.3H178.707ZM208.121 164.11C208.121 157.93 191.831 161.02 191.831 153.1C191.831 148.9 196.961 146.95 201.221 146.95C204.551 146.95 207.071 147.73 209.381 149.53C209.591 150.73 208.691 151.69 207.461 151.69C204.821 151.69 204.191 147.73 199.481 147.73C197.291 147.73 194.231 149.08 194.231 151.81C194.231 158.38 210.281 154.3 210.281 163.45C210.281 167.65 205.571 169.45 201.371 169.45C197.471 169.45 195.461 168.64 192.491 166.63V160.45H192.791C193.661 164.98 197.081 168.79 201.851 168.79C204.911 168.79 208.121 167.17 208.121 164.11Z" fill="white"/>
</svg>
