<svg width="232" height="22" viewBox="0 0 232 22" fill="none" xmlns="http://www.w3.org/2000/svg">
<path d="M7.97098 16.8604H0.561248V0.256604H7.77273C10.7713 0.256604 12.7786 1.66916 12.7786 4.39515C12.7786 6.25378 11.6882 7.61677 9.60657 8.01328V8.16197C12.0352 8.55848 13.2743 10.1693 13.2743 12.3005C13.2743 15.1752 11.1926 16.8604 7.97098 16.8604ZM2.32075 1.86742V7.4433H7.52491C9.95352 7.4433 10.9943 6.65029 10.9943 4.66775C10.9943 2.68521 10.1022 1.86742 7.6736 1.86742H2.32075ZM2.32075 8.95499V15.2495H7.92142C10.3996 15.2495 11.49 14.3822 11.49 12.1023C11.49 9.84713 10.3748 8.95499 7.92142 8.95499H2.32075ZM17.4428 16.8604H15.6585V4.4695H17.2693V6.52638H17.3933C17.7898 5.38642 18.9793 4.37037 20.7884 4.37037C23.3161 4.37037 24.2826 6.17943 24.2826 8.28588V8.97977H22.4983V8.55848C22.4983 6.65029 21.9035 5.90683 20.144 5.90683C18.2358 5.90683 17.4428 6.77419 17.4428 8.75673V16.8604ZM29.12 17.1082C26.8897 17.1082 25.2045 15.9682 25.2045 13.9113C25.2045 11.7801 26.7906 10.8384 29.467 10.4667L33.779 9.87191V8.97977C33.779 6.82376 32.8621 5.9564 30.5574 5.9564C28.327 5.9564 27.2862 6.82376 27.2862 8.78151V9.15324H25.5763V8.95499C25.5763 6.40247 27.534 4.37037 30.7061 4.37037C33.9773 4.37037 35.4642 6.47681 35.4642 9.2028V16.8604H33.8533V14.6052L33.7294 14.5804C33.0108 15.993 31.4495 17.1082 29.12 17.1082ZM26.9393 13.7874C26.9393 15.0513 27.7323 15.6213 29.6157 15.6213C31.7221 15.6213 33.779 14.5309 33.779 11.6314V11.2101L29.6157 11.8049C27.6579 12.0775 26.9393 12.474 26.9393 13.7874ZM39.9738 16.8604H38.1896V4.61819H39.8004V7.14592H39.8747C40.3456 5.85727 41.7333 4.37037 44.2611 4.37037C47.4084 4.37037 48.8457 6.40247 48.8457 9.35149V16.8604H47.0862V9.748C47.0862 7.09636 46.2188 5.93162 43.7159 5.93162C41.2873 5.93162 39.9738 7.07158 39.9738 9.79756V16.8604ZM56.3821 17.1082C52.9374 17.1082 51.0044 14.6052 51.0044 10.7393C51.0044 6.87332 52.8383 4.37037 56.1838 4.37037C58.5381 4.37037 60.0497 5.60945 60.5702 6.94767V0.256604H62.3544V16.8604H60.7684V14.5061H60.6693C60.1241 16.0426 58.6868 17.1082 56.3821 17.1082ZM52.7887 10.7393C52.7887 14.4813 54.2508 15.5717 56.6794 15.5717C59.108 15.5717 60.5702 14.3078 60.5702 11.8049V9.69844C60.5702 7.1707 59.108 5.90683 56.6794 5.90683C54.2756 5.90683 52.7887 6.99723 52.7887 10.7393ZM70.0089 17.1082C66.6634 17.1082 64.8295 15.6956 64.8295 12.8457V12.7962H66.5642V13.0935C66.5642 14.7787 67.2581 15.5965 70.0337 15.5965C72.3136 15.5965 72.9084 14.9522 72.9084 13.7131C72.9084 12.474 72.1401 12.0279 70.2815 11.681L68.2494 11.334C66.2669 10.9623 64.8295 10.0454 64.8295 7.88937C64.8295 5.78293 66.6138 4.37037 69.5133 4.37037C72.3136 4.37037 74.3705 5.80771 74.3705 8.55848V8.68239H72.6605V8.48413C72.6605 7.02201 72.0906 5.90683 69.4637 5.90683C67.2333 5.90683 66.5395 6.6255 66.5395 7.86459C66.5395 9.10368 67.159 9.52496 68.9928 9.87191L71.0745 10.2684C73.2057 10.6649 74.6183 11.6066 74.6183 13.6387C74.6183 15.8195 72.834 17.1082 70.0089 17.1082ZM87.4043 16.8604H81.8036V0.256604H87.4043C92.4102 0.256604 95.5575 3.47823 95.5575 8.55848C95.5575 13.6387 92.4102 16.8604 87.4043 16.8604ZM87.4043 1.86742H83.5631V15.2495H87.4043C91.8154 15.2495 93.6989 13.0687 93.6989 8.55848C93.6989 4.04821 91.8154 1.86742 87.4043 1.86742ZM103.074 17.1082C99.3069 17.1082 97.3491 14.4565 97.3491 10.7393C97.3491 7.02201 99.5547 4.37037 103.049 4.37037C105.998 4.37037 108.427 6.15465 108.427 9.77278C108.427 10.3428 108.377 10.888 108.303 11.2349H99.0343C99.1086 13.9361 100.174 15.5221 103.098 15.5221C105.577 15.5221 106.568 14.407 106.568 12.9201V12.7714H108.327V12.9448C108.327 15.2991 106.196 17.1082 103.074 17.1082ZM102.999 5.90683C100.273 5.90683 99.183 7.46808 99.0343 9.94625H106.741C106.841 7.04679 105.403 5.90683 102.999 5.90683ZM115.797 17.1082C112.451 17.1082 110.618 15.6956 110.618 12.8457V12.7962H112.352V13.0935C112.352 14.7787 113.046 15.5965 115.822 15.5965C118.102 15.5965 118.696 14.9522 118.696 13.7131C118.696 12.474 117.928 12.0279 116.07 11.681L114.037 11.334C112.055 10.9623 110.618 10.0454 110.618 7.88937C110.618 5.78293 112.402 4.37037 115.301 4.37037C118.102 4.37037 120.159 5.80771 120.159 8.55848V8.68239H118.449V8.48413C118.449 7.02201 117.879 5.90683 115.252 5.90683C113.021 5.90683 112.328 6.6255 112.328 7.86459C112.328 9.10368 112.947 9.52496 114.781 9.87191L116.863 10.2684C118.994 10.6649 120.406 11.6066 120.406 13.6387C120.406 15.8195 118.622 17.1082 115.797 17.1082ZM124.457 2.98259H122.697V0.256604H124.457V2.98259ZM124.457 16.8604H122.697V4.4695H124.457V16.8604ZM131.839 15.77C128.468 15.77 126.535 13.5396 126.535 10.0702C126.535 6.60072 128.444 4.37037 131.863 4.37037C134.019 4.37037 135.655 5.43598 136.2 6.99723H136.299V4.61819H137.885V16.3399C137.885 19.6607 135.754 21.3211 132.533 21.3211C129.41 21.3211 127.205 19.6855 127.205 16.8604H128.964C128.964 18.8677 129.98 19.735 132.557 19.735C135.184 19.735 136.101 18.7933 136.101 16.3399V13.2174H136.076C135.506 14.63 133.97 15.77 131.839 15.77ZM128.32 10.0702C128.32 13.3166 129.881 14.2335 132.26 14.2335C134.466 14.2335 136.101 12.9696 136.101 10.4419V9.69844C136.101 7.1707 134.441 5.90683 132.161 5.90683C129.831 5.90683 128.32 6.84854 128.32 10.0702ZM142.44 16.8604H140.656V4.61819H142.267V7.14592H142.341C142.812 5.85727 144.2 4.37037 146.728 4.37037C149.875 4.37037 151.312 6.40247 151.312 9.35149V16.8604H149.553V9.748C149.553 7.09636 148.685 5.93162 146.182 5.93162C143.754 5.93162 142.44 7.07158 142.44 9.79756V16.8604ZM164.908 16.8604H162.331L158.069 0.256604H160.051L162.851 11.1358L163.644 15.0761H163.793L164.859 11.1358L168.303 0.256604H170.732L174.152 11.1358L175.242 15.0761H175.366L176.184 11.1358L178.984 0.256604H180.942L176.655 16.8604H174.102L171.129 7.56721L169.592 2.41261H169.419L167.857 7.56721L164.908 16.8604ZM184.62 2.98259H182.861V0.256604H184.62V2.98259ZM184.62 16.8604H182.861V4.4695H184.62V16.8604ZM191.755 16.8851C189.5 16.8851 188.186 15.993 188.186 13.3909V6.15465H186.129V4.61819H188.211L188.632 1.49569H189.971V4.61819H193.837V6.15465H189.971V13.49C189.971 14.9274 190.64 15.2495 192.226 15.2495H193.837V16.6869C193.415 16.7612 192.647 16.8851 191.755 16.8851ZM197.473 16.8604H195.689V0.256604H197.473V6.8981H197.572C198.043 5.73336 199.307 4.37037 201.785 4.37037C204.982 4.37037 206.345 6.5016 206.345 9.30193V16.8604H204.586V9.748C204.586 7.09636 203.693 5.93162 201.215 5.93162C198.762 5.93162 197.473 7.07158 197.473 9.82235V16.8604ZM214.609 16.8604H212.75L219.466 0.256604H221.994L228.71 16.8604H226.802L224.794 12.0031H216.592L214.609 16.8604ZM219.664 4.4695L217.236 10.3923H224.125L221.697 4.4695L220.755 1.94176H220.631L219.664 4.4695ZM231.818 16.8604H230.058V0.256604H231.818V16.8604Z" fill="white"/>
</svg>
