<svg width="674" height="225" viewBox="0 0 674 225" fill="none" xmlns="http://www.w3.org/2000/svg">
<path d="M0.75 3.5V3H14.95V3.5C9.75 3.5 10.35 9 10.35 19.65V39.9C10.35 50.55 16.05 52.4 22.25 52.4C28.45 52.4 34.15 50.55 34.15 39.9V19.65C34.15 9 34.75 3.5 29.55 3.5V3H43.75V3.5C38.55 3.5 39.15 9 39.15 19.65V39.35C39.15 51.65 29.55 53.75 22.25 53.75C14.95 53.75 5.35 51.65 5.35 39.35V19.65C5.35 9 5.95 3.5 0.75 3.5ZM73.6324 44.85C73.6324 34.55 46.4824 39.7 46.4824 26.5C46.4824 19.5 55.0324 16.25 62.1324 16.25C67.6824 16.25 71.8824 17.55 75.7324 20.55C76.0824 22.55 74.5824 24.15 72.5324 24.15C68.1324 24.15 67.0824 17.55 59.2324 17.55C55.5824 17.55 50.4824 19.8 50.4824 24.35C50.4824 35.3 77.2324 28.5 77.2324 43.75C77.2324 50.75 69.3824 53.75 62.3824 53.75C55.8824 53.75 52.5324 52.4 47.5824 49.05V38.75H48.0824C49.5324 46.3 55.2324 52.65 63.1824 52.65C68.2824 52.65 73.6324 49.95 73.6324 44.85ZM100.098 53.75C89.798 53.75 81.248 45.35 81.248 35C81.248 24.65 89.798 16.25 100.098 16.25C110.398 16.25 114.598 23.15 114.598 27.4C114.598 31.65 111.098 32.55 107.998 32.55H85.498C85.498 42.2 93.548 49.6 102.698 49.6C109.548 49.6 114.798 45.5 116.798 40.5L117.298 40.7C115.248 48.25 108.348 53.75 100.098 53.75ZM85.498 31.5C90.448 31.4 93.498 31.25 98.998 31.25C104.148 31.25 109.498 31.05 109.498 26.75C109.498 21.35 104.848 18 97.948 18C90.498 18 85.898 23.35 85.498 31.5ZM135.547 18.5V17C138.797 17 143.997 10.65 145.347 6.4H145.847C145.847 6.4 145.797 10.8 145.797 17H153.747V18.5H145.797C145.797 20.25 145.797 22.1 145.797 24.05V45.45C145.797 48.2 146.597 52.1 149.447 52.1C151.847 52.1 153.747 50.7 154.897 48.85L155.397 49.2C154.447 50.9 151.547 53.75 148.297 53.75C142.347 53.75 140.797 49.35 140.797 44.45V18.5H135.547ZM160.52 36.35C160.52 25.7 161.12 20.2 155.92 20.2V19.7C159.17 19.7 162.82 18.2 165.57 16.25C165.57 16.25 165.52 22.9 165.52 31.35C165.72 24.3 172.27 16.25 179.82 16.25C181.02 16.25 182.82 16.3 183.82 17C184.87 20 182.97 21.85 180.12 21.85C178.07 21.85 177.32 20.85 174.42 20.85C168.72 20.85 165.52 29.35 165.52 37.95C165.52 47 164.92 52.5 170.12 52.5V53H155.92V52.5C161.12 52.5 160.52 47 160.52 36.35ZM193.429 71C188.629 71 184.479 67.5 184.479 62.7C184.479 56.9 190.279 53 196.079 53C198.629 53 202.579 53.75 205.079 53.75C205.529 53.75 205.929 53.75 206.329 53.7C204.929 52.95 203.679 50.6 202.379 46.95C201.379 44.1 200.079 39.9 199.029 36.8C195.879 27.4 193.529 17.5 188.329 17.5V17H204.329V17.5C201.829 17.5 200.279 18.95 200.279 21.4C200.279 23.75 202.029 29.45 203.779 35.15C206.129 42.85 208.429 50.65 210.129 50.65C210.929 50.65 211.879 49.95 211.879 46.4C211.879 38.4 210.479 34.2 210.479 26.35C210.479 21.85 212.529 16.25 217.279 16.25C222.629 16.25 225.179 23.25 225.179 29.2C225.179 49.7 208.529 71 193.429 71ZM188.879 62C188.879 66 192.879 68.4 196.829 68.4C209.879 68.4 220.979 49 220.979 31.95C220.979 26.35 219.929 20.95 216.079 20.95C212.829 20.95 212.329 25.4 212.329 28.75C212.329 36.85 212.979 42.3 212.979 47.2C212.979 48.2 212.779 49.85 211.979 51.25C211.679 51.9 210.129 54.75 205.229 54.75C201.629 54.75 200.329 54.55 196.979 54.55C192.129 54.55 188.879 57.7 188.879 62ZM229.697 35V32.75H245.697V35H229.697ZM250.193 35C250.193 24.65 258.743 16.25 269.043 16.25C279.343 16.25 287.893 24.65 287.893 35C287.893 45.35 279.343 53.75 269.043 53.75C258.743 53.75 250.193 45.35 250.193 35ZM264.893 19.25C258.093 19.25 252.493 24.2 253.193 32.55C253.593 41.5 263.243 50.75 273.243 50.75C280.043 50.75 285.593 45.8 284.893 37.45C284.543 28.5 274.893 19.25 264.893 19.25ZM294.993 36.35C294.993 25.7 295.593 20.2 290.393 20.2V19.7C293.643 19.7 297.293 18.2 300.043 16.25C300.043 16.25 299.993 22.1 299.993 29.8C301.993 23.8 306.493 16.25 312.493 16.25C318.193 16.25 319.543 25.15 321.293 31.25C323.843 40.1 326.043 52.5 331.643 52.5V53H325.143C321.193 53 320.093 47.4 318.443 40.35C317.743 37.35 316.793 33.4 316.043 30.4C314.493 24.2 312.843 19.75 309.943 19.75C304.893 19.75 300.043 29.6 299.993 35.45V36.35C299.993 47 299.393 52.5 304.593 52.5V53H290.393V52.5C295.593 52.5 294.993 47 294.993 36.35ZM351.609 36.9C351.609 24.4 361.459 16.95 371.159 16.3C370.759 14.75 370.459 13.75 370.459 13.75C368.659 8.25 368.459 5.45 365.309 5.45C364.109 5.45 363.209 5.7 361.859 6.05V5.55C365.309 4.35 369.059 2.24999 370.709 2.24999C372.859 2.24999 373.109 4.4 373.959 7.25C373.959 7.25 377.809 22.4 380.309 31.25C382.809 40.1 385.059 52.5 390.659 52.5V53H384.159C381.509 53 380.159 50.45 379.009 46.6C376.409 50.6 372.109 53.75 366.559 53.75C355.809 53.75 351.609 45.95 351.609 36.9ZM371.459 17.3C361.859 17.85 356.209 26.65 356.209 35.4C356.209 43.4 359.859 52.05 368.159 52.05C372.909 52.05 376.409 48.9 378.659 45.35C378.259 43.8 377.859 42.15 377.459 40.35C375.659 32.6 373.609 24.95 371.459 17.3ZM391.93 45.4C391.93 34.9 404.83 32.15 413.93 25.75C412.38 20.15 411.38 17.25 408.18 17.25C403.63 17.25 400.13 24.55 395.83 24.55C394.08 24.55 392.78 23.3 393.08 21.6C394.08 19.65 401.33 16.25 407.98 16.25C417.83 16.25 418.93 26.9 421.83 36C426.13 49.4 426.78 52.5 431.78 52.5V53H424.18C421.73 53 421.28 51.9 419.98 47.05C419.63 45.75 417.68 39 416.18 33.75C414.53 44.65 409.33 53.75 400.63 53.75C395.03 53.75 391.93 50 391.93 45.4ZM414.23 26.7C406.78 32.35 396.93 36.1 396.93 44.45C396.93 47.75 399.28 50.15 402.58 50.15C412.78 50.15 415.53 34.6 415.03 29.75C414.73 28.75 414.48 27.75 414.23 26.7ZM428.027 18.5V17C431.277 17 436.477 10.65 437.827 6.4H438.327C438.327 6.4 438.277 10.8 438.277 17H446.227V18.5H438.277C438.277 20.25 438.277 22.1 438.277 24.05V45.45C438.277 48.2 439.077 52.1 441.927 52.1C444.327 52.1 446.227 50.7 447.377 48.85L447.877 49.2C446.927 50.9 444.027 53.75 440.777 53.75C434.827 53.75 433.277 49.35 433.277 44.45V18.5H428.027ZM449.4 45.4C449.4 34.9 462.3 32.15 471.4 25.75C469.85 20.15 468.85 17.25 465.65 17.25C461.1 17.25 457.6 24.55 453.3 24.55C451.55 24.55 450.25 23.3 450.55 21.6C451.55 19.65 458.8 16.25 465.45 16.25C475.3 16.25 476.4 26.9 479.3 36C483.6 49.4 484.25 52.5 489.25 52.5V53H481.65C479.2 53 478.75 51.9 477.45 47.05C477.1 45.75 475.15 39 473.65 33.75C472 44.65 466.8 53.75 458.1 53.75C452.5 53.75 449.4 50 449.4 45.4ZM471.7 26.7C464.25 32.35 454.4 36.1 454.4 44.45C454.4 47.75 456.75 50.15 460.05 50.15C470.25 50.15 473 34.6 472.5 29.75C472.2 28.75 471.95 27.75 471.7 26.7ZM507.471 18.5V17C510.721 17 515.921 10.65 517.271 6.4H517.771C517.771 6.4 517.721 10.8 517.721 17H525.671V18.5H517.721C517.721 20.25 517.721 22.1 517.721 24.05V45.45C517.721 48.2 518.521 52.1 521.371 52.1C523.771 52.1 525.671 50.7 526.821 48.85L527.321 49.2C526.371 50.9 523.471 53.75 520.221 53.75C514.271 53.75 512.721 49.35 512.721 44.45V18.5H507.471ZM525.34 35C525.34 24.65 533.89 16.25 544.19 16.25C554.49 16.25 563.04 24.65 563.04 35C563.04 45.35 554.49 53.75 544.19 53.75C533.89 53.75 525.34 45.35 525.34 35ZM540.04 19.25C533.24 19.25 527.64 24.2 528.34 32.55C528.74 41.5 538.39 50.75 548.39 50.75C555.19 50.75 560.74 45.8 560.04 37.45C559.69 28.5 550.04 19.25 540.04 19.25ZM2 110C2 99.65 10.55 91.25 20.85 91.25C29.75 91.25 35.6 96.5 37.3 100.5C37.3 100.5 36.75 102.65 34.4 102.65C29.95 102.65 28.45 93.15 18.7 93C10.95 93 6.25 98.8 6.25 107.55C6.25 117.2 14.3 124.6 23.45 124.6C30.3 124.6 35.55 120.5 37.55 115.5L38.05 115.7C36 123.25 29.1 128.75 20.85 128.75C10.55 128.75 2 120.35 2 110ZM43.9184 111.35C43.9184 100.7 44.5184 95.2 39.3184 95.2V94.7C42.5684 94.7 46.2184 93.2 48.9684 91.25C48.9684 91.25 48.9184 97.9 48.9184 106.35C49.1184 99.3 55.6684 91.25 63.2184 91.25C64.4184 91.25 66.2184 91.3 67.2184 92C68.2684 95 66.3684 96.85 63.5184 96.85C61.4684 96.85 60.7184 95.85 57.8184 95.85C52.1184 95.85 48.9184 104.35 48.9184 112.95C48.9184 122 48.3184 127.5 53.5184 127.5V128H39.3184V127.5C44.5184 127.5 43.9184 122 43.9184 111.35ZM84.8637 128.75C74.5637 128.75 66.0137 120.35 66.0137 110C66.0137 99.65 74.5637 91.25 84.8637 91.25C95.1637 91.25 99.3637 98.15 99.3637 102.4C99.3637 106.65 95.8637 107.55 92.7637 107.55H70.2637C70.2637 117.2 78.3137 124.6 87.4637 124.6C94.3137 124.6 99.5637 120.5 101.564 115.5L102.064 115.7C100.014 123.25 93.1137 128.75 84.8637 128.75ZM70.2637 106.5C75.2137 106.4 78.2637 106.25 83.7637 106.25C88.9137 106.25 94.2637 106.05 94.2637 101.75C94.2637 96.35 89.6137 93 82.7137 93C75.2637 93 70.6637 98.35 70.2637 106.5ZM104.332 120.4C104.332 109.9 117.232 107.15 126.332 100.75C124.782 95.15 123.782 92.25 120.582 92.25C116.032 92.25 112.532 99.55 108.232 99.55C106.482 99.55 105.182 98.3 105.482 96.6C106.482 94.65 113.732 91.25 120.382 91.25C130.232 91.25 131.332 101.9 134.232 111C138.532 124.4 139.182 127.5 144.182 127.5V128H136.582C134.132 128 133.682 126.9 132.382 122.05C132.032 120.75 130.082 114 128.582 108.75C126.932 119.65 121.732 128.75 113.032 128.75C107.432 128.75 104.332 125 104.332 120.4ZM126.632 101.7C119.182 107.35 109.332 111.1 109.332 119.45C109.332 122.75 111.682 125.15 114.982 125.15C125.182 125.15 127.932 109.6 127.432 104.75C127.132 103.75 126.882 102.75 126.632 101.7ZM140.43 93.5V92C143.68 92 148.88 85.65 150.23 81.4H150.73C150.73 81.4 150.68 85.8 150.68 92H158.63V93.5H150.68C150.68 95.25 150.68 97.1 150.68 99.05V120.45C150.68 123.2 151.48 127.1 154.33 127.1C156.73 127.1 158.63 125.7 159.78 123.85L160.28 124.2C159.33 125.9 156.43 128.75 153.18 128.75C147.23 128.75 145.68 124.35 145.68 119.45V93.5H140.43ZM177.149 128.75C166.849 128.75 158.299 120.35 158.299 110C158.299 99.65 166.849 91.25 177.149 91.25C187.449 91.25 191.649 98.15 191.649 102.4C191.649 106.65 188.149 107.55 185.049 107.55H162.549C162.549 117.2 170.599 124.6 179.749 124.6C186.599 124.6 191.849 120.5 193.849 115.5L194.349 115.7C192.299 123.25 185.399 128.75 177.149 128.75ZM162.549 106.5C167.499 106.4 170.549 106.25 176.049 106.25C181.199 106.25 186.549 106.05 186.549 101.75C186.549 96.35 181.899 93 174.999 93C167.549 93 162.949 98.35 162.549 106.5ZM217.698 111.35C217.698 100.7 218.298 95.2 213.098 95.2V94.7C216.348 94.7 219.998 93.2 222.748 91.25C222.748 91.25 222.698 97.1 222.698 104.8C224.698 98.8 229.198 91.25 235.198 91.25C240.898 91.25 242.248 100.15 243.998 106.25C246.548 115.1 248.748 127.5 254.348 127.5V128H247.848C243.898 128 242.798 122.4 241.148 115.35C240.448 112.35 239.498 108.4 238.748 105.4C237.198 99.2 235.548 94.75 232.648 94.75C227.598 94.75 222.748 104.6 222.698 110.45V111.35C222.698 122 222.098 127.5 227.298 127.5V128H213.098V127.5C218.298 127.5 217.698 122 217.698 111.35ZM271.68 128.75C261.38 128.75 252.83 120.35 252.83 110C252.83 99.65 261.38 91.25 271.68 91.25C281.98 91.25 286.18 98.15 286.18 102.4C286.18 106.65 282.68 107.55 279.58 107.55H257.08C257.08 117.2 265.13 124.6 274.28 124.6C281.13 124.6 286.38 120.5 288.38 115.5L288.88 115.7C286.83 123.25 279.93 128.75 271.68 128.75ZM257.08 106.5C262.03 106.4 265.08 106.25 270.58 106.25C275.73 106.25 281.08 106.05 281.08 101.75C281.08 96.35 276.43 93 269.53 93C262.08 93 257.48 98.35 257.08 106.5ZM285.645 92H301.645V92.5C299.145 92.5 297.595 93.95 297.595 96.4C297.595 98.75 299.295 104.4 300.895 110.15C302.095 114.45 303.245 118.9 303.895 121.2C304.945 125.05 305.245 125.9 305.845 125.9C307.345 125.9 310.645 105.5 311.345 101.05C309.545 96.2 307.395 92.5 304.295 92.5V92H320.295V92.5C317.795 92.5 316.245 93.95 316.245 96.4C316.245 98.75 317.945 104.4 319.545 110.15C320.745 114.45 321.895 118.9 322.545 121.2C323.595 125.05 323.895 125.9 324.495 125.9C326.195 125.9 329.595 103.6 329.595 103.6C330.245 100.15 330.645 92.55 324.745 92.55V92H341.095V92.5C335.895 92.5 333.645 98.1 331.795 105.2C331.795 105.2 329.745 112.45 328.895 115.5C327.145 121.8 326.195 128.75 322.495 128.75C319.995 128.75 319.295 126.5 317.845 121.95C316.895 119 315.745 114.95 314.795 111.8C314.195 109.85 313.595 107.8 312.995 105.8C312.445 107.65 310.945 113 310.245 115.5C308.495 121.8 307.545 128.75 303.845 128.75C301.345 128.75 300.645 126.5 299.195 121.95C298.245 119 297.145 114.95 296.145 111.8C293.395 103 290.845 92.5 285.645 92.5V92ZM359.344 128V127.5C364.544 127.5 363.944 122 363.944 111.35V93.7C363.944 83.65 368.544 77.25 376.444 77.25C378.294 77.25 380.144 77.35 382.294 78.6C382.594 80.9 380.744 81.9 379.394 81.9C376.544 81.9 375.894 79.05 373.094 79.05C369.144 79.05 368.944 84.85 368.944 91.3V92H376.594V93.5H368.944V111.35C368.944 122 368.344 127.5 373.544 127.5V128H359.344ZM379.113 95.2V94.7C382.363 94.7 386.013 93.2 388.763 91.25C388.763 91.25 388.713 100.7 388.713 111.35C388.713 122 388.113 127.5 393.313 127.5V128H379.113V127.5C384.313 127.5 383.713 122 383.713 111.35C383.713 100.7 384.313 95.2 379.113 95.2ZM385.863 89.9C383.363 89.9 381.313 87.85 381.313 85.3C381.313 82.8 383.363 80.75 385.863 80.75C388.413 80.75 390.463 82.8 390.463 85.3C390.463 87.85 388.413 89.9 385.863 89.9ZM393.799 93.5V92C397.049 92 402.249 85.65 403.599 81.4H404.099C404.099 81.4 404.049 85.8 404.049 92H411.999V93.5H404.049C404.049 95.25 404.049 97.1 404.049 99.05V120.45C404.049 123.2 404.849 127.1 407.699 127.1C410.099 127.1 411.999 125.7 413.149 123.85L413.649 124.2C412.699 125.9 409.799 128.75 406.549 128.75C400.599 128.75 399.049 124.35 399.049 119.45V93.5H393.799ZM442.822 119.85C442.822 109.55 415.672 114.7 415.672 101.5C415.672 94.5 424.222 91.25 431.322 91.25C436.872 91.25 441.072 92.55 444.922 95.55C445.272 97.55 443.772 99.15 441.722 99.15C437.322 99.15 436.272 92.55 428.422 92.55C424.772 92.55 419.672 94.8 419.672 99.35C419.672 110.3 446.422 103.5 446.422 118.75C446.422 125.75 438.572 128.75 431.572 128.75C425.072 128.75 421.722 127.4 416.772 124.05V113.75H417.272C418.722 121.3 424.422 127.65 432.372 127.65C437.472 127.65 442.822 124.95 442.822 119.85ZM465.918 92H481.918V92.5C479.418 92.5 477.868 93.95 477.868 96.4C477.868 98.75 479.568 104.4 481.168 110.15C482.368 114.45 483.518 118.9 484.168 121.2C485.218 125.05 485.518 125.9 486.118 125.9C487.618 125.9 490.918 105.5 491.618 101.05C489.818 96.2 487.668 92.5 484.568 92.5V92H500.568V92.5C498.068 92.5 496.518 93.95 496.518 96.4C496.518 98.75 498.218 104.4 499.818 110.15C501.018 114.45 502.168 118.9 502.818 121.2C503.868 125.05 504.168 125.9 504.768 125.9C506.468 125.9 509.868 103.6 509.868 103.6C510.518 100.15 510.918 92.55 505.018 92.55V92H521.368V92.5C516.168 92.5 513.918 98.1 512.068 105.2C512.068 105.2 510.018 112.45 509.168 115.5C507.418 121.8 506.468 128.75 502.768 128.75C500.268 128.75 499.568 126.5 498.118 121.95C497.168 119 496.018 114.95 495.068 111.8C494.468 109.85 493.868 107.8 493.268 105.8C492.718 107.65 491.218 113 490.518 115.5C488.768 121.8 487.818 128.75 484.118 128.75C481.618 128.75 480.918 126.5 479.468 121.95C478.518 119 477.418 114.95 476.418 111.8C473.668 103 471.118 92.5 465.918 92.5V92ZM521.887 95.2V94.7C525.137 94.7 528.787 93.2 531.537 91.25C531.537 91.25 531.487 100.7 531.487 111.35C531.487 122 530.887 127.5 536.087 127.5V128H521.887V127.5C527.087 127.5 526.487 122 526.487 111.35C526.487 100.7 527.087 95.2 521.887 95.2ZM528.637 89.9C526.137 89.9 524.087 87.85 524.087 85.3C524.087 82.8 526.137 80.75 528.637 80.75C531.187 80.75 533.237 82.8 533.237 85.3C533.237 87.85 531.187 89.9 528.637 89.9ZM536.572 93.5V92C539.822 92 545.022 85.65 546.372 81.4H546.872C546.872 81.4 546.822 85.8 546.822 92H554.772V93.5H546.822C546.822 95.25 546.822 97.1 546.822 99.05V120.45C546.822 123.2 547.622 127.1 550.472 127.1C552.872 127.1 554.772 125.7 555.922 123.85L556.422 124.2C555.472 125.9 552.572 128.75 549.322 128.75C543.372 128.75 541.822 124.35 541.822 119.45V93.5H536.572ZM556.945 127.5C562.145 127.5 561.545 122 561.545 111.35V95.05C561.595 85.9 561.745 81.2 556.945 81.2V80.7C560.195 80.7 563.845 79.2 566.595 77.25C566.595 77.25 566.545 85.3 566.545 94.9V104.8C568.545 98.8 573.045 91.25 579.045 91.25C584.745 91.25 586.095 100.15 587.845 106.25C590.395 115.1 592.595 127.5 598.195 127.5V128H591.695C587.745 128 586.645 122.4 584.995 115.35C584.295 112.35 583.345 108.4 582.595 105.4C581.045 99.2 579.395 94.75 576.495 94.75C571.445 94.75 566.545 104.65 566.545 110.5V111.35C566.545 122 565.945 127.5 571.145 127.5V128H556.945V127.5ZM2 185C2 174.65 10.55 166.25 20.85 166.25C31.15 166.25 39.7 174.65 39.7 185C39.7 195.35 31.15 203.75 20.85 203.75C10.55 203.75 2 195.35 2 185ZM16.7 169.25C9.9 169.25 4.3 174.2 5 182.55C5.4 191.5 15.05 200.75 25.05 200.75C31.85 200.75 37.4 195.8 36.7 187.45C36.35 178.5 26.7 169.25 16.7 169.25ZM42.1992 169.7C45.4492 169.7 49.0992 168.2 51.8492 166.25C51.8492 166.25 51.7992 175.7 51.7992 185.35V193.9C51.7992 198.9 54.0492 201 57.1492 201C62.6492 201 70.2992 194.2 70.5992 185.05C70.5992 184.05 70.5992 183.1 70.5992 182.1C70.5992 175.95 70.9492 170.2 65.9992 170.2V169.7C69.2492 169.7 72.8992 168.2 75.6492 166.25C75.6492 166.25 75.5992 174 75.5992 183.65C75.5992 194.3 74.9992 199.8 80.1992 199.8V200.3C76.9492 200.3 73.2992 201.8 70.5492 203.75C70.5492 203.75 70.5492 198.4 70.5992 190.55C68.4492 196.5 63.1492 203.75 56.1492 203.75C45.9992 203.75 46.7492 193.75 46.7492 193.75C46.7492 193.75 46.7992 190.55 46.7992 186.35C46.7992 175.7 47.3992 170.2 42.1992 170.2V169.7ZM85.8129 186.35C85.8129 175.7 86.4129 170.2 81.2129 170.2V169.7C84.4629 169.7 88.1129 168.2 90.8629 166.25C90.8629 166.25 90.8129 172.9 90.8129 181.35C91.0129 174.3 97.5629 166.25 105.113 166.25C106.313 166.25 108.113 166.3 109.113 167C110.163 170 108.263 171.85 105.413 171.85C103.363 171.85 102.613 170.85 99.7129 170.85C94.0129 170.85 90.8129 179.35 90.8129 187.95C90.8129 197 90.2129 202.5 95.4129 202.5V203H81.2129V202.5C86.4129 202.5 85.8129 197 85.8129 186.35ZM128.893 195.4C128.893 184.9 141.793 182.15 150.893 175.75C149.343 170.15 148.343 167.25 145.143 167.25C140.593 167.25 137.093 174.55 132.793 174.55C131.043 174.55 129.743 173.3 130.043 171.6C131.043 169.65 138.293 166.25 144.943 166.25C154.793 166.25 155.893 176.9 158.793 186C163.093 199.4 163.743 202.5 168.743 202.5V203H161.143C158.693 203 158.243 201.9 156.943 197.05C156.593 195.75 154.643 189 153.143 183.75C151.493 194.65 146.293 203.75 137.593 203.75C131.993 203.75 128.893 200 128.893 195.4ZM151.193 176.7C143.743 182.35 133.893 186.1 133.893 194.45C133.893 197.75 136.243 200.15 139.543 200.15C149.743 200.15 152.493 184.6 151.993 179.75C151.693 178.75 151.443 177.75 151.193 176.7ZM169.982 170.2V169.7C173.232 169.7 176.882 168.2 179.632 166.25C179.632 166.25 179.582 175.7 179.582 186.35C179.582 197 178.982 202.5 184.182 202.5V203H169.982V202.5C175.182 202.5 174.582 197 174.582 186.35C174.582 175.7 175.182 170.2 169.982 170.2ZM176.732 164.9C174.232 164.9 172.182 162.85 172.182 160.3C172.182 157.8 174.232 155.75 176.732 155.75C179.282 155.75 181.332 157.8 181.332 160.3C181.332 162.85 179.282 164.9 176.732 164.9ZM204.148 186.9C204.148 174.4 213.998 166.95 223.698 166.3C223.298 164.75 222.998 163.75 222.998 163.75C221.198 158.25 220.998 155.45 217.848 155.45C216.648 155.45 215.748 155.7 214.398 156.05V155.55C217.848 154.35 221.598 152.25 223.248 152.25C225.398 152.25 225.648 154.4 226.498 157.25C226.498 157.25 230.348 172.4 232.848 181.25C235.348 190.1 237.598 202.5 243.198 202.5V203H236.698C234.048 203 232.698 200.45 231.548 196.6C228.948 200.6 224.648 203.75 219.098 203.75C208.348 203.75 204.148 195.95 204.148 186.9ZM223.998 167.3C214.398 167.85 208.748 176.65 208.748 185.4C208.748 193.4 212.398 202.05 220.698 202.05C225.448 202.05 228.948 198.9 231.198 195.35C230.798 193.8 230.398 192.15 229.998 190.35C228.198 182.6 226.148 174.95 223.998 167.3ZM259.815 203.75C249.515 203.75 240.965 195.35 240.965 185C240.965 174.65 249.515 166.25 259.815 166.25C270.115 166.25 274.315 173.15 274.315 177.4C274.315 181.65 270.815 182.55 267.715 182.55H245.215C245.215 192.2 253.265 199.6 262.415 199.6C269.265 199.6 274.515 195.5 276.515 190.5L277.015 190.7C274.965 198.25 268.065 203.75 259.815 203.75ZM245.215 181.5C250.165 181.4 253.215 181.25 258.715 181.25C263.865 181.25 269.215 181.05 269.215 176.75C269.215 171.35 264.565 168 257.665 168C250.215 168 245.615 173.35 245.215 181.5ZM306.933 194.85C306.933 184.55 279.783 189.7 279.783 176.5C279.783 169.5 288.333 166.25 295.433 166.25C300.983 166.25 305.183 167.55 309.033 170.55C309.383 172.55 307.883 174.15 305.833 174.15C301.433 174.15 300.383 167.55 292.533 167.55C288.883 167.55 283.783 169.8 283.783 174.35C283.783 185.3 310.533 178.5 310.533 193.75C310.533 200.75 302.683 203.75 295.683 203.75C289.183 203.75 285.833 202.4 280.883 199.05V188.75H281.383C282.833 196.3 288.533 202.65 296.483 202.65C301.583 202.65 306.933 199.95 306.933 194.85ZM313.049 170.2V169.7C316.299 169.7 319.949 168.2 322.699 166.25C322.699 166.25 322.649 175.7 322.649 186.35C322.649 197 322.049 202.5 327.249 202.5V203H313.049V202.5C318.249 202.5 317.649 197 317.649 186.35C317.649 175.7 318.249 170.2 313.049 170.2ZM319.799 164.9C317.299 164.9 315.249 162.85 315.249 160.3C315.249 157.8 317.299 155.75 319.799 155.75C322.349 155.75 324.399 157.8 324.399 160.3C324.399 162.85 322.349 164.9 319.799 164.9ZM329.734 182.65C329.734 168.45 343.584 167 356.584 161.9L357.234 163.95L345.984 167C354.784 166.85 362.784 173.6 362.784 182.65C362.784 189.3 358.334 195.05 352.134 197.3C343.484 201 335.784 203.65 335.784 206.8C335.784 207.95 336.634 208.6 337.834 208.6C344.434 208.6 350.234 200.85 359.084 200.85C362.634 200.85 364.834 203.25 364.834 206.15C364.834 215.6 345.334 213.05 342.734 219.4C342.184 220.75 342.584 222.85 341.084 222.85C340.334 222.85 339.684 222.25 339.684 221.35C339.684 212.4 362.284 214.5 362.284 207.9C362.284 206.7 361.434 205.35 359.334 205.35C352.684 205.35 345.534 213.1 337.434 213.1C334.184 213.1 331.734 211.3 331.734 208.55C331.734 203.45 340.534 201.55 346.484 198.35C337.734 198.5 329.734 191.7 329.734 182.65ZM333.934 179.65C333.934 188.15 341.484 196.15 349.984 196.15C355.634 196.15 358.534 191.45 358.534 185.4C358.534 176.9 350.984 168.9 342.484 168.9C336.884 168.9 333.934 173.55 333.934 179.65ZM369.944 186.35C369.944 175.7 370.544 170.2 365.344 170.2V169.7C368.594 169.7 372.244 168.2 374.994 166.25C374.994 166.25 374.944 172.1 374.944 179.8C376.944 173.8 381.444 166.25 387.444 166.25C393.144 166.25 394.494 175.15 396.244 181.25C398.794 190.1 400.994 202.5 406.594 202.5V203H400.094C396.144 203 395.044 197.4 393.394 190.35C392.694 187.35 391.744 183.4 390.994 180.4C389.444 174.2 387.794 169.75 384.894 169.75C379.844 169.75 374.994 179.6 374.944 185.45V186.35C374.944 197 374.344 202.5 379.544 202.5V203H365.344V202.5C370.544 202.5 369.944 197 369.944 186.35ZM424.561 168.5V167C427.811 167 433.011 160.65 434.361 156.4H434.861C434.861 156.4 434.811 160.8 434.811 167H442.761V168.5H434.811C434.811 170.25 434.811 172.1 434.811 174.05V195.45C434.811 198.2 435.611 202.1 438.461 202.1C440.861 202.1 442.761 200.7 443.911 198.85L444.411 199.2C443.461 200.9 440.561 203.75 437.311 203.75C431.361 203.75 429.811 199.35 429.811 194.45V168.5H424.561ZM442.43 185C442.43 174.65 450.98 166.25 461.28 166.25C471.58 166.25 480.13 174.65 480.13 185C480.13 195.35 471.58 203.75 461.28 203.75C450.98 203.75 442.43 195.35 442.43 185ZM457.13 169.25C450.33 169.25 444.73 174.2 445.43 182.55C445.83 191.5 455.48 200.75 465.48 200.75C472.28 200.75 477.83 195.8 477.13 187.45C476.78 178.5 467.13 169.25 457.13 169.25ZM484.129 185C484.129 174.65 492.679 166.25 502.979 166.25C513.279 166.25 521.829 174.65 521.829 185C521.829 195.35 513.279 203.75 502.979 203.75C492.679 203.75 484.129 195.35 484.129 185ZM498.829 169.25C492.029 169.25 486.429 174.2 487.129 182.55C487.529 191.5 497.179 200.75 507.179 200.75C513.979 200.75 519.529 195.8 518.829 187.45C518.479 178.5 508.829 169.25 498.829 169.25ZM538.528 203H524.328V202.5C529.528 202.5 528.928 197 528.928 186.35V170.05C528.978 160.9 529.128 156.2 524.328 156.2V155.7C527.578 155.7 531.228 154.2 533.978 152.25C533.978 152.25 533.928 160.3 533.928 169.9V186.35C533.928 197 533.328 202.5 538.528 202.5V203Z" fill="white"/>
</svg>
