<svg width="132" height="29" viewBox="0 0 132 29" fill="none" xmlns="http://www.w3.org/2000/svg">
<path d="M2.14 7.66C2.14 3.4 2.38 1.2 0.3 1.2V1H4.14V9.4C4.4 5.68 7.32 0.699998 12.84 0.699998C13.8 0.699998 14.96 0.8 15.54 1V2.88C14.58 2.64 13.38 2.48 12.26 2.48C6.98 2.48 4.52 6.18 4.18 10.6H14.54V11H4.16C4.14 11.22 4.14 11.44 4.14 11.66V20.6H5.86C10.24 20.6 14.2 19.84 16.26 16.82H16.36L14.9 21H0.3V20.8C2.38 20.8 2.14 18.6 2.14 14.34V7.66ZM18.4072 14.34C18.4072 10.08 18.6472 7.88 16.5672 7.88V7.68C17.8672 7.68 19.3272 7.08 20.4272 6.3C20.4272 6.3 20.4072 8.64 20.4072 11.72C21.2072 9.32 23.0072 6.3 25.4072 6.3C27.6872 6.3 28.2272 9.86 28.9272 12.3C29.9472 15.84 30.8272 20.8 33.0672 20.8V21H30.4672C28.8872 21 28.4472 18.76 27.7872 15.94C27.5072 14.74 27.1272 13.16 26.8272 11.96C26.2072 9.48 25.5472 7.7 24.3872 7.7C22.3672 7.7 20.4272 11.64 20.4072 13.98V14.34C20.4072 18.6 20.1672 20.8 22.2472 20.8V21H16.5672V20.8C18.6472 20.8 18.4072 18.6 18.4072 14.34ZM38.8355 21.3C34.8955 21.3 32.6555 18.3 32.6555 14.5C32.6555 10.2 36.2555 6.3 40.9155 6.3C42.5155 6.3 43.0355 6.6 44.8755 6.6H47.6155V6.8C45.6955 6.8 45.7755 9.84 45.7755 13.42V21.58C45.7755 25.84 45.5355 28.04 47.6155 28.04V28.24H41.9355V28.04C44.0155 28.04 43.7755 25.84 43.7755 21.58V18.4C42.7155 20.08 41.0355 21.3 38.8355 21.3ZM34.6755 14.18C34.6755 17.62 36.1955 20.62 39.3755 20.7C41.5155 20.76 42.9555 19.22 43.7755 17.3V13.36C43.7755 11.32 43.7755 9.52 43.7755 8.3C43.0355 7.5 41.8555 6.74 40.6955 6.74C36.9155 6.74 34.6755 10.44 34.6755 14.18ZM48.0125 7.68C49.3125 7.68 50.7725 7.08 51.8725 6.3C51.8725 6.3 51.8525 10.08 51.8525 13.94V17.36C51.8525 19.36 52.7525 20.2 53.9925 20.2C56.1925 20.2 59.2525 17.48 59.3725 13.82C59.3725 13.42 59.3725 13.04 59.3725 12.64C59.3725 10.18 59.5125 7.88 57.5325 7.88V7.68C58.8325 7.68 60.2925 7.08 61.3925 6.3C61.3925 6.3 61.3725 9.4 61.3725 13.26C61.3725 17.52 61.1325 19.72 63.2125 19.72V19.92C61.9125 19.92 60.4525 20.52 59.3525 21.3C59.3525 21.3 59.3525 19.16 59.3725 16.02C58.5125 18.4 56.3925 21.3 53.5925 21.3C49.5325 21.3 49.8325 17.3 49.8325 17.3C49.8325 17.3 49.8525 16.02 49.8525 14.34C49.8525 10.08 50.0925 7.88 48.0125 7.88V7.68ZM63.618 7.88V7.68C64.918 7.68 66.378 7.08 67.478 6.3C67.478 6.3 67.458 10.08 67.458 14.34C67.458 18.6 67.218 20.8 69.298 20.8V21H63.618V20.8C65.698 20.8 65.458 18.6 65.458 14.34C65.458 10.08 65.698 7.88 63.618 7.88ZM66.318 5.76C65.318 5.76 64.498 4.94 64.498 3.92C64.498 2.92 65.318 2.1 66.318 2.1C67.338 2.1 68.158 2.92 68.158 3.92C68.158 4.94 67.338 5.76 66.318 5.76ZM71.5322 14.34C71.5322 10.08 71.7722 7.88 69.6922 7.88V7.68C70.9922 7.68 72.4522 7.08 73.5522 6.3C73.5522 6.3 73.5322 8.96 73.5322 12.34C73.6122 9.52 76.2322 6.3 79.2522 6.3C79.7322 6.3 80.4522 6.32 80.8522 6.6C81.2722 7.8 80.5122 8.54 79.3722 8.54C78.5522 8.54 78.2522 8.14 77.0922 8.14C74.8122 8.14 73.5322 11.54 73.5322 14.98C73.5322 18.6 73.2922 20.8 75.3722 20.8V21H69.6922V20.8C71.7722 20.8 71.5322 18.6 71.5322 14.34ZM81.3719 7.88V7.68C82.6719 7.68 84.1319 7.08 85.2319 6.3C85.2319 6.3 85.2119 10.08 85.2119 14.34C85.2119 18.6 84.9719 20.8 87.0519 20.8V21H81.3719V20.8C83.4519 20.8 83.2119 18.6 83.2119 14.34C83.2119 10.08 83.4519 7.88 81.3719 7.88ZM84.0719 5.76C83.0719 5.76 82.2519 4.94 82.2519 3.92C82.2519 2.92 83.0719 2.1 84.0719 2.1C85.0919 2.1 85.9119 2.92 85.9119 3.92C85.9119 4.94 85.0919 5.76 84.0719 5.76ZM95.5861 21.3C91.4661 21.3 88.0461 17.94 88.0461 13.8C88.0461 9.66 91.4661 6.3 95.5861 6.3C99.7061 6.3 101.386 9.06 101.386 10.76C101.386 12.46 99.9861 12.82 98.7461 12.82H89.7461C89.7461 16.68 92.9661 19.64 96.6261 19.64C99.3661 19.64 101.466 18 102.266 16L102.466 16.08C101.646 19.1 98.8861 21.3 95.5861 21.3ZM89.7461 12.4C91.7261 12.36 92.9461 12.3 95.1461 12.3C97.2061 12.3 99.3461 12.22 99.3461 10.5C99.3461 8.34 97.4861 7 94.7261 7C91.7461 7 89.9061 9.14 89.7461 12.4ZM114.433 17.74C114.433 13.62 103.573 15.68 103.573 10.4C103.573 7.6 106.993 6.3 109.833 6.3C112.053 6.3 113.733 6.82 115.273 8.02C115.413 8.82 114.813 9.46 113.993 9.46C112.233 9.46 111.813 6.82 108.673 6.82C107.213 6.82 105.173 7.72 105.173 9.54C105.173 13.92 115.873 11.2 115.873 17.3C115.873 20.1 112.733 21.3 109.933 21.3C107.333 21.3 105.993 20.76 104.013 19.42V15.3H104.213C104.793 18.32 107.073 20.86 110.253 20.86C112.293 20.86 114.433 19.78 114.433 17.74ZM117.68 4.08C117.68 4.08 119.28 0.699998 124.24 0.699998C129.64 0.699998 131.34 3.8 131.34 5.98C131.34 10.52 122.78 11.76 122.78 14.96C122.78 16.16 123.86 15.78 123.86 16.48C123.86 16.72 123.64 16.9 123.42 16.9C122.86 16.9 122.34 16.24 122.34 15.26C122.34 11.18 129.32 10.36 129.32 6.12C129.32 2.72 126.92 1.1 124.26 1.1C120.42 1.1 120.88 4.84 118.88 4.84C118.44 4.84 117.82 4.68 117.68 4.08ZM123.44 18.56C124.12 18.56 124.66 19.1 124.66 19.78C124.66 20.46 124.12 21 123.44 21C122.76 21 122.22 20.46 122.22 19.78C122.22 19.1 122.76 18.56 123.44 18.56Z" fill="#F5F9FC"/>
</svg>
