<svg width="122" height="45" viewBox="0 0 122 45" fill="none" xmlns="http://www.w3.org/2000/svg">
<path d="M0.1 1.4625V1.0625H25.58L27.74 8.7425H27.54C24.62 4.5825 18.34 1.8625 11.06 1.8625H7.78V20.2625H24.94L25.86 24.0225C22.58 22.5425 18.54 21.0625 10.42 21.0625H7.78V27.7425C7.78 36.2625 7.3 40.6625 11.46 40.6625V41.0625H0.1V40.6625C4.26 40.6625 3.78 36.2625 3.78 27.7425V14.3825C3.78 5.8625 4.26 1.4625 0.1 1.4625ZM31.1791 41.6625C27.6991 41.6625 25.7391 38.0225 25.7391 34.5025C25.7391 23.9825 36.8191 12.1025 41.3791 8.2625C40.9791 7.0625 40.6591 5.9425 40.3791 4.9825C39.1791 0.902497 35.7391 1.5425 35.7391 1.5425V1.0625H43.5791C43.5791 1.0625 43.7791 1.8225 44.1791 3.1025C45.7391 8.1025 49.6991 21.0625 51.6591 27.3025C54.1391 35.1425 55.4991 40.6625 59.6591 40.6625V41.0625H44.4591V40.6625C46.6591 40.6625 48.7791 40.4625 49.3791 38.3825C49.9391 36.4625 49.0191 33.1825 47.3391 27.5025C46.2991 24.2225 44.6991 19.0625 43.1791 14.2225C43.4591 23.4625 40.4591 41.6625 31.1791 41.6625ZM41.6591 9.1825C36.8191 13.3825 28.8991 22.3025 28.8991 32.3825C28.8991 34.9425 30.1391 37.7425 32.6991 37.7425C39.0191 37.7425 43.4591 21.6625 42.1791 10.9825C41.8991 10.0625 41.6591 9.1425 41.3791 8.2625C41.4591 8.5825 41.5391 8.8625 41.6591 9.1825ZM56.6469 21.0625C56.6469 9.7025 64.9269 0.462496 75.1269 0.462496C85.3269 0.462496 93.6069 9.7025 93.6069 21.0625C93.6069 28.5025 90.0469 35.0625 84.7269 38.6625L87.8869 44.5025H85.6869L83.2869 39.5425C80.8069 40.9025 78.0469 41.6625 75.1269 41.6625C64.9269 41.6625 56.6469 32.4225 56.6469 21.0625ZM72.5269 2.1025C64.6469 2.1025 60.3269 8.7425 60.3269 19.2625C60.3269 30.7025 68.7669 39.9425 77.6869 39.9425C79.6469 39.9425 81.3669 39.5425 82.8869 38.7425L71.0469 14.3825H71.4869L84.2869 37.8625C87.9269 35.1425 89.8469 29.8225 89.8469 22.7825C89.8469 11.3425 81.4069 2.1025 72.5269 2.1025ZM118.523 34.5425C118.523 26.3025 96.8031 30.4225 96.8031 19.8625C96.8031 14.2625 103.643 11.6625 109.323 11.6625C113.763 11.6625 117.123 12.7025 120.203 15.1025C120.483 16.7025 119.283 17.9825 117.643 17.9825C114.123 17.9825 113.283 12.7025 107.003 12.7025C104.083 12.7025 100.003 14.5025 100.003 18.1425C100.003 26.9025 121.403 21.4625 121.403 33.6625C121.403 39.2625 115.123 41.6625 109.523 41.6625C104.323 41.6625 101.643 40.5825 97.6831 37.9025V29.6625H98.0831C99.2431 35.7025 103.803 40.7825 110.163 40.7825C114.243 40.7825 118.523 38.6225 118.523 34.5425Z" fill="#F5F9FC"/>
</svg>
