<svg width="405" height="32" viewBox="0 0 405 32" fill="none" xmlns="http://www.w3.org/2000/svg">
<path d="M0.114063 1.3V1H8.63406V1.3C5.51406 1.3 5.87406 4.6 5.87406 10.99V16C5.87406 16 5.81406 22.45 5.81406 24.64C5.81406 29.68 4.46406 31.45 2.39406 31.45C1.79406 31.45 1.37406 31.36 1.10406 31C2.84406 30.07 2.87406 28.75 2.87406 24.31V10.99C2.87406 4.6 3.23406 1.3 0.114063 1.3ZM9.68946 20.2C9.68946 13.99 14.8195 8.95 20.9995 8.95C27.1795 8.95 32.3095 13.99 32.3095 20.2C32.3095 26.41 27.1795 31.45 20.9995 31.45C14.8195 31.45 9.68946 26.41 9.68946 20.2ZM18.5095 10.75C14.4295 10.75 11.0695 13.72 11.4895 18.73C11.7295 24.1 17.5195 29.65 23.5195 29.65C27.5995 29.65 30.9295 26.68 30.5095 21.67C30.2995 16.3 24.5095 10.75 18.5095 10.75ZM34.109 11.32V11.02C36.059 11.02 38.249 10.12 39.899 8.95C39.899 8.95 39.869 14.62 39.869 21.01C39.869 27.4 39.509 30.7 42.629 30.7V31H34.109V30.7C37.229 30.7 36.869 27.4 36.869 21.01C36.869 14.62 37.229 11.32 34.109 11.32ZM38.159 8.14C36.659 8.14 35.429 6.91 35.429 5.38C35.429 3.88 36.659 2.65 38.159 2.65C39.689 2.65 40.919 3.88 40.919 5.38C40.919 6.91 39.689 8.14 38.159 8.14ZM46.2803 21.01C46.2803 14.62 46.6403 11.32 43.5203 11.32V11.02C45.4703 11.02 47.6603 10.12 49.3103 8.95C49.3103 8.95 49.2803 12.46 49.2803 17.08C50.4803 13.48 53.1803 8.95 56.7803 8.95C60.2003 8.95 61.0103 14.29 62.0603 17.95C63.5903 23.26 64.9103 30.7 68.2703 30.7V31H64.3703C62.0003 31 61.3403 27.64 60.3503 23.41C59.9303 21.61 59.3603 19.24 58.9103 17.44C57.9803 13.72 56.9903 11.05 55.2503 11.05C52.2203 11.05 49.3103 16.96 49.2803 20.47V21.01C49.2803 27.4 48.9203 30.7 52.0403 30.7V31H43.5203V30.7C46.6403 30.7 46.2803 27.4 46.2803 21.01ZM80.5504 26.44C80.5504 20.14 88.2904 18.49 93.7504 14.65C92.8204 11.29 92.2204 9.55 90.3004 9.55C87.5704 9.55 85.4704 13.93 82.8904 13.93C81.8404 13.93 81.0604 13.18 81.2404 12.16C81.8404 10.99 86.1904 8.95 90.1804 8.95C96.0904 8.95 96.7504 15.34 98.4904 20.8C101.07 28.84 101.46 30.7 104.46 30.7V31H99.9004C98.4304 31 98.1604 30.34 97.3804 27.43C97.1704 26.65 96.0004 22.6 95.1004 19.45C94.1104 25.99 90.9904 31.45 85.7704 31.45C82.4104 31.45 80.5504 29.2 80.5504 26.44ZM93.9304 15.22C89.4604 18.61 83.5504 20.86 83.5504 25.87C83.5504 27.85 84.9604 29.29 86.9404 29.29C93.0604 29.29 94.7104 19.96 94.4104 17.05C94.2304 16.45 94.0804 15.85 93.9304 15.22ZM121.2 26.11C121.2 19.93 104.91 23.02 104.91 15.1C104.91 10.9 110.04 8.95 114.3 8.95C117.63 8.95 120.15 9.73 122.46 11.53C122.67 12.73 121.77 13.69 120.54 13.69C117.9 13.69 117.27 9.73 112.56 9.73C110.37 9.73 107.31 11.08 107.31 13.81C107.31 20.38 123.36 16.3 123.36 25.45C123.36 29.65 118.65 31.45 114.45 31.45C110.55 31.45 108.54 30.64 105.57 28.63V22.45H105.87C106.74 26.98 110.16 30.79 114.93 30.79C117.99 30.79 121.2 29.17 121.2 26.11ZM124.87 10.3V9.4C126.82 9.4 129.94 5.59 130.75 3.04H131.05C131.05 3.04 131.02 5.68 131.02 9.4H135.79V10.3H131.02C131.02 11.35 131.02 12.46 131.02 13.63V26.47C131.02 28.12 131.5 30.46 133.21 30.46C134.65 30.46 135.79 29.62 136.48 28.51L136.78 28.72C136.21 29.74 134.47 31.45 132.52 31.45C128.95 31.45 128.02 28.81 128.02 25.87V10.3H124.87ZM140.153 21.01C140.153 14.62 140.513 11.32 137.393 11.32V11.02C139.343 11.02 141.533 10.12 143.183 8.95C143.183 8.95 143.153 12.94 143.153 18.01C143.273 13.78 147.203 8.95 151.733 8.95C152.453 8.95 153.533 8.98 154.133 9.4C154.763 11.2 153.623 12.31 151.913 12.31C150.683 12.31 150.233 11.71 148.493 11.71C145.073 11.71 143.153 16.81 143.153 21.97C143.153 27.4 142.793 30.7 145.913 30.7V31H137.393V30.7C140.513 30.7 140.153 27.4 140.153 21.01ZM154.905 26.44C154.905 20.14 162.645 18.49 168.105 14.65C167.175 11.29 166.575 9.55 164.655 9.55C161.925 9.55 159.825 13.93 157.245 13.93C156.195 13.93 155.415 13.18 155.595 12.16C156.195 10.99 160.545 8.95 164.535 8.95C170.445 8.95 171.105 15.34 172.845 20.8C175.425 28.84 175.815 30.7 178.815 30.7V31H174.255C172.785 31 172.515 30.34 171.735 27.43C171.525 26.65 170.355 22.6 169.455 19.45C168.465 25.99 165.345 31.45 160.125 31.45C156.765 31.45 154.905 29.2 154.905 26.44ZM168.285 15.22C163.815 18.61 157.905 20.86 157.905 25.87C157.905 27.85 159.315 29.29 161.295 29.29C167.415 29.29 169.065 19.96 168.765 17.05C168.585 16.45 168.435 15.85 168.285 15.22ZM191.247 26.44C191.247 20.14 198.987 18.49 204.447 14.65C203.517 11.29 202.917 9.55 200.997 9.55C198.267 9.55 196.167 13.93 193.587 13.93C192.537 13.93 191.757 13.18 191.937 12.16C192.537 10.99 196.887 8.95 200.877 8.95C206.787 8.95 207.447 15.34 209.187 20.8C211.767 28.84 212.157 30.7 215.157 30.7V31H210.597C209.127 31 208.857 30.34 208.077 27.43C207.867 26.65 206.697 22.6 205.797 19.45C204.807 25.99 201.687 31.45 196.467 31.45C193.107 31.45 191.247 29.2 191.247 26.44ZM204.627 15.22C200.157 18.61 194.247 20.86 194.247 25.87C194.247 27.85 195.657 29.29 197.637 29.29C203.757 29.29 205.407 19.96 205.107 17.05C204.927 16.45 204.777 15.85 204.627 15.22ZM231.897 26.11C231.897 19.93 215.607 23.02 215.607 15.1C215.607 10.9 220.737 8.95 224.997 8.95C228.327 8.95 230.847 9.73 233.157 11.53C233.367 12.73 232.467 13.69 231.237 13.69C228.597 13.69 227.967 9.73 223.257 9.73C221.067 9.73 218.007 11.08 218.007 13.81C218.007 20.38 234.057 16.3 234.057 25.45C234.057 29.65 229.347 31.45 225.147 31.45C221.247 31.45 219.237 30.64 216.267 28.63V22.45H216.567C217.437 26.98 220.857 30.79 225.627 30.79C228.687 30.79 231.897 29.17 231.897 26.11ZM247.254 26.44C247.254 20.14 254.994 18.49 260.454 14.65C259.524 11.29 258.924 9.55 257.004 9.55C254.274 9.55 252.174 13.93 249.594 13.93C248.544 13.93 247.764 13.18 247.944 12.16C248.544 10.99 252.894 8.95 256.884 8.95C262.794 8.95 263.454 15.34 265.194 20.8C267.774 28.84 268.164 30.7 271.164 30.7V31H266.604C265.134 31 264.864 30.34 264.084 27.43C263.874 26.65 262.704 22.6 261.804 19.45C260.814 25.99 257.694 31.45 252.474 31.45C249.114 31.45 247.254 29.2 247.254 26.44ZM260.634 15.22C256.164 18.61 250.254 20.86 250.254 25.87C250.254 27.85 251.664 29.29 253.644 29.29C259.764 29.29 261.414 19.96 261.114 17.05C260.934 16.45 260.784 15.85 260.634 15.22ZM285.756 21.01C285.756 14.62 286.116 11.32 282.996 11.32V11.02C284.946 11.02 287.136 10.12 288.786 8.95C288.786 8.95 288.756 12.46 288.756 17.08C289.956 13.48 292.656 8.95 296.256 8.95C299.706 8.95 300.336 14.35 301.536 17.95C301.596 18.13 301.656 18.34 301.686 18.52C302.586 14.83 305.496 8.95 309.606 8.95C313.056 8.95 313.836 14.29 314.886 17.95C316.416 23.26 317.736 30.7 321.096 30.7V31H317.196C314.826 31 314.166 27.64 313.176 23.41C312.756 21.61 312.186 19.24 311.736 17.44C310.806 13.72 309.816 11.05 308.076 11.05C305.166 11.05 302.316 16.57 302.106 20.11C303.426 25.06 304.836 30.7 307.746 30.7V31H303.846C301.476 31 300.816 27.64 299.826 23.41C299.406 21.61 298.836 19.24 298.386 17.44C297.456 13.72 296.466 11.05 294.726 11.05C291.726 11.05 288.786 16.96 288.756 20.47V21.01C288.786 27.4 288.396 30.7 291.516 30.7V31H282.996V30.7C286.116 30.7 285.756 27.4 285.756 21.01ZM322.012 26.44C322.012 20.14 329.752 18.49 335.212 14.65C334.282 11.29 333.682 9.55 331.762 9.55C329.032 9.55 326.932 13.93 324.352 13.93C323.302 13.93 322.522 13.18 322.702 12.16C323.302 10.99 327.652 8.95 331.642 8.95C337.552 8.95 338.212 15.34 339.952 20.8C342.532 28.84 342.922 30.7 345.922 30.7V31H341.362C339.892 31 339.622 30.34 338.842 27.43C338.632 26.65 337.462 22.6 336.562 19.45C335.572 25.99 332.452 31.45 327.232 31.45C323.872 31.45 322.012 29.2 322.012 26.44ZM335.392 15.22C330.922 18.61 325.012 20.86 325.012 25.87C325.012 27.85 326.422 29.29 328.402 29.29C334.522 29.29 336.172 19.96 335.872 17.05C335.692 16.45 335.542 15.85 335.392 15.22ZM349.726 11.23C349.756 5.74 349.846 2.92 346.966 2.92V2.62C348.916 2.62 351.106 1.72 352.756 0.549997C352.756 0.549997 352.726 5.38 352.726 11.14V19.66C355.936 16.99 361.066 12.7 361.066 10.54C361.066 10.24 361.036 9.79 360.496 9.4H366.556V9.58C365.146 9.58 360.406 13.93 356.056 17.68C360.376 18.1 362.146 21.94 363.466 25.81C364.426 28.6 365.656 30.7 367.456 30.7V31H363.556C361.516 31 361.216 28.24 359.596 24.1C358.306 20.83 356.476 19.87 354.676 19.87C354.166 19.87 353.656 19.96 353.176 20.08C353.026 20.2 352.876 20.32 352.726 20.44V21.01C352.726 27.4 352.366 30.7 355.486 30.7V31H346.966V30.7C350.086 30.7 349.726 27.4 349.726 21.01V11.23ZM377.874 31.45C371.694 31.45 366.564 26.41 366.564 20.2C366.564 13.99 371.694 8.95 377.874 8.95C384.054 8.95 386.574 13.09 386.574 15.64C386.574 18.19 384.474 18.73 382.614 18.73H369.114C369.114 24.52 373.944 28.96 379.434 28.96C383.544 28.96 386.694 26.5 387.894 23.5L388.194 23.62C386.964 28.15 382.824 31.45 377.874 31.45ZM369.114 18.1C372.084 18.04 373.914 17.95 377.214 17.95C380.304 17.95 383.514 17.83 383.514 15.25C383.514 12.01 380.724 10 376.584 10C372.114 10 369.354 13.21 369.114 18.1ZM389.876 21.01C389.876 14.62 390.236 11.32 387.116 11.32V11.02C389.066 11.02 391.256 10.12 392.906 8.95C392.906 8.95 392.876 12.94 392.876 18.01C392.996 13.78 396.926 8.95 401.456 8.95C402.176 8.95 403.256 8.98 403.856 9.4C404.486 11.2 403.346 12.31 401.636 12.31C400.406 12.31 399.956 11.71 398.216 11.71C394.796 11.71 392.876 16.81 392.876 21.97C392.876 27.4 392.516 30.7 395.636 30.7V31H387.116V30.7C390.236 30.7 389.876 27.4 389.876 21.01Z" fill="white"/>
</svg>
