<svg width="376" height="42" viewBox="0 0 376 42" fill="none" xmlns="http://www.w3.org/2000/svg">
<path d="M0.6 1.4V1H11.96V1.4C7.8 1.4 8.28 5.8 8.28 14.32V21C8.28 21 8.2 29.6 8.2 32.52C8.2 39.24 6.4 41.6 3.64 41.6C2.84 41.6 2.28 41.48 1.92 41C4.24 39.76 4.28 38 4.28 32.08V14.32C4.28 5.8 4.76 1.4 0.6 1.4ZM13.3672 26.6C13.3672 18.32 20.2072 11.6 28.4472 11.6C36.6872 11.6 43.5272 18.32 43.5272 26.6C43.5272 34.88 36.6872 41.6 28.4472 41.6C20.2072 41.6 13.3672 34.88 13.3672 26.6ZM25.1272 14C19.6872 14 15.2072 17.96 15.7672 24.64C16.0872 31.8 23.8072 39.2 31.8072 39.2C37.2472 39.2 41.6872 35.24 41.1272 28.56C40.8472 21.4 33.1272 14 25.1272 14ZM45.9266 14.76V14.36C48.5266 14.36 51.4466 13.16 53.6466 11.6C53.6466 11.6 53.6066 19.16 53.6066 27.68C53.6066 36.2 53.1266 40.6 57.2866 40.6V41H45.9266V40.6C50.0866 40.6 49.6066 36.2 49.6066 27.68C49.6066 19.16 50.0866 14.76 45.9266 14.76ZM51.3266 10.52C49.3266 10.52 47.6866 8.88 47.6866 6.84C47.6866 4.84 49.3266 3.2 51.3266 3.2C53.3666 3.2 55.0066 4.84 55.0066 6.84C55.0066 8.88 53.3666 10.52 51.3266 10.52ZM62.155 27.68C62.155 19.16 62.635 14.76 58.475 14.76V14.36C61.075 14.36 63.995 13.16 66.195 11.6C66.195 11.6 66.155 16.28 66.155 22.44C67.755 17.64 71.355 11.6 76.155 11.6C80.715 11.6 81.795 18.72 83.195 23.6C85.235 30.68 86.995 40.6 91.475 40.6V41H86.275C83.115 41 82.235 36.52 80.915 30.88C80.355 28.48 79.595 25.32 78.995 22.92C77.755 17.96 76.435 14.4 74.115 14.4C70.075 14.4 66.195 22.28 66.155 26.96V27.68C66.155 36.2 65.675 40.6 69.835 40.6V41H58.475V40.6C62.635 40.6 62.155 36.2 62.155 27.68ZM106.648 13.4V12.2C109.248 12.2 113.408 7.12 114.488 3.72H114.888C114.888 3.72 114.848 7.24 114.848 12.2H121.208V13.4H114.848C114.848 14.8 114.848 16.28 114.848 17.84V34.96C114.848 37.16 115.488 40.28 117.768 40.28C119.688 40.28 121.208 39.16 122.128 37.68L122.528 37.96C121.768 39.32 119.448 41.6 116.848 41.6C112.088 41.6 110.848 38.08 110.848 34.16V13.4H106.648ZM123.347 40.6C127.507 40.6 127.027 36.2 127.027 27.68V14.64C127.067 7.32 127.187 3.56 123.347 3.56V3.16C125.947 3.16 128.867 1.96 131.067 0.399996C131.067 0.399996 131.027 6.84 131.027 14.52V22.44C132.627 17.64 136.227 11.6 141.027 11.6C145.587 11.6 146.667 18.72 148.067 23.6C150.107 30.68 151.867 40.6 156.347 40.6V41H151.147C147.987 41 147.107 36.52 145.787 30.88C145.227 28.48 144.467 25.32 143.867 22.92C142.627 17.96 141.307 14.4 138.987 14.4C134.947 14.4 131.027 22.32 131.027 27V27.68C131.027 36.2 130.547 40.6 134.707 40.6V41H123.347V40.6ZM170.613 41.6C162.373 41.6 155.533 34.88 155.533 26.6C155.533 18.32 162.373 11.6 170.613 11.6C178.853 11.6 182.213 17.12 182.213 20.52C182.213 23.92 179.413 24.64 176.933 24.64H158.933C158.933 32.36 165.373 38.28 172.693 38.28C178.173 38.28 182.373 35 183.973 31L184.373 31.16C182.733 37.2 177.213 41.6 170.613 41.6ZM158.933 23.8C162.893 23.72 165.333 23.6 169.733 23.6C173.853 23.6 178.133 23.44 178.133 20C178.133 15.68 174.413 13 168.893 13C162.933 13 159.253 17.28 158.933 23.8ZM199.772 12.2H212.572V12.6C210.572 12.6 209.332 13.76 209.332 15.72C209.332 17.6 210.692 22.12 211.972 26.72C212.932 30.16 213.852 33.72 214.372 35.56C215.212 38.64 215.452 39.32 215.932 39.32C217.132 39.32 219.772 23 220.332 19.44C218.892 15.56 217.172 12.6 214.692 12.6V12.2H227.492V12.6C225.492 12.6 224.252 13.76 224.252 15.72C224.252 17.6 225.612 22.12 226.892 26.72C227.852 30.16 228.772 33.72 229.292 35.56C230.132 38.64 230.372 39.32 230.852 39.32C232.212 39.32 234.932 21.48 234.932 21.48C235.452 18.72 235.772 12.64 231.052 12.64V12.2H244.132V12.6C239.972 12.6 238.172 17.08 236.692 22.76C236.692 22.76 235.052 28.56 234.372 31C232.972 36.04 232.212 41.6 229.252 41.6C227.252 41.6 226.692 39.8 225.532 36.16C224.772 33.8 223.852 30.56 223.092 28.04C222.612 26.48 222.132 24.84 221.652 23.24C221.212 24.72 220.012 29 219.452 31C218.052 36.04 217.292 41.6 214.332 41.6C212.332 41.6 211.772 39.8 210.612 36.16C209.852 33.8 208.972 30.56 208.172 28.04C205.972 21 203.932 12.6 199.772 12.6V12.2ZM244.145 34.92C244.145 26.52 254.465 24.32 261.745 19.2C260.505 14.72 259.705 12.4 257.145 12.4C253.505 12.4 250.705 18.24 247.265 18.24C245.865 18.24 244.825 17.24 245.065 15.88C245.865 14.32 251.665 11.6 256.985 11.6C264.865 11.6 265.745 20.12 268.065 27.4C271.505 38.12 272.025 40.6 276.025 40.6V41H269.945C267.985 41 267.625 40.12 266.585 36.24C266.305 35.2 264.745 29.8 263.545 25.6C262.225 34.32 258.065 41.6 251.105 41.6C246.625 41.6 244.145 38.6 244.145 34.92ZM261.985 19.96C256.025 24.48 248.145 27.48 248.145 34.16C248.145 36.8 250.025 38.72 252.665 38.72C260.825 38.72 263.025 26.28 262.625 22.4C262.385 21.6 262.185 20.8 261.985 19.96ZM277.417 14.76V14.36C280.017 14.36 282.937 13.16 285.137 11.6C285.137 11.6 285.097 19.16 285.097 27.68C285.097 36.2 284.617 40.6 288.777 40.6V41H277.417V40.6C281.577 40.6 281.097 36.2 281.097 27.68C281.097 19.16 281.577 14.76 277.417 14.76ZM282.817 10.52C280.817 10.52 279.177 8.88 279.177 6.84C279.177 4.84 280.817 3.2 282.817 3.2C284.857 3.2 286.497 4.84 286.497 6.84C286.497 8.88 284.857 10.52 282.817 10.52ZM289.566 13.4V12.2C292.166 12.2 296.326 7.12 297.406 3.72H297.806C297.806 3.72 297.766 7.24 297.766 12.2H304.126V13.4H297.766C297.766 14.8 297.766 16.28 297.766 17.84V34.96C297.766 37.16 298.406 40.28 300.686 40.28C302.606 40.28 304.126 39.16 305.046 37.68L305.446 37.96C304.686 39.32 302.366 41.6 299.766 41.6C295.006 41.6 293.766 38.08 293.766 34.16V13.4H289.566ZM317.624 41H306.264V40.6C310.424 40.6 309.944 36.2 309.944 27.68V14.64C309.984 7.32 310.104 3.56 306.264 3.56V3.16C308.864 3.16 311.784 1.96 313.984 0.399996C313.984 0.399996 313.944 6.84 313.944 14.52V27.68C313.944 36.2 313.464 40.6 317.624 40.6V41ZM318.813 14.76V14.36C321.413 14.36 324.333 13.16 326.533 11.6C326.533 11.6 326.493 19.16 326.493 27.68C326.493 36.2 326.013 40.6 330.173 40.6V41H318.813V40.6C322.973 40.6 322.493 36.2 322.493 27.68C322.493 19.16 322.973 14.76 318.813 14.76ZM324.213 10.52C322.213 10.52 320.573 8.88 320.573 6.84C320.573 4.84 322.213 3.2 324.213 3.2C326.253 3.2 327.893 4.84 327.893 6.84C327.893 8.88 326.253 10.52 324.213 10.52ZM354.281 34.48C354.281 26.24 332.561 30.36 332.561 19.8C332.561 14.2 339.401 11.6 345.081 11.6C349.521 11.6 352.881 12.64 355.961 15.04C356.241 16.64 355.041 17.92 353.401 17.92C349.881 17.92 349.041 12.64 342.761 12.64C339.841 12.64 335.761 14.44 335.761 18.08C335.761 26.84 357.161 21.4 357.161 33.6C357.161 39.2 350.881 41.6 345.281 41.6C340.081 41.6 337.401 40.52 333.441 37.84V29.6H333.841C335.001 35.64 339.561 40.72 345.921 40.72C350.001 40.72 354.281 38.56 354.281 34.48ZM359.173 13.4V12.2C361.773 12.2 365.933 7.12 367.013 3.72H367.413C367.413 3.72 367.373 7.24 367.373 12.2H373.733V13.4H367.373C367.373 14.8 367.373 16.28 367.373 17.84V34.96C367.373 37.16 368.013 40.28 370.293 40.28C372.213 40.28 373.733 39.16 374.653 37.68L375.053 37.96C374.293 39.32 371.973 41.6 369.373 41.6C364.613 41.6 363.373 38.08 363.373 34.16V13.4H359.173Z" fill="white"/>
</svg>
