<svg width="312" height="26" viewBox="0 0 312 26" fill="none" xmlns="http://www.w3.org/2000/svg">
<path d="M11.7756 25.9492C5.40059 25.9492 0.225586 20.1742 0.225586 13.0742C0.225586 5.97422 5.02559 0.199216 11.7756 0.199216C16.7256 0.199216 18.6506 2.67422 18.6506 2.67422C18.4006 3.89922 17.5506 4.09922 17.0006 4.09922C15.1756 4.09922 12.3756 1.24922 9.07559 1.24922C6.17559 1.24922 2.52559 5.37422 2.52559 11.9492C2.52559 19.0992 7.80059 25.1242 13.3756 25.1242C14.0756 25.1242 15.4756 24.8242 15.8506 24.3242V13.0742H18.3506V23.5242C16.9006 24.9992 14.4756 25.9492 11.7756 25.9492ZM30.5734 25.9492C25.4234 25.9492 21.1484 21.7492 21.1484 16.5742C21.1484 11.3992 25.4234 7.19922 30.5734 7.19922C35.7234 7.19922 37.8234 10.6492 37.8234 12.7742C37.8234 14.8992 36.0734 15.3492 34.5234 15.3492H23.2734C23.2734 20.1742 27.2984 23.8742 31.8734 23.8742C35.2984 23.8742 37.9234 21.8242 38.9234 19.3242L39.1734 19.4242C38.1484 23.1992 34.6984 25.9492 30.5734 25.9492ZM23.2734 14.8242C25.7484 14.7742 27.2734 14.6992 30.0234 14.6992C32.5984 14.6992 35.2734 14.5992 35.2734 12.4492C35.2734 9.74922 32.9484 8.07422 29.4984 8.07422C25.7734 8.07422 23.4734 10.7492 23.2734 14.8242ZM39.5576 8.32422V7.57422C41.1826 7.57422 43.7826 4.39922 44.4576 2.27422H44.7076C44.7076 2.27422 44.6826 4.47422 44.6826 7.57422H48.6576V8.32422H44.6826C44.6826 9.19922 44.6826 10.1242 44.6826 11.0992V21.7992C44.6826 23.1742 45.0826 25.1242 46.5076 25.1242C47.7076 25.1242 48.6576 24.4242 49.2326 23.4992L49.4826 23.6742C49.0076 24.5242 47.5576 25.9492 45.9326 25.9492C42.9576 25.9492 42.1826 23.7492 42.1826 21.2992V8.32422H39.5576ZM58.6094 0.574219H68.1094V0.824217C66.7344 0.824217 65.4094 0.949217 65.0344 2.24922C64.6844 3.44922 65.2594 5.49922 66.3094 9.04922C67.3344 12.2992 69.9094 20.4742 71.1344 24.5992C72.4094 19.9992 75.1344 8.44922 75.5594 6.17422C76.2594 2.37422 75.7844 0.824217 72.0094 0.824217V0.574219H81.5094V0.824217C78.9094 0.824217 78.0594 4.27422 76.5094 9.17422C75.2844 13.0742 72.8094 21.1742 71.8344 24.2992C71.5844 25.0992 71.4594 25.5742 71.4594 25.5742H68.6594C68.6594 25.5742 68.5344 25.0992 68.2844 24.2992C67.3094 21.1742 64.8344 13.0742 63.6094 9.17422C62.0594 4.27422 61.2094 0.824217 58.6094 0.824217V0.574219ZM82.2666 0.574219H92.3416C98.1166 0.574219 100.992 3.27422 100.992 7.27422C100.992 11.6492 96.9916 14.1742 92.6916 14.2242C97.3666 15.3242 100.867 20.3242 101.567 25.5742H98.7166C98.1166 20.1742 94.5166 14.1242 89.3666 14.2242H87.0666V17.2492C87.0666 22.5742 86.7666 25.3242 89.3666 25.3242V25.5742H82.2666V25.3242C84.8666 25.3242 84.5666 22.5742 84.5666 17.2492V8.89922C84.5666 3.57422 84.8666 0.824217 82.2666 0.824217V0.574219ZM87.0666 13.7742H90.7916C95.2166 13.7742 98.4666 11.1492 98.4666 7.27422C98.4666 3.69922 95.6666 1.07422 91.4916 1.07422H87.0666V13.7742ZM111.686 0.824217V0.574219H118.786V0.824217C116.186 0.824217 116.486 3.57422 116.486 8.89922V17.2492C116.486 22.5742 116.186 25.3242 118.786 25.3242V25.5742H111.686V25.3242C114.286 25.3242 113.986 22.5742 113.986 17.2492V8.89922C113.986 3.57422 114.286 0.824217 111.686 0.824217ZM121.722 17.2492C121.722 11.9242 122.022 9.17422 119.422 9.17422V8.92422C121.047 8.92422 122.872 8.17422 124.247 7.19922C124.247 7.19922 124.222 10.1242 124.222 13.9742C125.222 10.9742 127.472 7.19922 130.472 7.19922C133.322 7.19922 133.997 11.6492 134.872 14.6992C136.147 19.1242 137.247 25.3242 140.047 25.3242V25.5742H136.797C134.822 25.5742 134.272 22.7742 133.447 19.2492C133.097 17.7492 132.622 15.7742 132.247 14.2742C131.472 11.1742 130.647 8.94922 129.197 8.94922C126.672 8.94922 124.247 13.8742 124.222 16.7992V17.2492C124.222 22.5742 123.922 25.3242 126.522 25.3242V25.5742H119.422V25.3242C122.022 25.3242 121.722 22.5742 121.722 17.2492ZM149.405 0.574219H157.405V0.824217C156.155 0.824217 155.43 1.54922 155.43 2.77422C155.43 4.02422 156.23 6.87422 157.005 9.04922C157.605 10.7492 159.98 18.8742 163.255 18.8742C164.68 18.8742 164.555 16.8492 164.555 16.7242C164.555 13.9992 160.88 10.7742 160.88 5.24922C160.88 2.77422 162.255 0.199216 164.905 0.199216C167.655 0.199216 169.08 3.12422 169.08 5.59922C169.08 13.6742 163.23 25.9492 156.03 25.9492C153.88 25.9492 152.555 25.4242 152.33 25.0242V22.4742C153.305 23.0492 154.88 23.7242 156.58 23.7242C160.255 23.7242 162.855 21.5242 164.68 18.6742C164.255 19.2992 163.605 19.6492 162.78 19.6492C161.455 19.6492 157.73 20.0242 154.405 9.17422C152.905 4.27422 152.005 0.824217 149.405 0.824217V0.574219ZM164.805 18.4492C167.405 14.1992 168.28 8.62422 168.28 6.67422C168.28 4.14922 167.405 2.34922 165.355 2.34922C163.005 2.34922 162.255 4.89922 162.255 6.54922C162.255 11.6992 165.255 13.4492 165.255 16.4992C165.255 17.2742 165.105 17.9242 164.805 18.4492ZM170.074 16.5742C170.074 11.3992 174.349 7.19922 179.499 7.19922C184.649 7.19922 188.924 11.3992 188.924 16.5742C188.924 21.7492 184.649 25.9492 179.499 25.9492C174.349 25.9492 170.074 21.7492 170.074 16.5742ZM177.424 8.69922C174.024 8.69922 171.224 11.1742 171.574 15.3492C171.774 19.8242 176.599 24.4492 181.599 24.4492C184.999 24.4492 187.774 21.9742 187.424 17.7992C187.249 13.3242 182.424 8.69922 177.424 8.69922ZM190.174 8.92422C191.799 8.92422 193.624 8.17422 194.999 7.19922C194.999 7.19922 194.974 11.9242 194.974 16.7492V21.0242C194.974 23.5242 196.099 24.5742 197.649 24.5742C200.399 24.5742 204.224 21.1742 204.374 16.5992C204.374 16.0992 204.374 15.6242 204.374 15.1242C204.374 12.0492 204.549 9.17422 202.074 9.17422V8.92422C203.699 8.92422 205.524 8.17422 206.899 7.19922C206.899 7.19922 206.874 11.0742 206.874 15.8992C206.874 21.2242 206.574 23.9742 209.174 23.9742V24.2242C207.549 24.2242 205.724 24.9742 204.349 25.9492C204.349 25.9492 204.349 23.2742 204.374 19.3492C203.299 22.3242 200.649 25.9492 197.149 25.9492C192.074 25.9492 192.449 20.9492 192.449 20.9492C192.449 20.9492 192.474 19.3492 192.474 17.2492C192.474 11.9242 192.774 9.17422 190.174 9.17422V8.92422ZM211.981 17.2492C211.981 11.9242 212.281 9.17422 209.681 9.17422V8.92422C211.306 8.92422 213.131 8.17422 214.506 7.19922C214.506 7.19922 214.481 10.5242 214.481 14.7492C214.581 11.2242 217.856 7.19922 221.631 7.19922C222.231 7.19922 223.131 7.22422 223.631 7.57422C224.156 9.07422 223.206 9.99922 221.781 9.99922C220.756 9.99922 220.381 9.49922 218.931 9.49922C216.081 9.49922 214.481 13.7492 214.481 18.0492C214.481 22.5742 214.181 25.3242 216.781 25.3242V25.5742H209.681V25.3242C212.281 25.3242 211.981 22.5742 211.981 17.2492ZM233.771 6.74922C233.771 5.52422 234.846 0.199216 242.846 0.199216C247.796 0.199216 249.721 2.67422 249.721 2.67422C249.471 3.89922 248.621 4.09922 248.071 4.09922C246.246 4.09922 243.446 1.24922 240.146 1.24922C237.496 1.24922 235.696 2.99922 235.696 5.62422C235.696 13.0742 250.746 10.6242 250.746 18.9492C250.746 24.6242 246.246 25.9492 241.846 25.9492C238.196 25.9492 234.721 23.8992 233.896 22.8992V18.7742C235.771 22.2492 238.771 25.2492 243.796 25.2492C246.446 25.2492 249.146 23.5992 249.146 20.3992C249.146 12.7492 233.771 15.5242 233.771 6.74922ZM250.983 8.32422V7.57422C252.608 7.57422 255.208 4.39922 255.883 2.27422H256.133C256.133 2.27422 256.108 4.47422 256.108 7.57422H260.083V8.32422H256.108C256.108 9.19922 256.108 10.1242 256.108 11.0992V21.7992C256.108 23.1742 256.508 25.1242 257.933 25.1242C259.133 25.1242 260.083 24.4242 260.658 23.4992L260.908 23.6742C260.433 24.5242 258.983 25.9492 257.358 25.9492C254.383 25.9492 253.608 23.7492 253.608 21.2992V8.32422H250.983ZM259.918 16.5742C259.918 11.3992 264.193 7.19922 269.343 7.19922C274.493 7.19922 278.768 11.3992 278.768 16.5742C278.768 21.7492 274.493 25.9492 269.343 25.9492C264.193 25.9492 259.918 21.7492 259.918 16.5742ZM267.268 8.69922C263.868 8.69922 261.068 11.1742 261.418 15.3492C261.618 19.8242 266.443 24.4492 271.443 24.4492C274.843 24.4492 277.618 21.9742 277.268 17.7992C277.093 13.3242 272.268 8.69922 267.268 8.69922ZM282.318 17.2492C282.318 11.9242 282.618 9.17422 280.018 9.17422V8.92422C281.643 8.92422 283.468 8.17422 284.843 7.19922C284.843 7.19922 284.818 10.5242 284.818 14.7492C284.918 11.2242 288.193 7.19922 291.968 7.19922C292.568 7.19922 293.468 7.22422 293.968 7.57422C294.493 9.07422 293.543 9.99922 292.118 9.99922C291.093 9.99922 290.718 9.49922 289.268 9.49922C286.418 9.49922 284.818 13.7492 284.818 18.0492C284.818 22.5742 284.518 25.3242 287.118 25.3242V25.5742H280.018V25.3242C282.618 25.3242 282.318 22.5742 282.318 17.2492ZM302.79 25.9492C297.64 25.9492 293.365 21.7492 293.365 16.5742C293.365 11.3992 297.64 7.19922 302.79 7.19922C307.94 7.19922 310.04 10.6492 310.04 12.7742C310.04 14.8992 308.29 15.3492 306.74 15.3492H295.49C295.49 20.1742 299.515 23.8742 304.09 23.8742C307.515 23.8742 310.14 21.8242 311.14 19.3242L311.39 19.4242C310.365 23.1992 306.915 25.9492 302.79 25.9492ZM295.49 14.8242C297.965 14.7742 299.49 14.6992 302.24 14.6992C304.815 14.6992 307.49 14.5992 307.49 12.4492C307.49 9.74922 305.165 8.07422 301.715 8.07422C297.99 8.07422 295.69 10.7492 295.49 14.8242Z" fill="#F5F9FC"/>
</svg>
