<svg width="260" height="103" viewBox="0 0 260 103" fill="none" xmlns="http://www.w3.org/2000/svg">
<path d="M20.08 42.1813C9.88 42.1813 1.6 32.9413 1.6 21.5813C1.6 10.2213 9.28 0.981295 20.08 0.981295C28 0.981295 31.08 4.9413 31.08 4.9413C30.68 6.9013 29.32 7.2213 28.44 7.2213C25.52 7.2213 21.04 2.6613 15.76 2.6613C11.12 2.6613 5.28 9.2613 5.28 19.7813C5.28 31.2213 13.72 40.8613 22.64 40.8613C23.76 40.8613 26 40.3813 26.6 39.5813V21.5813H30.6V38.3013C28.28 40.6613 24.4 42.1813 20.08 42.1813ZM50.1566 42.1813C41.9166 42.1813 35.0766 35.4613 35.0766 27.1813C35.0766 18.9013 41.9166 12.1813 50.1566 12.1813C58.3966 12.1813 61.7566 17.7013 61.7566 21.1013C61.7566 24.5013 58.9566 25.2213 56.4766 25.2213H38.4766C38.4766 32.9413 44.9166 38.8613 52.2366 38.8613C57.7166 38.8613 61.9166 35.5813 63.5166 31.5813L63.9166 31.7413C62.2766 37.7813 56.7566 42.1813 50.1566 42.1813ZM38.4766 24.3813C42.4366 24.3013 44.8766 24.1813 49.2766 24.1813C53.3966 24.1813 57.6766 24.0213 57.6766 20.5813C57.6766 16.2613 53.9566 13.5813 48.4366 13.5813C42.4766 13.5813 38.7966 17.8613 38.4766 24.3813ZM64.5312 13.9813V12.7813C67.1313 12.7813 71.2913 7.7013 72.3713 4.3013H72.7713C72.7713 4.3013 72.7313 7.8213 72.7313 12.7813H79.0913V13.9813H72.7313C72.7313 15.3813 72.7313 16.8613 72.7313 18.4213V35.5413C72.7313 37.7413 73.3713 40.8613 75.6513 40.8613C77.5713 40.8613 79.0913 39.7413 80.0113 38.2613L80.4113 38.5413C79.6513 39.9013 77.3313 42.1813 74.7313 42.1813C69.9713 42.1813 68.7313 38.6613 68.7313 34.7413V13.9813H64.5312ZM95.0141 1.5813H110.214V1.9813C108.014 1.9813 105.894 2.1813 105.294 4.2613C104.734 6.1813 105.654 9.4613 107.334 15.1413C108.974 20.3413 113.094 33.4213 115.054 40.0213C117.094 32.6613 121.454 14.1813 122.134 10.5413C123.254 4.4613 122.494 1.9813 116.454 1.9813V1.5813H131.654V1.9813C127.494 1.9813 126.134 7.5013 123.654 15.3413C121.694 21.5813 117.734 34.5413 116.174 39.5413C115.774 40.8213 115.574 41.5813 115.574 41.5813H111.094C111.094 41.5813 110.894 40.8213 110.494 39.5413C108.934 34.5413 104.974 21.5813 103.014 15.3413C100.534 7.5013 99.1741 1.9813 95.0141 1.9813V1.5813ZM132.866 1.5813H148.986C158.226 1.5813 162.826 5.9013 162.826 12.3013C162.826 19.3013 156.426 23.3413 149.546 23.4213C157.026 25.1813 162.626 33.1813 163.746 41.5813H159.186C158.226 32.9413 152.466 23.2613 144.226 23.4213H140.546V28.2613C140.546 36.7813 140.066 41.1813 144.226 41.1813V41.5813H132.866V41.1813C137.026 41.1813 136.546 36.7813 136.546 28.2613V14.9013C136.546 6.3813 137.026 1.9813 132.866 1.9813V1.5813ZM140.546 22.7013H146.506C153.586 22.7013 158.786 18.5013 158.786 12.3013C158.786 6.5813 154.306 2.3813 147.626 2.3813H140.546V22.7013ZM179.936 1.9813V1.5813H191.296V1.9813C187.136 1.9813 187.616 6.3813 187.616 14.9013V28.2613C187.616 36.7813 187.136 41.1813 191.296 41.1813V41.5813H179.936V41.1813C184.096 41.1813 183.616 36.7813 183.616 28.2613V14.9013C183.616 6.3813 184.096 1.9813 179.936 1.9813ZM195.994 28.2613C195.994 19.7413 196.474 15.3413 192.314 15.3413V14.9413C194.914 14.9413 197.834 13.7413 200.034 12.1813C200.034 12.1813 199.994 16.8613 199.994 23.0213C201.594 18.2213 205.194 12.1813 209.994 12.1813C214.554 12.1813 215.634 19.3013 217.034 24.1813C219.074 31.2613 220.834 41.1813 225.314 41.1813V41.5813H220.114C216.954 41.5813 216.074 37.1013 214.754 31.4613C214.194 29.0613 213.434 25.9013 212.834 23.5013C211.594 18.5413 210.274 14.9813 207.954 14.9813C203.914 14.9813 200.034 22.8613 199.994 27.5413V28.2613C199.994 36.7813 199.514 41.1813 203.674 41.1813V41.5813H192.314V41.1813C196.474 41.1813 195.994 36.7813 195.994 28.2613ZM0.6 61.5813H13.4V61.9813C11.4 61.9813 10.24 63.1413 10.24 65.1013C10.24 67.1013 11.52 71.6613 12.76 75.1413C13.72 77.8613 17.52 90.8613 22.76 90.8613C25.04 90.8613 24.84 87.6213 24.84 87.4213C24.84 83.0613 18.96 77.9013 18.96 69.0613C18.96 65.1013 21.16 60.9813 25.4 60.9813C29.8 60.9813 32.08 65.6613 32.08 69.6213C32.08 82.5413 22.72 102.181 11.2 102.181C7.76 102.181 5.64 101.341 5.28 100.701V96.6213C6.84 97.5413 9.36 98.6213 12.08 98.6213C17.96 98.6213 22.12 95.1013 25.04 90.5413C24.36 91.5413 23.32 92.1013 22 92.1013C19.88 92.1013 13.92 92.7013 8.6 75.3413C6.2 67.5013 4.76 61.9813 0.6 61.9813V61.5813ZM25.24 90.1813C29.4 83.3813 30.8 74.4613 30.8 71.3413C30.8 67.3013 29.4 64.4213 26.12 64.4213C22.36 64.4213 21.16 68.5013 21.16 71.1413C21.16 79.3813 25.96 82.1813 25.96 87.0613C25.96 88.3013 25.72 89.3413 25.24 90.1813ZM33.6703 87.1813C33.6703 78.9013 40.5103 72.1813 48.7503 72.1813C56.9903 72.1813 63.8303 78.9013 63.8303 87.1813C63.8303 95.4613 56.9903 102.181 48.7503 102.181C40.5103 102.181 33.6703 95.4613 33.6703 87.1813ZM45.4303 74.5813C39.9903 74.5813 35.5103 78.5413 36.0703 85.2213C36.3903 92.3813 44.1103 99.7813 52.1103 99.7813C57.5503 99.7813 61.9903 95.8213 61.4303 89.1413C61.1503 81.9813 53.4303 74.5813 45.4303 74.5813ZM65.8297 74.9413C68.4297 74.9413 71.3497 73.7413 73.5497 72.1813C73.5497 72.1813 73.5097 79.7413 73.5097 87.4613V94.3013C73.5097 98.3013 75.3097 99.9813 77.7897 99.9813C82.1897 99.9813 88.3097 94.5413 88.5497 87.2213C88.5497 86.4213 88.5497 85.6613 88.5497 84.8613C88.5497 79.9413 88.8297 75.3413 84.8697 75.3413V74.9413C87.4697 74.9413 90.3897 73.7413 92.5897 72.1813C92.5897 72.1813 92.5497 78.3813 92.5497 86.1013C92.5497 94.6213 92.0697 99.0213 96.2297 99.0213V99.4213C93.6297 99.4213 90.7097 100.621 88.5097 102.181C88.5097 102.181 88.5097 97.9013 88.5497 91.6213C86.8297 96.3813 82.5897 102.181 76.9897 102.181C68.8697 102.181 69.4697 94.1813 69.4697 94.1813C69.4697 94.1813 69.5097 91.6213 69.5097 88.2613C69.5097 79.7413 69.9897 75.3413 65.8297 75.3413V74.9413ZM100.721 88.2613C100.721 79.7413 101.201 75.3413 97.0406 75.3413V74.9413C99.6406 74.9413 102.561 73.7413 104.761 72.1813C104.761 72.1813 104.721 77.5013 104.721 84.2613C104.881 78.6213 110.121 72.1813 116.161 72.1813C117.121 72.1813 118.561 72.2213 119.361 72.7813C120.201 75.1813 118.681 76.6613 116.401 76.6613C114.761 76.6613 114.161 75.8613 111.841 75.8613C107.281 75.8613 104.721 82.6613 104.721 89.5413C104.721 96.7813 104.241 101.181 108.401 101.181V101.581H97.0406V101.181C101.201 101.181 100.721 96.7813 100.721 88.2613ZM135.584 71.4613C135.584 69.5013 137.304 60.9813 150.104 60.9813C158.024 60.9813 161.104 64.9413 161.104 64.9413C160.704 66.9013 159.344 67.2213 158.464 67.2213C155.544 67.2213 151.064 62.6613 145.784 62.6613C141.544 62.6613 138.664 65.4613 138.664 69.6613C138.664 81.5813 162.744 77.6613 162.744 90.9813C162.744 100.061 155.544 102.181 148.504 102.181C142.664 102.181 137.104 98.9013 135.784 97.3013V90.7013C138.784 96.2613 143.584 101.061 151.624 101.061C155.864 101.061 160.184 98.4213 160.184 93.3013C160.184 81.0613 135.584 85.5013 135.584 71.4613ZM163.125 73.9813V72.7813C165.725 72.7813 169.885 67.7013 170.965 64.3013H171.365C171.365 64.3013 171.325 67.8213 171.325 72.7813H177.685V73.9813H171.325C171.325 75.3813 171.325 76.8613 171.325 78.4213V95.5413C171.325 97.7413 171.965 100.861 174.245 100.861C176.165 100.861 177.685 99.7413 178.605 98.2613L179.005 98.5413C178.245 99.9013 175.925 102.181 173.325 102.181C168.565 102.181 167.325 98.6613 167.325 94.7413V73.9813H163.125ZM177.42 87.1813C177.42 78.9013 184.26 72.1813 192.5 72.1813C200.74 72.1813 207.58 78.9013 207.58 87.1813C207.58 95.4613 200.74 102.181 192.5 102.181C184.26 102.181 177.42 95.4613 177.42 87.1813ZM189.18 74.5813C183.74 74.5813 179.26 78.5413 179.82 85.2213C180.14 92.3813 187.86 99.7813 195.86 99.7813C201.3 99.7813 205.74 95.8213 205.18 89.1413C204.9 81.9813 197.18 74.5813 189.18 74.5813ZM213.26 88.2613C213.26 79.7413 213.74 75.3413 209.58 75.3413V74.9413C212.18 74.9413 215.1 73.7413 217.3 72.1813C217.3 72.1813 217.26 77.5013 217.26 84.2613C217.42 78.6213 222.66 72.1813 228.7 72.1813C229.66 72.1813 231.1 72.2213 231.9 72.7813C232.74 75.1813 231.22 76.6613 228.94 76.6613C227.3 76.6613 226.7 75.8613 224.38 75.8613C219.82 75.8613 217.26 82.6613 217.26 89.5413C217.26 96.7813 216.78 101.181 220.94 101.181V101.581H209.58V101.181C213.74 101.181 213.26 96.7813 213.26 88.2613ZM246.016 102.181C237.776 102.181 230.936 95.4613 230.936 87.1813C230.936 78.9013 237.776 72.1813 246.016 72.1813C254.256 72.1813 257.616 77.7013 257.616 81.1013C257.616 84.5013 254.816 85.2213 252.336 85.2213H234.336C234.336 92.9413 240.776 98.8613 248.096 98.8613C253.576 98.8613 257.776 95.5813 259.376 91.5813L259.776 91.7413C258.136 97.7813 252.616 102.181 246.016 102.181ZM234.336 84.3813C238.296 84.3013 240.736 84.1813 245.136 84.1813C249.256 84.1813 253.536 84.0213 253.536 80.5813C253.536 76.2613 249.816 73.5813 244.296 73.5813C238.336 73.5813 234.656 77.8613 234.336 84.3813Z" fill="#F5F9FC"/>
</svg>
