<svg width="655" height="260" viewBox="0 0 655 260" fill="none" xmlns="http://www.w3.org/2000/svg">
<path d="M0.9 2H25.08C38.94 2 45.84 8.48 45.84 18.08C45.84 28.58 36.24 34.64 25.92 34.76C37.14 37.4 45.54 49.4 47.22 62H40.38C38.94 49.04 30.3 34.52 17.94 34.76H12.42V42.02C12.42 54.8 11.7 61.4 17.94 61.4V62H0.9V61.4C7.14 61.4 6.42 54.8 6.42 42.02V21.98C6.42 9.2 7.14 2.6 0.9 2.6V2ZM12.42 33.68H21.36C31.98 33.68 39.78 27.38 39.78 18.08C39.78 9.5 33.06 3.2 23.04 3.2H12.42V33.68ZM71.6606 62.9C59.3006 62.9 49.0406 52.82 49.0406 40.4C49.0406 27.98 59.3006 17.9 71.6606 17.9C84.0206 17.9 89.0606 26.18 89.0606 31.28C89.0606 36.38 84.8606 37.46 81.1406 37.46H54.1406C54.1406 49.04 63.8006 57.92 74.7806 57.92C83.0006 57.92 89.3006 53 91.7006 47L92.3006 47.24C89.8406 56.3 81.5606 62.9 71.6606 62.9ZM54.1406 36.2C60.0806 36.08 63.7406 35.9 70.3406 35.9C76.5206 35.9 82.9406 35.66 82.9406 30.5C82.9406 24.02 77.3606 20 69.0806 20C60.1406 20 54.6206 26.42 54.1406 36.2ZM93.8227 22.64V22.04C97.7227 22.04 102.103 20.24 105.403 17.9C105.403 17.9 105.343 29.24 105.343 42.02C105.343 54.8 104.623 61.4 110.863 61.4V62H93.8227V61.4C100.063 61.4 99.3427 54.8 99.3427 42.02C99.3427 29.24 100.063 22.64 93.8227 22.64ZM101.923 16.28C98.9227 16.28 96.4627 13.82 96.4627 10.76C96.4627 7.76 98.9227 5.3 101.923 5.3C104.983 5.3 107.443 7.76 107.443 10.76C107.443 13.82 104.983 16.28 101.923 16.28ZM117.565 42.02C117.565 29.24 118.285 22.64 112.045 22.64V22.04C115.945 22.04 120.325 20.24 123.625 17.9C123.625 17.9 123.565 24.92 123.565 34.16C125.965 26.96 131.365 17.9 138.565 17.9C145.405 17.9 147.025 28.58 149.125 35.9C152.185 46.52 154.825 61.4 161.545 61.4V62H153.745C149.005 62 147.685 55.28 145.705 46.82C144.865 43.22 143.725 38.48 142.825 34.88C140.965 27.44 138.985 22.1 135.505 22.1C129.445 22.1 123.625 33.92 123.565 40.94V42.02C123.565 54.8 122.845 61.4 129.085 61.4V62H112.045V61.4C118.285 61.4 117.565 54.8 117.565 42.02ZM150.117 19.4V18.8H169.317V19.4C166.317 19.4 164.457 21.14 164.457 24.08C164.457 26.9 166.797 33.68 168.837 40.52C173.637 56.6 174.237 59.3 175.977 59.3C177.297 59.3 177.657 56.96 180.237 46.46C181.917 39.68 183.417 32.72 183.417 32.72C184.197 28.58 184.677 19.46 177.597 19.46V18.8H197.217V19.4C190.977 19.4 187.737 31.04 183.897 42.32C182.637 46.04 180.717 51.44 179.637 54.74C178.017 59.72 177.177 62.9 173.337 62.9C170.337 62.9 168.897 60.2 167.157 54.74C166.017 51.2 164.397 46.04 163.137 42.32C159.357 31.04 156.357 19.4 150.117 19.4ZM216.27 62.9C203.91 62.9 193.65 52.82 193.65 40.4C193.65 27.98 203.91 17.9 216.27 17.9C228.63 17.9 233.67 26.18 233.67 31.28C233.67 36.38 229.47 37.46 225.75 37.46H198.75C198.75 49.04 208.41 57.92 219.39 57.92C227.61 57.92 233.91 53 236.31 47L236.91 47.24C234.45 56.3 226.17 62.9 216.27 62.9ZM198.75 36.2C204.69 36.08 208.35 35.9 214.95 35.9C221.13 35.9 227.55 35.66 227.55 30.5C227.55 24.02 221.97 20 213.69 20C204.75 20 199.23 26.42 198.75 36.2ZM243.952 42.02C243.952 29.24 244.672 22.64 238.432 22.64V22.04C242.332 22.04 246.712 20.24 250.012 17.9C250.012 17.9 249.952 24.92 249.952 34.16C252.352 26.96 257.752 17.9 264.952 17.9C271.792 17.9 273.412 28.58 275.512 35.9C278.572 46.52 281.212 61.4 287.932 61.4V62H280.132C275.392 62 274.072 55.28 272.092 46.82C271.252 43.22 270.112 38.48 269.212 34.88C267.352 27.44 265.372 22.1 261.892 22.1C255.832 22.1 250.012 33.92 249.952 40.94V42.02C249.952 54.8 249.232 61.4 255.472 61.4V62H238.432V61.4C244.672 61.4 243.952 54.8 243.952 42.02ZM283.711 20.6V18.8C287.611 18.8 293.851 11.18 295.471 6.08H296.071C296.071 6.08 296.011 11.36 296.011 18.8H305.551V20.6H296.011C296.011 22.7 296.011 24.92 296.011 27.26V52.94C296.011 56.24 296.971 60.92 300.391 60.92C303.271 60.92 305.551 59.24 306.931 57.02L307.531 57.44C306.391 59.48 302.911 62.9 299.011 62.9C291.871 62.9 290.011 57.62 290.011 51.74V20.6H283.711ZM308.159 22.64V22.04C312.059 22.04 316.439 20.24 319.739 17.9C319.739 17.9 319.679 29.24 319.679 42.02C319.679 54.8 318.959 61.4 325.199 61.4V62H308.159V61.4C314.399 61.4 313.679 54.8 313.679 42.02C313.679 29.24 314.399 22.64 308.159 22.64ZM316.259 16.28C313.259 16.28 310.799 13.82 310.799 10.76C310.799 7.76 313.259 5.3 316.259 5.3C319.319 5.3 321.779 7.76 321.779 10.76C321.779 13.82 319.319 16.28 316.259 16.28ZM331.901 42.02C331.901 29.24 332.621 22.64 326.381 22.64V22.04C330.281 22.04 334.661 20.24 337.961 17.9C337.961 17.9 337.901 24.92 337.901 34.16C340.301 26.96 345.701 17.9 352.901 17.9C359.741 17.9 361.361 28.58 363.461 35.9C366.521 46.52 369.161 61.4 375.881 61.4V62H368.081C363.341 62 362.021 55.28 360.041 46.82C359.201 43.22 358.061 38.48 357.161 34.88C355.301 27.44 353.321 22.1 349.841 22.1C343.781 22.1 337.961 33.92 337.901 40.94V42.02C337.901 54.8 337.181 61.4 343.421 61.4V62H326.381V61.4C332.621 61.4 331.901 54.8 331.901 42.02ZM372.244 37.58C372.244 20.54 388.864 18.8 404.464 12.68L405.244 15.14L391.744 18.8C402.304 18.62 411.904 26.72 411.904 37.58C411.904 45.56 406.564 52.46 399.124 55.16C388.744 59.6 379.504 62.78 379.504 66.56C379.504 67.94 380.524 68.72 381.964 68.72C389.884 68.72 396.844 59.42 407.464 59.42C411.724 59.42 414.364 62.3 414.364 65.78C414.364 77.12 390.964 74.06 387.844 81.68C387.184 83.3 387.664 85.82 385.864 85.82C384.964 85.82 384.184 85.1 384.184 84.02C384.184 73.28 411.304 75.8 411.304 67.88C411.304 66.44 410.284 64.82 407.764 64.82C399.784 64.82 391.204 74.12 381.484 74.12C377.584 74.12 374.644 71.96 374.644 68.66C374.644 62.54 385.204 60.26 392.344 56.42C381.844 56.6 372.244 48.44 372.244 37.58ZM377.284 33.98C377.284 44.18 386.344 53.78 396.544 53.78C403.324 53.78 406.804 48.14 406.804 40.88C406.804 30.68 397.744 21.08 387.544 21.08C380.824 21.08 377.284 26.66 377.284 33.98ZM436.252 2H460.432C474.292 2 481.192 8.48 481.192 18.08C481.192 28.58 471.592 34.64 461.272 34.76C472.492 37.4 480.892 49.4 482.572 62H475.732C474.292 49.04 465.652 34.52 453.292 34.76H447.772V42.02C447.772 54.8 447.052 61.4 453.292 61.4V62H436.252V61.4C442.492 61.4 441.772 54.8 441.772 42.02V21.98C441.772 9.2 442.492 2.6 436.252 2.6V2ZM447.772 33.68H456.712C467.332 33.68 475.132 27.38 475.132 18.08C475.132 9.5 468.412 3.2 458.392 3.2H447.772V33.68ZM507.012 62.9C494.652 62.9 484.392 52.82 484.392 40.4C484.392 27.98 494.652 17.9 507.012 17.9C519.372 17.9 524.412 26.18 524.412 31.28C524.412 36.38 520.212 37.46 516.492 37.46H489.492C489.492 49.04 499.152 57.92 510.132 57.92C518.352 57.92 524.652 53 527.052 47L527.652 47.24C525.192 56.3 516.912 62.9 507.012 62.9ZM489.492 36.2C495.432 36.08 499.092 35.9 505.692 35.9C511.872 35.9 518.292 35.66 518.292 30.5C518.292 24.02 512.712 20 504.432 20C495.492 20 489.972 26.42 489.492 36.2ZM528.574 20.6V18.8C532.474 18.8 538.714 11.18 540.334 6.08H540.934C540.934 6.08 540.874 11.36 540.874 18.8H550.414V20.6H540.874C540.874 22.7 540.874 24.92 540.874 27.26V52.94C540.874 56.24 541.834 60.92 545.254 60.92C548.134 60.92 550.414 59.24 551.794 57.02L552.394 57.44C551.254 59.48 547.774 62.9 543.874 62.9C536.734 62.9 534.874 57.62 534.874 51.74V20.6H528.574ZM554.222 52.88C554.222 40.28 569.702 36.98 580.622 29.3C578.762 22.58 577.562 19.1 573.722 19.1C568.262 19.1 564.062 27.86 558.902 27.86C556.802 27.86 555.242 26.36 555.602 24.32C556.802 21.98 565.502 17.9 573.482 17.9C585.302 17.9 586.622 30.68 590.102 41.6C595.262 57.68 596.042 61.4 602.042 61.4V62H592.922C589.982 62 589.442 60.68 587.882 54.86C587.462 53.3 585.122 45.2 583.322 38.9C581.342 51.98 575.102 62.9 564.662 62.9C557.942 62.9 554.222 58.4 554.222 52.88ZM580.982 30.44C572.042 37.22 560.222 41.72 560.222 51.74C560.222 55.7 563.042 58.58 567.002 58.58C579.242 58.58 582.542 39.92 581.942 34.1C581.582 32.9 581.282 31.7 580.982 30.44ZM603.53 22.64V22.04C607.43 22.04 611.81 20.24 615.11 17.9C615.11 17.9 615.05 29.24 615.05 42.02C615.05 54.8 614.33 61.4 620.57 61.4V62H603.53V61.4C609.77 61.4 609.05 54.8 609.05 42.02C609.05 29.24 609.77 22.64 603.53 22.64ZM611.63 16.28C608.63 16.28 606.17 13.82 606.17 10.76C606.17 7.76 608.63 5.3 611.63 5.3C614.69 5.3 617.15 7.76 617.15 10.76C617.15 13.82 614.69 16.28 611.63 16.28ZM638.792 62H621.752V61.4C627.992 61.4 627.272 54.8 627.272 42.02V22.46C627.332 11.48 627.512 5.84 621.752 5.84V5.24C625.652 5.24 630.032 3.44 633.332 1.09999C633.332 1.09999 633.272 10.76 633.272 22.28V42.02C633.272 54.8 632.552 61.4 638.792 61.4V62ZM0.9 89.6V89H23.7V89.6C20.4 89.6 17.22 89.9 16.32 93.02C15.48 95.9 16.86 100.82 19.38 109.34C21.84 117.14 28.02 136.76 30.96 146.66C33.36 138.02 37.86 119.18 40.2 108.8C36.66 97.46 34.56 89.6 28.5 89.6V89H51.3V89.6C48 89.6 44.82 89.9 43.92 93.02C43.08 95.9 44.46 100.82 46.98 109.34C49.44 117.14 55.62 136.76 58.56 146.66C61.62 135.62 68.16 107.9 69.18 102.44C70.86 93.32 69.72 89.6 60.66 89.6V89H83.46V89.6C77.22 89.6 75.18 97.88 71.46 109.64C68.52 119 62.58 138.44 60.24 145.94C59.64 147.86 59.34 149 59.34 149H52.62C52.62 149 52.32 147.86 51.72 145.94C49.74 139.7 45.3 125.12 42.18 115.04C39.06 125.12 34.56 139.7 32.64 145.94C32.04 147.86 31.74 149 31.74 149H25.02C25.02 149 24.72 147.86 24.12 145.94C21.78 138.44 15.84 119 12.9 109.64C9.18 97.88 7.14 89.6 0.9 89.6ZM81.4008 109.64V109.04C85.3008 109.04 89.6808 107.24 92.9808 104.9C92.9808 104.9 92.9208 116.24 92.9208 129.02C92.9208 141.8 92.2008 148.4 98.4408 148.4V149H81.4008V148.4C87.6408 148.4 86.9208 141.8 86.9208 129.02C86.9208 116.24 87.6408 109.64 81.4008 109.64ZM89.5008 103.28C86.5008 103.28 84.0408 100.82 84.0408 97.76C84.0408 94.76 86.5008 92.3 89.5008 92.3C92.5608 92.3 95.0208 94.76 95.0208 97.76C95.0208 100.82 92.5608 103.28 89.5008 103.28ZM99.0234 107.6V105.8C102.923 105.8 109.163 98.18 110.783 93.08H111.383C111.383 93.08 111.323 98.36 111.323 105.8H120.863V107.6H111.323C111.323 109.7 111.323 111.92 111.323 114.26V139.94C111.323 143.24 112.283 147.92 115.703 147.92C118.583 147.92 120.863 146.24 122.243 144.02L122.843 144.44C121.703 146.48 118.223 149.9 114.323 149.9C107.183 149.9 105.323 144.62 105.323 138.74V107.6H99.0234ZM123.471 148.4C129.711 148.4 128.991 141.8 128.991 129.02V109.46C129.051 98.48 129.231 92.84 123.471 92.84V92.24C127.371 92.24 131.751 90.44 135.051 88.1C135.051 88.1 134.991 97.76 134.991 109.28V121.16C137.391 113.96 142.791 104.9 149.991 104.9C156.831 104.9 158.451 115.58 160.551 122.9C163.611 133.52 166.251 148.4 172.971 148.4V149H165.171C160.431 149 159.111 142.28 157.131 133.82C156.291 130.22 155.151 125.48 154.251 121.88C152.391 114.44 150.411 109.1 146.931 109.1C140.871 109.1 134.991 120.98 134.991 128V129.02C134.991 141.8 134.271 148.4 140.511 148.4V149H123.471V148.4ZM195.431 89H218.231V89.6C214.931 89.6 211.751 89.9 210.851 93.02C210.011 95.9 211.391 100.82 213.911 109.34C216.371 117.14 222.551 136.76 225.491 146.66C228.551 135.62 235.091 107.9 236.111 102.44C237.791 93.32 236.651 89.6 227.591 89.6V89H250.391V89.6C244.151 89.6 242.111 97.88 238.391 109.64C235.451 119 229.511 138.44 227.171 145.94C226.571 147.86 226.271 149 226.271 149H219.551C219.551 149 219.251 147.86 218.651 145.94C216.311 138.44 210.371 119 207.431 109.64C203.711 97.88 201.671 89.6 195.431 89.6V89ZM248.334 109.64V109.04C252.234 109.04 256.614 107.24 259.914 104.9C259.914 104.9 259.854 116.24 259.854 129.02C259.854 141.8 259.134 148.4 265.374 148.4V149H248.334V148.4C254.574 148.4 253.854 141.8 253.854 129.02C253.854 116.24 254.574 109.64 248.334 109.64ZM256.434 103.28C253.434 103.28 250.974 100.82 250.974 97.76C250.974 94.76 253.434 92.3 256.434 92.3C259.494 92.3 261.954 94.76 261.954 97.76C261.954 100.82 259.494 103.28 256.434 103.28ZM272.077 129.02C272.077 116.24 272.797 109.64 266.557 109.64V109.04C270.457 109.04 274.837 107.24 278.137 104.9C278.137 104.9 278.077 112.88 278.077 123.02C278.317 114.56 286.177 104.9 295.237 104.9C296.677 104.9 298.837 104.96 300.037 105.8C301.297 109.4 299.017 111.62 295.597 111.62C293.137 111.62 292.237 110.42 288.757 110.42C281.917 110.42 278.077 120.62 278.077 130.94C278.077 141.8 277.357 148.4 283.597 148.4V149H266.557V148.4C272.797 148.4 272.077 141.8 272.077 129.02ZM305.215 107.6V105.8C309.115 105.8 315.355 98.18 316.975 93.08H317.575C317.575 93.08 317.515 98.36 317.515 105.8H327.055V107.6H317.515C317.515 109.7 317.515 111.92 317.515 114.26V139.94C317.515 143.24 318.475 147.92 321.895 147.92C324.775 147.92 327.055 146.24 328.435 144.02L329.035 144.44C327.895 146.48 324.415 149.9 320.515 149.9C313.375 149.9 311.515 144.62 311.515 138.74V107.6H305.215ZM329.663 109.04C333.563 109.04 337.943 107.24 341.243 104.9C341.243 104.9 341.183 116.24 341.183 127.82V138.08C341.183 144.08 343.883 146.6 347.603 146.6C354.203 146.6 363.383 138.44 363.743 127.46C363.743 126.26 363.743 125.12 363.743 123.92C363.743 116.54 364.163 109.64 358.223 109.64V109.04C362.122 109.04 366.503 107.24 369.803 104.9C369.803 104.9 369.743 114.2 369.743 125.78C369.743 138.56 369.023 145.16 375.263 145.16V145.76C371.363 145.76 366.983 147.56 363.683 149.9C363.683 149.9 363.683 143.48 363.743 134.06C361.163 141.2 354.803 149.9 346.403 149.9C334.223 149.9 335.123 137.9 335.123 137.9C335.123 137.9 335.183 134.06 335.183 129.02C335.183 116.24 335.903 109.64 329.663 109.64V109.04ZM377.679 139.88C377.679 127.28 393.159 123.98 404.079 116.3C402.219 109.58 401.019 106.1 397.179 106.1C391.719 106.1 387.519 114.86 382.359 114.86C380.259 114.86 378.699 113.36 379.059 111.32C380.259 108.98 388.959 104.9 396.939 104.9C408.759 104.9 410.079 117.68 413.559 128.6C418.719 144.68 419.499 148.4 425.499 148.4V149H416.379C413.439 149 412.899 147.68 411.339 141.86C410.919 140.3 408.579 132.2 406.779 125.9C404.799 138.98 398.559 149.9 388.119 149.9C381.399 149.9 377.679 145.4 377.679 139.88ZM404.439 117.44C395.499 124.22 383.679 128.72 383.679 138.74C383.679 142.7 386.499 145.58 390.459 145.58C402.699 145.58 405.999 126.92 405.399 121.1C405.039 119.9 404.739 118.7 404.439 117.44ZM444.027 149H426.987V148.4C433.227 148.4 432.507 141.8 432.507 129.02V109.46C432.567 98.48 432.747 92.84 426.987 92.84V92.24C430.887 92.24 435.267 90.44 438.567 88.1C438.567 88.1 438.507 97.76 438.507 109.28V129.02C438.507 141.8 437.787 148.4 444.027 148.4V149ZM0.9 176H25.08C38.94 176 45.84 182.48 45.84 192.08C45.84 202.58 36.24 208.64 25.92 208.76C37.14 211.4 45.54 223.4 47.22 236H40.38C38.94 223.04 30.3 208.52 17.94 208.76H12.42V216.02C12.42 228.8 11.7 235.4 17.94 235.4V236H0.9V235.4C7.14 235.4 6.42 228.8 6.42 216.02V195.98C6.42 183.2 7.14 176.6 0.9 176.6V176ZM12.42 207.68H21.36C31.98 207.68 39.78 201.38 39.78 192.08C39.78 183.5 33.06 177.2 23.04 177.2H12.42V207.68ZM71.6606 236.9C59.3006 236.9 49.0406 226.82 49.0406 214.4C49.0406 201.98 59.3006 191.9 71.6606 191.9C84.0206 191.9 89.0606 200.18 89.0606 205.28C89.0606 210.38 84.8606 211.46 81.1406 211.46H54.1406C54.1406 223.04 63.8006 231.92 74.7806 231.92C83.0006 231.92 89.3006 227 91.7006 221L92.3006 221.24C89.8406 230.3 81.5606 236.9 71.6606 236.9ZM54.1406 210.2C60.0806 210.08 63.7406 209.9 70.3406 209.9C76.5206 209.9 82.9406 209.66 82.9406 204.5C82.9406 198.02 77.3606 194 69.0806 194C60.1406 194 54.6206 200.42 54.1406 210.2ZM95.0227 226.88C95.0227 214.28 110.503 210.98 121.423 203.3C119.563 196.58 118.363 193.1 114.523 193.1C109.063 193.1 104.863 201.86 99.7027 201.86C97.6027 201.86 96.0427 200.36 96.4027 198.32C97.6027 195.98 106.303 191.9 114.283 191.9C126.103 191.9 127.423 204.68 130.903 215.6C136.063 231.68 136.843 235.4 142.843 235.4V236H133.723C130.783 236 130.243 234.68 128.683 228.86C128.263 227.3 125.923 219.2 124.123 212.9C122.143 225.98 115.903 236.9 105.463 236.9C98.7427 236.9 95.0227 232.4 95.0227 226.88ZM121.783 204.44C112.843 211.22 101.023 215.72 101.023 225.74C101.023 229.7 103.843 232.58 107.803 232.58C120.043 232.58 123.343 213.92 122.743 208.1C122.383 206.9 122.083 205.7 121.783 204.44ZM161.37 236H144.33V235.4C150.57 235.4 149.85 228.8 149.85 216.02V196.46C149.91 185.48 150.09 179.84 144.33 179.84V179.24C148.23 179.24 152.61 177.44 155.91 175.1C155.91 175.1 155.85 184.76 155.85 196.28V216.02C155.85 228.8 155.13 235.4 161.37 235.4V236ZM162.553 196.64V196.04C166.453 196.04 170.833 194.24 174.133 191.9C174.133 191.9 174.073 203.24 174.073 216.02C174.073 228.8 173.353 235.4 179.593 235.4V236H162.553V235.4C168.793 235.4 168.073 228.8 168.073 216.02C168.073 203.24 168.793 196.64 162.553 196.64ZM170.653 190.28C167.653 190.28 165.193 187.82 165.193 184.76C165.193 181.76 167.653 179.3 170.653 179.3C173.713 179.3 176.173 181.76 176.173 184.76C176.173 187.82 173.713 190.28 170.653 190.28ZM180.176 194.6V192.8C184.076 192.8 190.316 185.18 191.936 180.08H192.536C192.536 180.08 192.476 185.36 192.476 192.8H202.016V194.6H192.476C192.476 196.7 192.476 198.92 192.476 201.26V226.94C192.476 230.24 193.436 234.92 196.856 234.92C199.736 234.92 202.016 233.24 203.396 231.02L203.996 231.44C202.856 233.48 199.376 236.9 195.476 236.9C188.336 236.9 186.476 231.62 186.476 225.74V194.6H180.176ZM205.279 257.6C199.519 257.6 194.539 253.4 194.539 247.64C194.539 240.68 201.499 236 208.459 236C211.519 236 216.259 236.9 219.259 236.9C219.799 236.9 220.279 236.9 220.759 236.84C219.079 235.94 217.579 233.12 216.019 228.74C214.819 225.32 213.259 220.28 211.999 216.56C208.219 205.28 205.399 193.4 199.159 193.4V192.8H218.359V193.4C215.359 193.4 213.499 195.14 213.499 198.08C213.499 200.9 215.599 207.74 217.699 214.58C220.519 223.82 223.279 233.18 225.319 233.18C226.279 233.18 227.419 232.34 227.419 228.08C227.419 218.48 225.739 213.44 225.739 204.02C225.739 198.62 228.199 191.9 233.899 191.9C240.319 191.9 243.379 200.3 243.379 207.44C243.379 232.04 223.399 257.6 205.279 257.6ZM199.819 246.8C199.819 251.6 204.619 254.48 209.359 254.48C225.019 254.48 238.339 231.2 238.339 210.74C238.339 204.02 237.079 197.54 232.459 197.54C228.559 197.54 227.959 202.88 227.959 206.9C227.959 216.62 228.739 223.16 228.739 229.04C228.739 230.24 228.499 232.22 227.539 233.9C227.179 234.68 225.319 238.1 219.439 238.1C215.119 238.1 213.559 237.86 209.539 237.86C203.719 237.86 199.819 241.64 199.819 246.8Z" fill="white"/>
<g filter="url(#filter0_diii_2644_1001)">
<path d="M260.885 211.647C285.189 214.118 281.912 219.059 285.735 242C288.192 214.824 289.831 214.824 309.492 210.235C289.831 210.235 286.008 203.882 284.642 182C284.642 211.647 276.45 208.118 260.885 211.647Z" fill="url(#paint0_linear_2644_1001)" shape-rendering="crispEdges"/>
</g>
<g filter="url(#filter1_diii_2644_1001)">
<path d="M260.885 192.892C269.239 193.736 268.113 195.425 269.427 203.266C270.272 193.978 270.835 193.978 277.594 192.41C270.835 192.41 269.521 190.238 269.051 182.76C269.051 192.892 266.235 191.686 260.885 192.892Z" fill="url(#paint1_linear_2644_1001)" shape-rendering="crispEdges"/>
</g>
<g filter="url(#filter2_diii_2644_1001)">
<path d="M256 228.946C265.494 229.946 264.214 231.948 265.707 241.24C266.667 230.232 267.307 230.232 274.987 228.374C267.307 228.374 265.814 225.8 265.28 216.937C265.28 228.946 262.08 227.516 256 228.946Z" fill="url(#paint2_linear_2644_1001)" shape-rendering="crispEdges"/>
</g>
<defs>
<filter id="filter0_diii_2644_1001" x="260.628" y="178.819" width="49.6597" height="63.952" filterUnits="userSpaceOnUse" color-interpolation-filters="sRGB">
<feFlood flood-opacity="0" result="BackgroundImageFix"/>
<feColorMatrix in="SourceAlpha" type="matrix" values="0 0 0 0 0 0 0 0 0 0 0 0 0 0 0 0 0 0 127 0" result="hardAlpha"/>
<feOffset dy="0.282716"/>
<feGaussianBlur stdDeviation="0.128507"/>
<feComposite in2="hardAlpha" operator="out"/>
<feColorMatrix type="matrix" values="0 0 0 0 0 0 0 0 0 0 0 0 0 0 0 0 0 0 1 0"/>
<feBlend mode="normal" in2="BackgroundImageFix" result="effect1_dropShadow_2644_1001"/>
<feBlend mode="normal" in="SourceGraphic" in2="effect1_dropShadow_2644_1001" result="shape"/>
<feColorMatrix in="SourceAlpha" type="matrix" values="0 0 0 0 0 0 0 0 0 0 0 0 0 0 0 0 0 0 127 0" result="hardAlpha"/>
<feOffset dx="0.795234" dy="-3.18094"/>
<feGaussianBlur stdDeviation="2.3857"/>
<feComposite in2="hardAlpha" operator="arithmetic" k2="-1" k3="1"/>
<feColorMatrix type="matrix" values="0 0 0 0 0 0 0 0 0 0 0 0 0 0 0 0 0 0 0.7 0"/>
<feBlend mode="normal" in2="shape" result="effect2_innerShadow_2644_1001"/>
<feColorMatrix in="SourceAlpha" type="matrix" values="0 0 0 0 0 0 0 0 0 0 0 0 0 0 0 0 0 0 127 0" result="hardAlpha"/>
<feOffset dy="0.771045"/>
<feGaussianBlur stdDeviation="0.51403"/>
<feComposite in2="hardAlpha" operator="arithmetic" k2="-1" k3="1"/>
<feColorMatrix type="matrix" values="0 0 0 0 1 0 0 0 0 1 0 0 0 0 1 0 0 0 1 0"/>
<feBlend mode="normal" in2="effect2_innerShadow_2644_1001" result="effect3_innerShadow_2644_1001"/>
<feColorMatrix in="SourceAlpha" type="matrix" values="0 0 0 0 0 0 0 0 0 0 0 0 0 0 0 0 0 0 127 0" result="hardAlpha"/>
<feOffset dy="-0.51403"/>
<feGaussianBlur stdDeviation="0.51403"/>
<feComposite in2="hardAlpha" operator="arithmetic" k2="-1" k3="1"/>
<feColorMatrix type="matrix" values="0 0 0 0 0 0 0 0 0 0 0 0 0 0 0 0 0 0 0.6 0"/>
<feBlend mode="normal" in2="effect3_innerShadow_2644_1001" result="effect4_innerShadow_2644_1001"/>
</filter>
<filter id="filter1_diii_2644_1001" x="260.794" y="181.64" width="17.0794" height="21.8976" filterUnits="userSpaceOnUse" color-interpolation-filters="sRGB">
<feFlood flood-opacity="0" result="BackgroundImageFix"/>
<feColorMatrix in="SourceAlpha" type="matrix" values="0 0 0 0 0 0 0 0 0 0 0 0 0 0 0 0 0 0 127 0" result="hardAlpha"/>
<feOffset dy="0.0995297"/>
<feGaussianBlur stdDeviation="0.0452408"/>
<feComposite in2="hardAlpha" operator="out"/>
<feColorMatrix type="matrix" values="0 0 0 0 0 0 0 0 0 0 0 0 0 0 0 0 0 0 1 0"/>
<feBlend mode="normal" in2="BackgroundImageFix" result="effect1_dropShadow_2644_1001"/>
<feBlend mode="normal" in="SourceGraphic" in2="effect1_dropShadow_2644_1001" result="shape"/>
<feColorMatrix in="SourceAlpha" type="matrix" values="0 0 0 0 0 0 0 0 0 0 0 0 0 0 0 0 0 0 127 0" result="hardAlpha"/>
<feOffset dx="0.27996" dy="-1.11984"/>
<feGaussianBlur stdDeviation="0.839881"/>
<feComposite in2="hardAlpha" operator="arithmetic" k2="-1" k3="1"/>
<feColorMatrix type="matrix" values="0 0 0 0 0 0 0 0 0 0 0 0 0 0 0 0 0 0 0.7 0"/>
<feBlend mode="normal" in2="shape" result="effect2_innerShadow_2644_1001"/>
<feColorMatrix in="SourceAlpha" type="matrix" values="0 0 0 0 0 0 0 0 0 0 0 0 0 0 0 0 0 0 127 0" result="hardAlpha"/>
<feOffset dy="0.271445"/>
<feGaussianBlur stdDeviation="0.180963"/>
<feComposite in2="hardAlpha" operator="arithmetic" k2="-1" k3="1"/>
<feColorMatrix type="matrix" values="0 0 0 0 1 0 0 0 0 1 0 0 0 0 1 0 0 0 1 0"/>
<feBlend mode="normal" in2="effect2_innerShadow_2644_1001" result="effect3_innerShadow_2644_1001"/>
<feColorMatrix in="SourceAlpha" type="matrix" values="0 0 0 0 0 0 0 0 0 0 0 0 0 0 0 0 0 0 127 0" result="hardAlpha"/>
<feOffset dy="-0.180963"/>
<feGaussianBlur stdDeviation="0.180963"/>
<feComposite in2="hardAlpha" operator="arithmetic" k2="-1" k3="1"/>
<feColorMatrix type="matrix" values="0 0 0 0 0 0 0 0 0 0 0 0 0 0 0 0 0 0 0.6 0"/>
<feBlend mode="normal" in2="effect3_innerShadow_2644_1001" result="effect4_innerShadow_2644_1001"/>
</filter>
<filter id="filter2_diii_2644_1001" x="255.897" y="215.668" width="19.4081" height="25.8804" filterUnits="userSpaceOnUse" color-interpolation-filters="sRGB">
<feFlood flood-opacity="0" result="BackgroundImageFix"/>
<feColorMatrix in="SourceAlpha" type="matrix" values="0 0 0 0 0 0 0 0 0 0 0 0 0 0 0 0 0 0 127 0" result="hardAlpha"/>
<feOffset dy="0.112789"/>
<feGaussianBlur stdDeviation="0.0512677"/>
<feComposite in2="hardAlpha" operator="out"/>
<feColorMatrix type="matrix" values="0 0 0 0 0 0 0 0 0 0 0 0 0 0 0 0 0 0 1 0"/>
<feBlend mode="normal" in2="BackgroundImageFix" result="effect1_dropShadow_2644_1001"/>
<feBlend mode="normal" in="SourceGraphic" in2="effect1_dropShadow_2644_1001" result="shape"/>
<feColorMatrix in="SourceAlpha" type="matrix" values="0 0 0 0 0 0 0 0 0 0 0 0 0 0 0 0 0 0 127 0" result="hardAlpha"/>
<feOffset dx="0.317257" dy="-1.26903"/>
<feGaussianBlur stdDeviation="0.95177"/>
<feComposite in2="hardAlpha" operator="arithmetic" k2="-1" k3="1"/>
<feColorMatrix type="matrix" values="0 0 0 0 0 0 0 0 0 0 0 0 0 0 0 0 0 0 0.7 0"/>
<feBlend mode="normal" in2="shape" result="effect2_innerShadow_2644_1001"/>
<feColorMatrix in="SourceAlpha" type="matrix" values="0 0 0 0 0 0 0 0 0 0 0 0 0 0 0 0 0 0 127 0" result="hardAlpha"/>
<feOffset dy="0.307606"/>
<feGaussianBlur stdDeviation="0.205071"/>
<feComposite in2="hardAlpha" operator="arithmetic" k2="-1" k3="1"/>
<feColorMatrix type="matrix" values="0 0 0 0 1 0 0 0 0 1 0 0 0 0 1 0 0 0 1 0"/>
<feBlend mode="normal" in2="effect2_innerShadow_2644_1001" result="effect3_innerShadow_2644_1001"/>
<feColorMatrix in="SourceAlpha" type="matrix" values="0 0 0 0 0 0 0 0 0 0 0 0 0 0 0 0 0 0 127 0" result="hardAlpha"/>
<feOffset dy="-0.205071"/>
<feGaussianBlur stdDeviation="0.205071"/>
<feComposite in2="hardAlpha" operator="arithmetic" k2="-1" k3="1"/>
<feColorMatrix type="matrix" values="0 0 0 0 0 0 0 0 0 0 0 0 0 0 0 0 0 0 0.6 0"/>
<feBlend mode="normal" in2="effect3_innerShadow_2644_1001" result="effect4_innerShadow_2644_1001"/>
</filter>
<linearGradient id="paint0_linear_2644_1001" x1="268.74" y1="218.74" x2="306.342" y2="213.839" gradientUnits="userSpaceOnUse">
<stop offset="0.0270689" stop-color="#A5A5A5"/>
<stop offset="0.224071" stop-color="white"/>
<stop offset="0.296145" stop-color="white"/>
<stop offset="0.354824" stop-color="white" stop-opacity="0.997259"/>
<stop offset="0.482774" stop-color="#919191"/>
<stop offset="0.581903" stop-color="#868585" stop-opacity="0.991462"/>
<stop offset="0.640882" stop-color="#8A8A8A" stop-opacity="0.992745"/>
<stop offset="0.738906" stop-color="white" stop-opacity="0.994876"/>
<stop offset="0.795685" stop-color="white" stop-opacity="0.996339"/>
<stop offset="1" stop-color="#626262"/>
</linearGradient>
<linearGradient id="paint1_linear_2644_1001" x1="263.585" y1="195.316" x2="276.508" y2="193.622" gradientUnits="userSpaceOnUse">
<stop offset="0.0270689" stop-color="#A5A5A5"/>
<stop offset="0.224071" stop-color="white"/>
<stop offset="0.296145" stop-color="white"/>
<stop offset="0.354824" stop-color="white" stop-opacity="0.997259"/>
<stop offset="0.482774" stop-color="#919191"/>
<stop offset="0.581903" stop-color="#868585" stop-opacity="0.991462"/>
<stop offset="0.640882" stop-color="#8A8A8A" stop-opacity="0.992745"/>
<stop offset="0.738906" stop-color="white" stop-opacity="0.994876"/>
<stop offset="0.795685" stop-color="white" stop-opacity="0.996339"/>
<stop offset="1" stop-color="#626262"/>
</linearGradient>
<linearGradient id="paint2_linear_2644_1001" x1="259.068" y1="231.819" x2="273.774" y2="229.97" gradientUnits="userSpaceOnUse">
<stop offset="0.0270689" stop-color="#A5A5A5"/>
<stop offset="0.224071" stop-color="white"/>
<stop offset="0.296145" stop-color="white"/>
<stop offset="0.354824" stop-color="white" stop-opacity="0.997259"/>
<stop offset="0.482774" stop-color="#919191"/>
<stop offset="0.581903" stop-color="#868585" stop-opacity="0.991462"/>
<stop offset="0.640882" stop-color="#8A8A8A" stop-opacity="0.992745"/>
<stop offset="0.738906" stop-color="white" stop-opacity="0.994876"/>
<stop offset="0.795685" stop-color="white" stop-opacity="0.996339"/>
<stop offset="1" stop-color="#626262"/>
</linearGradient>
</defs>
</svg>
