<svg width="576" height="220" viewBox="0 0 576 220" fill="none" xmlns="http://www.w3.org/2000/svg">
<path d="M0.75 1H20.9C32.45 1 38.2 6.4 38.2 14.4C38.2 23.15 30.2 28.2 21.6 28.3C30.95 30.5 37.95 40.5 39.35 51H33.65C32.45 40.2 25.25 28.1 14.95 28.3H10.35V34.35C10.35 45 9.75 50.5 14.95 50.5V51H0.75V50.5C5.95 50.5 5.35 45 5.35 34.35V17.65C5.35 7 5.95 1.5 0.75 1.5V1ZM10.35 27.4H17.8C26.65 27.4 33.15 22.15 33.15 14.4C33.15 7.25 27.55 2 19.2 2H10.35V27.4ZM59.7172 51.75C49.4172 51.75 40.8672 43.35 40.8672 33C40.8672 22.65 49.4172 14.25 59.7172 14.25C70.0172 14.25 74.2172 21.15 74.2172 25.4C74.2172 29.65 70.7172 30.55 67.6172 30.55H45.1172C45.1172 40.2 53.1672 47.6 62.3172 47.6C69.1672 47.6 74.4172 43.5 76.4172 38.5L76.9172 38.7C74.8672 46.25 67.9672 51.75 59.7172 51.75ZM45.1172 29.5C50.0672 29.4 53.1172 29.25 58.6172 29.25C63.7672 29.25 69.1172 29.05 69.1172 24.75C69.1172 19.35 64.4672 16 57.5672 16C50.1172 16 45.5172 21.35 45.1172 29.5ZM73.6816 15H89.6816V15.5C87.1816 15.5 85.6316 16.95 85.6316 19.4C85.6316 21.75 87.3316 27.4 88.9316 33.15C90.1316 37.45 91.2816 41.9 91.9316 44.2C92.9816 48.05 93.2816 48.9 93.8816 48.9C95.3816 48.9 98.6816 28.5 99.3816 24.05C97.5816 19.2 95.4316 15.5 92.3316 15.5V15H108.332V15.5C105.832 15.5 104.282 16.95 104.282 19.4C104.282 21.75 105.982 27.4 107.582 33.15C108.782 37.45 109.932 41.9 110.582 44.2C111.632 48.05 111.932 48.9 112.532 48.9C114.232 48.9 117.632 26.6 117.632 26.6C118.282 23.15 118.682 15.55 112.782 15.55V15H129.132V15.5C123.932 15.5 121.682 21.1 119.832 28.2C119.832 28.2 117.782 35.45 116.932 38.5C115.182 44.8 114.232 51.75 110.532 51.75C108.032 51.75 107.332 49.5 105.882 44.95C104.932 42 103.782 37.95 102.832 34.8C102.232 32.85 101.632 30.8 101.032 28.8C100.482 30.65 98.9816 36 98.2816 38.5C96.5316 44.8 95.5816 51.75 91.8816 51.75C89.3816 51.75 88.6816 49.5 87.2316 44.95C86.2816 42 85.1816 37.95 84.1816 34.8C81.4316 26 78.8816 15.5 73.6816 15.5V15ZM128.648 43.4C128.648 32.9 141.548 30.15 150.648 23.75C149.098 18.15 148.098 15.25 144.898 15.25C140.348 15.25 136.848 22.55 132.548 22.55C130.798 22.55 129.498 21.3 129.798 19.6C130.798 17.65 138.048 14.25 144.698 14.25C154.548 14.25 155.648 24.9 158.548 34C162.848 47.4 163.498 50.5 168.498 50.5V51H160.898C158.448 51 157.998 49.9 156.698 45.05C156.348 43.75 154.398 37 152.898 31.75C151.248 42.65 146.048 51.75 137.348 51.75C131.748 51.75 128.648 48 128.648 43.4ZM150.948 24.7C143.498 30.35 133.648 34.1 133.648 42.45C133.648 45.75 135.998 48.15 139.298 48.15C149.498 48.15 152.248 32.6 151.748 27.75C151.448 26.75 151.198 25.75 150.948 24.7ZM174.338 34.35C174.338 23.7 174.938 18.2 169.738 18.2V17.7C172.988 17.7 176.638 16.2 179.388 14.25C179.388 14.25 179.338 20.9 179.338 29.35C179.538 22.3 186.088 14.25 193.638 14.25C194.838 14.25 196.638 14.3 197.638 15C198.688 18 196.788 19.85 193.938 19.85C191.888 19.85 191.138 18.85 188.238 18.85C182.538 18.85 179.338 27.35 179.338 35.95C179.338 45 178.738 50.5 183.938 50.5V51H169.738V50.5C174.938 50.5 174.338 45 174.338 34.35ZM195.457 34.9C195.457 22.4 205.307 14.95 215.007 14.3C214.607 12.75 214.307 11.75 214.307 11.75C212.507 6.25 212.307 3.45 209.157 3.45C207.957 3.45 207.057 3.7 205.707 4.05V3.55C209.157 2.35 212.907 0.249995 214.557 0.249995C216.707 0.249995 216.957 2.4 217.807 5.25C217.807 5.25 221.657 20.4 224.157 29.25C226.657 38.1 228.907 50.5 234.507 50.5V51H228.007C225.357 51 224.007 48.45 222.857 44.6C220.257 48.6 215.957 51.75 210.407 51.75C199.657 51.75 195.457 43.95 195.457 34.9ZM215.307 15.3C205.707 15.85 200.057 24.65 200.057 33.4C200.057 41.4 203.707 50.05 212.007 50.05C216.757 50.05 220.257 46.9 222.507 43.35C222.107 41.8 221.707 40.15 221.307 38.35C219.507 30.6 217.457 22.95 215.307 15.3ZM253.234 17.7C256.484 17.7 260.134 16.2 262.884 14.25C262.884 14.25 262.834 23.7 262.834 33.35V41.9C262.834 46.9 265.084 49 268.184 49C273.684 49 281.334 42.2 281.634 33.05C281.634 32.05 281.634 31.1 281.634 30.1C281.634 23.95 281.984 18.2 277.034 18.2V17.7C280.284 17.7 283.934 16.2 286.684 14.25C286.684 14.25 286.634 22 286.634 31.65C286.634 42.3 286.034 47.8 291.234 47.8V48.3C287.984 48.3 284.334 49.8 281.584 51.75C281.584 51.75 281.584 46.4 281.634 38.55C279.484 44.5 274.184 51.75 267.184 51.75C257.034 51.75 257.784 41.75 257.784 41.75C257.784 41.75 257.834 38.55 257.834 34.35C257.834 23.7 258.434 18.2 253.234 18.2V17.7ZM320.898 42.85C320.898 32.55 293.748 37.7 293.748 24.5C293.748 17.5 302.298 14.25 309.398 14.25C314.948 14.25 319.148 15.55 322.998 18.55C323.348 20.55 321.848 22.15 319.798 22.15C315.398 22.15 314.348 15.55 306.498 15.55C302.848 15.55 297.748 17.8 297.748 22.35C297.748 33.3 324.498 26.5 324.498 41.75C324.498 48.75 316.648 51.75 309.648 51.75C303.148 51.75 299.798 50.4 294.848 47.05V36.75H295.348C296.798 44.3 302.498 50.65 310.448 50.65C315.548 50.65 320.898 47.95 320.898 42.85ZM347.364 51.75C337.064 51.75 328.514 43.35 328.514 33C328.514 22.65 337.064 14.25 347.364 14.25C357.664 14.25 361.864 21.15 361.864 25.4C361.864 29.65 358.364 30.55 355.264 30.55H332.764C332.764 40.2 340.814 47.6 349.964 47.6C356.814 47.6 362.064 43.5 364.064 38.5L364.564 38.7C362.514 46.25 355.614 51.75 347.364 51.75ZM332.764 29.5C337.714 29.4 340.764 29.25 346.264 29.25C351.414 29.25 356.764 29.05 356.764 24.75C356.764 19.35 352.114 16 345.214 16C337.764 16 333.164 21.35 332.764 29.5ZM366.868 34.35C366.868 23.7 367.468 18.2 362.268 18.2V17.7C365.518 17.7 369.168 16.2 371.918 14.25C371.918 14.25 371.868 20.9 371.868 29.35C372.068 22.3 378.618 14.25 386.168 14.25C387.368 14.25 389.168 14.3 390.168 15C391.218 18 389.318 19.85 386.468 19.85C384.418 19.85 383.668 18.85 380.768 18.85C375.068 18.85 371.868 27.35 371.868 35.95C371.868 45 371.268 50.5 376.468 50.5V51H362.268V50.5C367.468 50.5 366.868 45 366.868 34.35ZM420.117 42.85C420.117 32.55 392.967 37.7 392.967 24.5C392.967 17.5 401.517 14.25 408.617 14.25C414.167 14.25 418.367 15.55 422.217 18.55C422.567 20.55 421.067 22.15 419.017 22.15C414.617 22.15 413.567 15.55 405.717 15.55C402.067 15.55 396.967 17.8 396.967 22.35C396.967 33.3 423.717 26.5 423.717 41.75C423.717 48.75 415.867 51.75 408.867 51.75C402.367 51.75 399.017 50.4 394.067 47.05V36.75H394.567C396.017 44.3 401.717 50.65 409.667 50.65C414.767 50.65 420.117 47.95 420.117 42.85ZM443.213 15H459.213V15.5C456.713 15.5 455.163 16.95 455.163 19.4C455.163 21.75 456.863 27.4 458.463 33.15C459.663 37.45 460.813 41.9 461.463 44.2C462.513 48.05 462.813 48.9 463.413 48.9C464.913 48.9 468.213 28.5 468.913 24.05C467.113 19.2 464.963 15.5 461.863 15.5V15H477.863V15.5C475.363 15.5 473.813 16.95 473.813 19.4C473.813 21.75 475.513 27.4 477.113 33.15C478.313 37.45 479.463 41.9 480.113 44.2C481.163 48.05 481.463 48.9 482.063 48.9C483.763 48.9 487.163 26.6 487.163 26.6C487.813 23.15 488.213 15.55 482.313 15.55V15H498.663V15.5C493.463 15.5 491.213 21.1 489.363 28.2C489.363 28.2 487.313 35.45 486.463 38.5C484.713 44.8 483.763 51.75 480.063 51.75C477.563 51.75 476.863 49.5 475.413 44.95C474.463 42 473.313 37.95 472.363 34.8C471.763 32.85 471.163 30.8 470.563 28.8C470.013 30.65 468.513 36 467.813 38.5C466.063 44.8 465.113 51.75 461.413 51.75C458.913 51.75 458.213 49.5 456.763 44.95C455.813 42 454.713 37.95 453.713 34.8C450.963 26 448.413 15.5 443.213 15.5V15ZM499.182 18.2V17.7C502.432 17.7 506.082 16.2 508.832 14.25C508.832 14.25 508.782 23.7 508.782 34.35C508.782 45 508.182 50.5 513.382 50.5V51H499.182V50.5C504.382 50.5 503.782 45 503.782 34.35C503.782 23.7 504.382 18.2 499.182 18.2ZM505.932 12.9C503.432 12.9 501.382 10.85 501.382 8.3C501.382 5.8 503.432 3.75 505.932 3.75C508.482 3.75 510.532 5.8 510.532 8.3C510.532 10.85 508.482 12.9 505.932 12.9ZM513.867 16.5V15C517.117 15 522.317 8.65 523.667 4.4H524.167C524.167 4.4 524.117 8.8 524.117 15H532.067V16.5H524.117C524.117 18.25 524.117 20.1 524.117 22.05V43.45C524.117 46.2 524.917 50.1 527.767 50.1C530.167 50.1 532.067 48.7 533.217 46.85L533.717 47.2C532.767 48.9 529.867 51.75 526.617 51.75C520.667 51.75 519.117 47.35 519.117 42.45V16.5H513.867ZM534.24 50.5C539.44 50.5 538.84 45 538.84 34.35V18.05C538.89 8.9 539.04 4.2 534.24 4.2V3.7C537.49 3.7 541.14 2.2 543.89 0.249995C543.89 0.249995 543.84 8.3 543.84 17.9V27.8C545.84 21.8 550.34 14.25 556.34 14.25C562.04 14.25 563.39 23.15 565.14 29.25C567.69 38.1 569.89 50.5 575.49 50.5V51H568.99C565.04 51 563.94 45.4 562.29 38.35C561.59 35.35 560.64 31.4 559.89 28.4C558.34 22.2 556.69 17.75 553.79 17.75C548.74 17.75 543.84 27.65 543.84 33.5V34.35C543.84 45 543.24 50.5 548.44 50.5V51H534.24V50.5ZM0 91.5V90C3.25 90 8.45 83.65 9.8 79.4H10.3C10.3 79.4 10.25 83.8 10.25 90H18.2V91.5H10.25C10.25 93.25 10.25 95.1 10.25 97.05V118.45C10.25 121.2 11.05 125.1 13.9 125.1C16.3 125.1 18.2 123.7 19.35 121.85L19.85 122.2C18.9 123.9 16 126.75 12.75 126.75C6.8 126.75 5.25 122.35 5.25 117.45V91.5H0ZM17.8691 108C17.8691 97.65 26.4191 89.25 36.7191 89.25C47.0191 89.25 55.5691 97.65 55.5691 108C55.5691 118.35 47.0191 126.75 36.7191 126.75C26.4191 126.75 17.8691 118.35 17.8691 108ZM32.5691 92.25C25.7691 92.25 20.1691 97.2 20.8691 105.55C21.2691 114.5 30.9191 123.75 40.9191 123.75C47.7191 123.75 53.2691 118.8 52.5691 110.45C52.2191 101.5 42.5691 92.25 32.5691 92.25ZM62.6684 93.05C62.7184 83.9 62.8684 79.2 58.0684 79.2V78.7C61.3184 78.7 64.9684 77.2 67.7184 75.25C67.7184 75.25 67.6684 83.3 67.6684 92.9V107.1C73.0184 102.65 81.5684 95.5 81.5684 91.9C81.5684 91.4 81.5184 90.65 80.6184 90H90.7184V90.3C88.3684 90.3 80.4684 97.55 73.2184 103.8C80.4184 104.5 83.3684 110.9 85.5684 117.35C87.1684 122 89.2184 125.5 92.2184 125.5V126H85.7184C82.3184 126 81.8184 121.4 79.1184 114.5C76.9684 109.05 73.9184 107.45 70.9184 107.45C70.0684 107.45 69.2184 107.6 68.4184 107.8C68.1684 108 67.9184 108.2 67.6684 108.4V109.35C67.6684 120 67.0684 125.5 72.2684 125.5V126H58.0684V125.5C63.2684 125.5 62.6684 120 62.6684 109.35V93.05ZM109.082 126.75C98.7824 126.75 90.2324 118.35 90.2324 108C90.2324 97.65 98.7824 89.25 109.082 89.25C119.382 89.25 123.582 96.15 123.582 100.4C123.582 104.65 120.082 105.55 116.982 105.55H94.4824C94.4824 115.2 102.532 122.6 111.682 122.6C118.532 122.6 123.782 118.5 125.782 113.5L126.282 113.7C124.232 121.25 117.332 126.75 109.082 126.75ZM94.4824 104.5C99.4324 104.4 102.482 104.25 107.982 104.25C113.132 104.25 118.482 104.05 118.482 99.75C118.482 94.35 113.832 91 106.932 91C99.4824 91 94.8824 96.35 94.4824 104.5ZM132.151 109.35C132.151 98.7 132.751 93.2 127.551 93.2V92.7C130.801 92.7 134.451 91.2 137.201 89.25C137.201 89.25 137.151 95.1 137.151 102.8C139.151 96.8 143.651 89.25 149.651 89.25C155.351 89.25 156.701 98.15 158.451 104.25C161.001 113.1 163.201 125.5 168.801 125.5V126H162.301C158.351 126 157.251 120.4 155.601 113.35C154.901 110.35 153.951 106.4 153.201 103.4C151.651 97.2 150.001 92.75 147.101 92.75C142.051 92.75 137.201 102.6 137.151 108.45V109.35C137.151 120 136.551 125.5 141.751 125.5V126H127.551V125.5C132.751 125.5 132.151 120 132.151 109.35ZM196.435 117.85C196.435 107.55 169.285 112.7 169.285 99.5C169.285 92.5 177.835 89.25 184.935 89.25C190.485 89.25 194.685 90.55 198.535 93.55C198.885 95.55 197.385 97.15 195.335 97.15C190.935 97.15 189.885 90.55 182.035 90.55C178.385 90.55 173.285 92.8 173.285 97.35C173.285 108.3 200.035 101.5 200.035 116.75C200.035 123.75 192.185 126.75 185.185 126.75C178.685 126.75 175.335 125.4 170.385 122.05V111.75H170.885C172.335 119.3 178.035 125.65 185.985 125.65C191.085 125.65 196.435 122.95 196.435 117.85ZM219.531 91.5V90C222.781 90 227.981 83.65 229.331 79.4H229.831C229.831 79.4 229.781 83.8 229.781 90H237.731V91.5H229.781C229.781 93.25 229.781 95.1 229.781 97.05V118.45C229.781 121.2 230.581 125.1 233.431 125.1C235.831 125.1 237.731 123.7 238.881 121.85L239.381 122.2C238.431 123.9 235.531 126.75 232.281 126.75C226.331 126.75 224.781 122.35 224.781 117.45V91.5H219.531ZM239.904 125.5C245.104 125.5 244.504 120 244.504 109.35V93.05C244.554 83.9 244.704 79.2 239.904 79.2V78.7C243.154 78.7 246.804 77.2 249.554 75.25C249.554 75.25 249.504 83.3 249.504 92.9V102.8C251.504 96.8 256.004 89.25 262.004 89.25C267.704 89.25 269.054 98.15 270.804 104.25C273.354 113.1 275.554 125.5 281.154 125.5V126H274.654C270.704 126 269.604 120.4 267.954 113.35C267.254 110.35 266.304 106.4 265.554 103.4C264.004 97.2 262.354 92.75 259.454 92.75C254.404 92.75 249.504 102.65 249.504 108.5V109.35C249.504 120 248.904 125.5 254.104 125.5V126H239.904V125.5ZM282.164 118.4C282.164 107.9 295.064 105.15 304.164 98.75C302.614 93.15 301.614 90.25 298.414 90.25C293.864 90.25 290.364 97.55 286.064 97.55C284.314 97.55 283.014 96.3 283.314 94.6C284.314 92.65 291.564 89.25 298.214 89.25C308.064 89.25 309.164 99.9 312.064 109C316.364 122.4 317.014 125.5 322.014 125.5V126H314.414C311.964 126 311.514 124.9 310.214 120.05C309.864 118.75 307.914 112 306.414 106.75C304.764 117.65 299.564 126.75 290.864 126.75C285.264 126.75 282.164 123 282.164 118.4ZM304.464 99.7C297.014 105.35 287.164 109.1 287.164 117.45C287.164 120.75 289.514 123.15 292.814 123.15C303.014 123.15 305.764 107.6 305.264 102.75C304.964 101.75 304.714 100.75 304.464 99.7ZM318.262 91.5V90C321.512 90 326.712 83.65 328.062 79.4H328.562C328.562 79.4 328.512 83.8 328.512 90H336.462V91.5H328.512C328.512 93.25 328.512 95.1 328.512 97.05V118.45C328.512 121.2 329.312 125.1 332.162 125.1C334.562 125.1 336.462 123.7 337.612 121.85L338.112 122.2C337.162 123.9 334.262 126.75 331.012 126.75C325.062 126.75 323.512 122.35 323.512 117.45V91.5H318.262ZM356.115 92.7C359.365 92.7 363.015 91.2 365.765 89.25C365.765 89.25 365.715 98.7 365.715 108.35V116.9C365.715 121.9 367.965 124 371.065 124C376.565 124 384.215 117.2 384.515 108.05C384.515 107.05 384.515 106.1 384.515 105.1C384.515 98.95 384.865 93.2 379.915 93.2V92.7C383.165 92.7 386.815 91.2 389.565 89.25C389.565 89.25 389.515 97 389.515 106.65C389.515 117.3 388.915 122.8 394.115 122.8V123.3C390.865 123.3 387.215 124.8 384.465 126.75C384.465 126.75 384.465 121.4 384.515 113.55C382.365 119.5 377.065 126.75 370.065 126.75C359.915 126.75 360.665 116.75 360.665 116.75C360.665 116.75 360.715 113.55 360.715 109.35C360.715 98.7 361.315 93.2 356.115 93.2V92.7ZM399.729 109.35C399.729 98.7 400.329 93.2 395.129 93.2V92.7C398.379 92.7 402.029 91.2 404.779 89.25C404.779 89.25 404.729 95.1 404.729 102.8C406.729 96.8 411.229 89.25 417.229 89.25C422.929 89.25 424.279 98.15 426.029 104.25C428.579 113.1 430.779 125.5 436.379 125.5V126H429.879C425.929 126 424.829 120.4 423.179 113.35C422.479 110.35 421.529 106.4 420.779 103.4C419.229 97.2 417.579 92.75 414.679 92.75C409.629 92.75 404.779 102.6 404.729 108.45V109.35C404.729 120 404.129 125.5 409.329 125.5V126H395.129V125.5C400.329 125.5 399.729 120 399.729 109.35ZM451.565 126H437.365V125.5C442.565 125.5 441.965 120 441.965 109.35V93.05C442.015 83.9 442.165 79.2 437.365 79.2V78.7C440.615 78.7 444.265 77.2 447.015 75.25C447.015 75.25 446.965 83.3 446.965 92.9V109.35C446.965 120 446.365 125.5 451.565 125.5V126ZM454.051 108C454.051 97.65 462.601 89.25 472.901 89.25C483.201 89.25 491.751 97.65 491.751 108C491.751 118.35 483.201 126.75 472.901 126.75C462.601 126.75 454.051 118.35 454.051 108ZM468.751 92.25C461.951 92.25 456.351 97.2 457.051 105.55C457.451 114.5 467.101 123.75 477.101 123.75C483.901 123.75 489.451 118.8 488.751 110.45C488.401 101.5 478.751 92.25 468.751 92.25ZM495.75 108C495.75 97.65 504.3 89.25 514.6 89.25C523.5 89.25 529.35 94.5 531.05 98.5C531.05 98.5 530.5 100.65 528.15 100.65C523.7 100.65 522.2 91.15 512.45 91C504.7 91 500 96.8 500 105.55C500 115.2 508.05 122.6 517.2 122.6C524.05 122.6 529.3 118.5 531.3 113.5L531.8 113.7C529.75 121.25 522.85 126.75 514.6 126.75C504.3 126.75 495.75 118.35 495.75 108ZM537.668 93.05C537.718 83.9 537.868 79.2 533.068 79.2V78.7C536.318 78.7 539.968 77.2 542.718 75.25C542.718 75.25 542.668 83.3 542.668 92.9V107.1C548.018 102.65 556.568 95.5 556.568 91.9C556.568 91.4 556.518 90.65 555.618 90H565.718V90.3C563.368 90.3 555.468 97.55 548.218 103.8C555.418 104.5 558.368 110.9 560.568 117.35C562.168 122 564.218 125.5 567.218 125.5V126H560.718C557.318 126 556.818 121.4 554.118 114.5C551.968 109.05 548.918 107.45 545.918 107.45C545.068 107.45 544.218 107.6 543.418 107.8C543.168 108 542.918 108.2 542.668 108.4V109.35C542.668 120 542.068 125.5 547.268 125.5V126H533.068V125.5C538.268 125.5 537.668 120 537.668 109.35V93.05ZM5.1 184.35C5.1 173.7 5.7 168.2 0.5 168.2V167.7C3.75 167.7 7.4 166.2 10.15 164.25C10.15 164.25 10.1 170.1 10.1 177.8C12.1 171.8 16.6 164.25 22.6 164.25C28.35 164.25 29.4 173.25 31.4 179.25C31.5 179.55 31.6 179.9 31.65 180.2C33.15 174.05 38 164.25 44.85 164.25C50.6 164.25 51.9 173.15 53.65 179.25C56.2 188.1 58.4 200.5 64 200.5V201H57.5C53.55 201 52.45 195.4 50.8 188.35C50.1 185.35 49.15 181.4 48.4 178.4C46.85 172.2 45.2 167.75 42.3 167.75C37.45 167.75 32.7 176.95 32.35 182.85C34.55 191.1 36.9 200.5 41.75 200.5V201H35.25C31.3 201 30.2 195.4 28.55 188.35C27.85 185.35 26.9 181.4 26.15 178.4C24.6 172.2 22.95 167.75 20.05 167.75C15.05 167.75 10.15 177.6 10.1 183.45V184.35C10.15 195 9.5 200.5 14.7 200.5V201H0.5V200.5C5.7 200.5 5.1 195 5.1 184.35ZM62.498 183C62.498 172.65 71.048 164.25 81.348 164.25C91.648 164.25 100.198 172.65 100.198 183C100.198 193.35 91.648 201.75 81.348 201.75C71.048 201.75 62.498 193.35 62.498 183ZM77.198 167.25C70.398 167.25 64.798 172.2 65.498 180.55C65.898 189.5 75.548 198.75 85.548 198.75C92.348 198.75 97.898 193.8 97.198 185.45C96.848 176.5 87.198 167.25 77.198 167.25ZM107.297 184.35C107.297 173.7 107.897 168.2 102.697 168.2V167.7C105.947 167.7 109.597 166.2 112.347 164.25C112.347 164.25 112.297 170.9 112.297 179.35C112.497 172.3 119.047 164.25 126.597 164.25C127.797 164.25 129.597 164.3 130.597 165C131.647 168 129.747 169.85 126.897 169.85C124.847 169.85 124.097 168.85 121.197 168.85C115.497 168.85 112.297 177.35 112.297 185.95C112.297 195 111.697 200.5 116.897 200.5V201H102.697V200.5C107.897 200.5 107.297 195 107.297 184.35ZM148.243 201.75C137.943 201.75 129.393 193.35 129.393 183C129.393 172.65 137.943 164.25 148.243 164.25C158.543 164.25 162.743 171.15 162.743 175.4C162.743 179.65 159.243 180.55 156.143 180.55H133.643C133.643 190.2 141.693 197.6 150.843 197.6C157.693 197.6 162.943 193.5 164.943 188.5L165.443 188.7C163.393 196.25 156.493 201.75 148.243 201.75ZM133.643 179.5C138.593 179.4 141.643 179.25 147.143 179.25C152.293 179.25 157.643 179.05 157.643 174.75C157.643 169.35 152.993 166 146.093 166C138.643 166 134.043 171.35 133.643 179.5ZM204.541 201.75C194.241 201.75 185.691 193.35 185.691 183C185.691 172.65 194.241 164.25 204.541 164.25C214.841 164.25 219.041 171.15 219.041 175.4C219.041 179.65 215.541 180.55 212.441 180.55H189.941C189.941 190.2 197.991 197.6 207.141 197.6C213.991 197.6 219.241 193.5 221.241 188.5L221.741 188.7C219.691 196.25 212.791 201.75 204.541 201.75ZM189.941 179.5C194.891 179.4 197.941 179.25 203.441 179.25C208.591 179.25 213.941 179.05 213.941 174.75C213.941 169.35 209.291 166 202.391 166C194.941 166 190.341 171.35 189.941 179.5ZM234.606 183.35C229.306 175.1 223.606 165.5 218.506 165.5V165H233.606V165.5C232.356 165.5 231.406 166.05 231.356 167.5C231.256 169.95 236.356 176.85 239.656 181.8C242.706 177.05 246.256 171.35 246.256 168.45C246.256 165.95 244.456 165.5 243.206 165.5V165H255.956V165.5C250.956 165.5 245.456 174.6 240.256 182.75C245.556 190.95 251.206 200.5 256.306 200.5V201H241.206V200.5C242.456 200.5 243.406 199.9 243.456 198.45C243.556 196.05 238.506 189.2 235.206 184.3C232.156 189 228.656 194.7 228.656 197.55C228.656 200.05 230.456 200.5 231.706 200.5V201H218.956V200.5C223.906 200.5 229.406 191.45 234.606 183.35ZM261.399 182.05C261.399 173.1 261.599 168.2 256.799 168.2V167.7C260.049 167.7 263.699 166.2 266.449 164.25C266.449 164.25 266.449 167.1 266.399 171.5C269.049 167.3 273.299 164.25 278.749 164.25C288.599 164.25 294.199 171.75 294.199 181.25C294.199 192 285.199 201.75 273.549 201.75C270.649 201.75 268.799 201.4 266.399 200.05V202.45C266.399 213.1 265.799 218.6 270.999 218.6V219.1H256.799V218.6C261.999 218.6 261.399 213.1 261.399 202.45V182.05ZM266.399 174.25C266.399 176.55 266.399 179.15 266.399 181.9V196.7C268.249 198.7 271.149 200.65 274.099 200.65C283.549 200.65 289.149 191.4 289.149 182.05C289.149 173.45 285.349 165.95 277.399 165.75C272.049 165.6 268.449 169.45 266.399 174.25ZM317.041 201.75C306.741 201.75 298.191 193.35 298.191 183C298.191 172.65 306.741 164.25 317.041 164.25C327.341 164.25 331.541 171.15 331.541 175.4C331.541 179.65 328.041 180.55 324.941 180.55H302.441C302.441 190.2 310.491 197.6 319.641 197.6C326.491 197.6 331.741 193.5 333.741 188.5L334.241 188.7C332.191 196.25 325.291 201.75 317.041 201.75ZM302.441 179.5C307.391 179.4 310.441 179.25 315.941 179.25C321.091 179.25 326.441 179.05 326.441 174.75C326.441 169.35 321.791 166 314.891 166C307.441 166 302.841 171.35 302.441 179.5ZM336.545 184.35C336.545 173.7 337.145 168.2 331.945 168.2V167.7C335.195 167.7 338.845 166.2 341.595 164.25C341.595 164.25 341.545 170.9 341.545 179.35C341.745 172.3 348.295 164.25 355.845 164.25C357.045 164.25 358.845 164.3 359.845 165C360.895 168 358.995 169.85 356.145 169.85C354.095 169.85 353.345 168.85 350.445 168.85C344.745 168.85 341.545 177.35 341.545 185.95C341.545 195 340.945 200.5 346.145 200.5V201H331.945V200.5C337.145 200.5 336.545 195 336.545 184.35ZM361.145 168.2V167.7C364.395 167.7 368.045 166.2 370.795 164.25C370.795 164.25 370.745 173.7 370.745 184.35C370.745 195 370.145 200.5 375.345 200.5V201H361.145V200.5C366.345 200.5 365.745 195 365.745 184.35C365.745 173.7 366.345 168.2 361.145 168.2ZM367.895 162.9C365.395 162.9 363.345 160.85 363.345 158.3C363.345 155.8 365.395 153.75 367.895 153.75C370.445 153.75 372.495 155.8 372.495 158.3C372.495 160.85 370.445 162.9 367.895 162.9ZM396.68 201.75C386.38 201.75 377.83 193.35 377.83 183C377.83 172.65 386.38 164.25 396.68 164.25C406.98 164.25 411.18 171.15 411.18 175.4C411.18 179.65 407.68 180.55 404.58 180.55H382.08C382.08 190.2 390.13 197.6 399.28 197.6C406.13 197.6 411.38 193.5 413.38 188.5L413.88 188.7C411.83 196.25 404.93 201.75 396.68 201.75ZM382.08 179.5C387.03 179.4 390.08 179.25 395.58 179.25C400.73 179.25 406.08 179.05 406.08 174.75C406.08 169.35 401.43 166 394.53 166C387.08 166 382.48 171.35 382.08 179.5ZM419.748 184.35C419.748 173.7 420.348 168.2 415.148 168.2V167.7C418.398 167.7 422.048 166.2 424.798 164.25C424.798 164.25 424.748 170.1 424.748 177.8C426.748 171.8 431.248 164.25 437.248 164.25C442.948 164.25 444.298 173.15 446.048 179.25C448.598 188.1 450.798 200.5 456.398 200.5V201H449.898C445.948 201 444.848 195.4 443.198 188.35C442.498 185.35 441.548 181.4 440.798 178.4C439.248 172.2 437.598 167.75 434.698 167.75C429.648 167.75 424.798 177.6 424.748 183.45V184.35C424.748 195 424.148 200.5 429.348 200.5V201H415.148V200.5C420.348 200.5 419.748 195 419.748 184.35ZM454.881 183C454.881 172.65 463.431 164.25 473.731 164.25C482.631 164.25 488.481 169.5 490.181 173.5C490.181 173.5 489.631 175.65 487.281 175.65C482.831 175.65 481.331 166.15 471.581 166C463.831 166 459.131 171.8 459.131 180.55C459.131 190.2 467.181 197.6 476.331 197.6C483.181 197.6 488.431 193.5 490.431 188.5L490.931 188.7C488.881 196.25 481.981 201.75 473.731 201.75C463.431 201.75 454.881 193.35 454.881 183ZM512.549 201.75C502.249 201.75 493.699 193.35 493.699 183C493.699 172.65 502.249 164.25 512.549 164.25C522.849 164.25 527.049 171.15 527.049 175.4C527.049 179.65 523.549 180.55 520.449 180.55H497.949C497.949 190.2 505.999 197.6 515.149 197.6C521.999 197.6 527.249 193.5 529.249 188.5L529.749 188.7C527.699 196.25 520.799 201.75 512.549 201.75ZM497.949 179.5C502.899 179.4 505.949 179.25 511.449 179.25C516.599 179.25 521.949 179.05 521.949 174.75C521.949 169.35 517.299 166 510.399 166C502.949 166 498.349 171.35 497.949 179.5ZM559.668 192.85C559.668 182.55 532.518 187.7 532.518 174.5C532.518 167.5 541.068 164.25 548.168 164.25C553.718 164.25 557.918 165.55 561.768 168.55C562.118 170.55 560.618 172.15 558.568 172.15C554.168 172.15 553.118 165.55 545.268 165.55C541.618 165.55 536.518 167.8 536.518 172.35C536.518 183.3 563.268 176.5 563.268 191.75C563.268 198.75 555.418 201.75 548.418 201.75C541.918 201.75 538.568 200.4 533.618 197.05V186.75H534.118C535.568 194.3 541.268 200.65 549.218 200.65C554.318 200.65 559.668 197.95 559.668 192.85Z" fill="white"/>
</svg>
