<svg width="275" height="124" viewBox="0 0 275 124" fill="none" xmlns="http://www.w3.org/2000/svg">
<path d="M21.993 7.72L23.583 1H45.003L46.593 7.72H46.443C44.673 4.6 41.853 1.6 36.873 1.6H35.793V21.01C35.793 27.4 35.433 30.7 38.553 30.7V31H30.033V30.7C33.153 30.7 32.793 27.4 32.793 21.01V1.6H31.713C26.733 1.6 23.913 4.6 22.143 7.72H21.993ZM47.3313 30.7C50.4513 30.7 50.0913 27.4 50.0913 21.01V11.23C50.1213 5.74 50.2113 2.92 47.3313 2.92V2.62C49.2813 2.62 51.4713 1.72 53.1213 0.549997C53.1213 0.549997 53.0913 5.38 53.0913 11.14V17.08C54.2913 13.48 56.9913 8.95 60.5913 8.95C64.0113 8.95 64.8213 14.29 65.8713 17.95C67.4013 23.26 68.7213 30.7 72.0813 30.7V31H68.1813C65.8113 31 65.1513 27.64 64.1613 23.41C63.7413 21.61 63.1713 19.24 62.7213 17.44C61.7913 13.72 60.8013 11.05 59.0613 11.05C56.0313 11.05 53.0913 16.99 53.0913 20.5V21.01C53.0913 27.4 52.7313 30.7 55.8512 30.7V31H47.3313V30.7ZM82.4807 31.45C76.3007 31.45 71.1707 26.41 71.1707 20.2C71.1707 13.99 76.3007 8.95 82.4807 8.95C88.6607 8.95 91.1807 13.09 91.1807 15.64C91.1807 18.19 89.0807 18.73 87.2207 18.73H73.7207C73.7207 24.52 78.5507 28.96 84.0407 28.96C88.1507 28.96 91.3007 26.5 92.5007 23.5L92.8007 23.62C91.5707 28.15 87.4307 31.45 82.4807 31.45ZM73.7207 18.1C76.6907 18.04 78.5207 17.95 81.8207 17.95C84.9107 17.95 88.1207 17.83 88.1207 15.25C88.1207 12.01 85.3307 10 81.1907 10C76.7207 10 73.9607 13.21 73.7207 18.1ZM104.2 1.3V1H123.31L124.93 6.76H124.78C122.59 3.64 117.88 1.6 112.42 1.6H109.96V15.4H122.83L123.52 18.22C121.06 17.11 118.03 16 111.94 16H109.96V21.01C109.96 27.4 109.6 30.7 112.72 30.7V31H104.2V30.7C107.32 30.7 106.96 27.4 106.96 21.01V10.99C106.96 4.6 107.32 1.3 104.2 1.3ZM124.923 26.44C124.923 20.14 132.663 18.49 138.123 14.65C137.193 11.29 136.593 9.55 134.673 9.55C131.943 9.55 129.843 13.93 127.263 13.93C126.213 13.93 125.433 13.18 125.613 12.16C126.213 10.99 130.563 8.95 134.553 8.95C140.463 8.95 141.123 15.34 142.863 20.8C145.443 28.84 145.833 30.7 148.833 30.7V31H144.273C142.803 31 142.533 30.34 141.753 27.43C141.543 26.65 140.373 22.6 139.473 19.45C138.483 25.99 135.363 31.45 130.143 31.45C126.783 31.45 124.923 29.2 124.923 26.44ZM138.303 15.22C133.833 18.61 127.923 20.86 127.923 25.87C127.923 27.85 129.333 29.29 131.313 29.29C137.433 29.29 139.083 19.96 138.783 17.05C138.603 16.45 138.453 15.85 138.303 15.22ZM165.273 26.11C165.273 19.93 148.983 23.02 148.983 15.1C148.983 10.9 154.113 8.95 158.373 8.95C161.703 8.95 164.223 9.73 166.533 11.53C166.743 12.73 165.843 13.69 164.613 13.69C161.973 13.69 161.343 9.73 156.633 9.73C154.443 9.73 151.383 11.08 151.383 13.81C151.383 20.38 167.433 16.3 167.433 25.45C167.433 29.65 162.723 31.45 158.523 31.45C154.623 31.45 152.613 30.64 149.643 28.63V22.45H149.943C150.813 26.98 154.233 30.79 159.003 30.79C162.063 30.79 165.273 29.17 165.273 26.11ZM168.943 30.7C172.063 30.7 171.703 27.4 171.703 21.01V11.23C171.733 5.74 171.823 2.92 168.943 2.92V2.62C170.893 2.62 173.083 1.72 174.733 0.549997C174.733 0.549997 174.703 5.38 174.703 11.14V17.08C175.903 13.48 178.603 8.95 182.203 8.95C185.623 8.95 186.433 14.29 187.483 17.95C189.013 23.26 190.333 30.7 193.693 30.7V31H189.793C187.423 31 186.763 27.64 185.773 23.41C185.353 21.61 184.783 19.24 184.333 17.44C183.403 13.72 182.413 11.05 180.673 11.05C177.643 11.05 174.703 16.99 174.703 20.5V21.01C174.703 27.4 174.343 30.7 177.463 30.7V31H168.943V30.7ZM194.284 11.32V11.02C196.234 11.02 198.424 10.12 200.074 8.95C200.074 8.95 200.044 14.62 200.044 21.01C200.044 27.4 199.684 30.7 202.804 30.7V31H194.284V30.7C197.404 30.7 197.044 27.4 197.044 21.01C197.044 14.62 197.404 11.32 194.284 11.32ZM198.334 8.14C196.834 8.14 195.604 6.91 195.604 5.38C195.604 3.88 196.834 2.65 198.334 2.65C199.864 2.65 201.094 3.88 201.094 5.38C201.094 6.91 199.864 8.14 198.334 8.14ZM204.296 20.2C204.296 13.99 209.426 8.95 215.606 8.95C221.786 8.95 226.916 13.99 226.916 20.2C226.916 26.41 221.786 31.45 215.606 31.45C209.426 31.45 204.296 26.41 204.296 20.2ZM213.116 10.75C209.036 10.75 205.676 13.72 206.096 18.73C206.336 24.1 212.126 29.65 218.126 29.65C222.206 29.65 225.536 26.68 225.116 21.67C224.906 16.3 219.116 10.75 213.116 10.75ZM231.175 21.01C231.175 14.62 231.535 11.32 228.415 11.32V11.02C230.365 11.02 232.555 10.12 234.205 8.95C234.205 8.95 234.175 12.46 234.175 17.08C235.375 13.48 238.075 8.95 241.675 8.95C245.095 8.95 245.905 14.29 246.955 17.95C248.485 23.26 249.805 30.7 253.165 30.7V31H249.265C246.895 31 246.235 27.64 245.245 23.41C244.825 21.61 244.255 19.24 243.805 17.44C242.875 13.72 241.885 11.05 240.145 11.05C237.115 11.05 234.205 16.96 234.175 20.47V21.01C234.175 27.4 233.815 30.7 236.935 30.7V31H228.415V30.7C231.535 30.7 231.175 27.4 231.175 21.01ZM0.0203125 47.3V47H19.1303L20.7503 52.76H20.6003C18.4103 49.64 13.7003 47.6 8.24031 47.6H5.78031V61.4H18.6503L19.3403 64.22C16.8803 63.11 13.8503 62 7.76031 62H5.78031V67.01C5.78031 73.4 5.42031 76.7 8.54031 76.7V77H0.0203125V76.7C3.14031 76.7 2.78031 73.4 2.78031 67.01V56.99C2.78031 50.6 3.14031 47.3 0.0203125 47.3ZM20.7438 72.44C20.7438 66.14 28.4838 64.49 33.9438 60.65C33.0138 57.29 32.4138 55.55 30.4938 55.55C27.7637 55.55 25.6638 59.93 23.0838 59.93C22.0338 59.93 21.2538 59.18 21.4338 58.16C22.0338 56.99 26.3838 54.95 30.3738 54.95C36.2838 54.95 36.9438 61.34 38.6838 66.8C41.2638 74.84 41.6538 76.7 44.6538 76.7V77H40.0938C38.6238 77 38.3538 76.34 37.5738 73.43C37.3638 72.65 36.1938 68.6 35.2938 65.45C34.3038 71.99 31.1838 77.45 25.9638 77.45C22.6038 77.45 20.7438 75.2 20.7438 72.44ZM34.1238 61.22C29.6538 64.61 23.7438 66.86 23.7438 71.87C23.7438 73.85 25.1538 75.29 27.1338 75.29C33.2538 75.29 34.9038 65.96 34.6038 63.05C34.4238 62.45 34.2738 61.85 34.1238 61.22ZM43.3094 66.2C43.3094 59.99 48.4394 54.95 54.6194 54.95C59.9594 54.95 63.4694 58.1 64.4894 60.5C64.4894 60.5 64.1594 61.79 62.7494 61.79C60.0794 61.79 59.1794 56.09 53.3294 56C48.6794 56 45.8594 59.48 45.8594 64.73C45.8594 70.52 50.6894 74.96 56.1794 74.96C60.2894 74.96 63.4394 72.5 64.6394 69.5L64.9394 69.62C63.7094 74.15 59.5694 77.45 54.6194 77.45C48.4394 77.45 43.3094 72.41 43.3094 66.2ZM65.4004 56.3V55.4C67.3504 55.4 70.4704 51.59 71.2804 49.04H71.5804C71.5804 49.04 71.5504 51.68 71.5504 55.4H76.3204V56.3H71.5504C71.5504 57.35 71.5504 58.46 71.5504 59.63V72.47C71.5504 74.12 72.0304 76.46 73.7404 76.46C75.1804 76.46 76.3204 75.62 77.0104 74.51L77.3104 74.72C76.7404 75.74 75.0004 77.45 73.0504 77.45C69.4804 77.45 68.5504 74.81 68.5504 71.87V56.3H65.4004ZM76.1219 66.2C76.1219 59.99 81.2519 54.95 87.4319 54.95C93.6119 54.95 98.7419 59.99 98.7419 66.2C98.7419 72.41 93.6119 77.45 87.4319 77.45C81.2519 77.45 76.1219 72.41 76.1219 66.2ZM84.9419 56.75C80.8619 56.75 77.5019 59.72 77.9219 64.73C78.1619 70.1 83.9519 75.65 89.9519 75.65C94.0319 75.65 97.3619 72.68 96.9419 67.67C96.7319 62.3 90.9419 56.75 84.9419 56.75ZM103.001 67.01C103.001 60.62 103.361 57.32 100.241 57.32V57.02C102.191 57.02 104.381 56.12 106.031 54.95C106.031 54.95 106.001 58.94 106.001 64.01C106.121 59.78 110.051 54.95 114.581 54.95C115.301 54.95 116.381 54.98 116.981 55.4C117.611 57.2 116.471 58.31 114.761 58.31C113.531 58.31 113.081 57.71 111.341 57.71C107.921 57.71 106.001 62.81 106.001 67.97C106.001 73.4 105.641 76.7 108.761 76.7V77H100.241V76.7C103.361 76.7 103.001 73.4 103.001 67.01ZM122.747 87.8C119.867 87.8 117.377 85.7 117.377 82.82C117.377 79.34 120.857 77 124.337 77C125.867 77 128.237 77.45 129.737 77.45C130.007 77.45 130.247 77.45 130.487 77.42C129.647 76.97 128.897 75.56 128.117 73.37C127.517 71.66 126.737 69.14 126.107 67.28C124.217 61.64 122.807 55.7 119.687 55.7V55.4H129.287V55.7C127.787 55.7 126.857 56.57 126.857 58.04C126.857 59.45 127.907 62.87 128.957 66.29C130.367 70.91 131.747 75.59 132.767 75.59C133.247 75.59 133.817 75.17 133.817 73.04C133.817 68.24 132.977 65.72 132.977 61.01C132.977 58.31 134.207 54.95 137.057 54.95C140.267 54.95 141.797 59.15 141.797 62.72C141.797 75.02 131.807 87.8 122.747 87.8ZM120.017 82.4C120.017 84.8 122.417 86.24 124.787 86.24C132.617 86.24 139.277 74.6 139.277 64.37C139.277 61.01 138.647 57.77 136.337 57.77C134.387 57.77 134.087 60.44 134.087 62.45C134.087 67.31 134.477 70.58 134.477 73.52C134.477 74.12 134.357 75.11 133.877 75.95C133.697 76.34 132.767 78.05 129.827 78.05C127.667 78.05 126.887 77.93 124.877 77.93C121.967 77.93 120.017 79.82 120.017 82.4ZM154.696 66.2C154.696 59.99 159.826 54.95 166.006 54.95C172.186 54.95 177.316 59.99 177.316 66.2C177.316 72.41 172.186 77.45 166.006 77.45C159.826 77.45 154.696 72.41 154.696 66.2ZM163.516 56.75C159.436 56.75 156.076 59.72 156.496 64.73C156.736 70.1 162.526 75.65 168.526 75.65C172.606 75.65 175.936 72.68 175.516 67.67C175.306 62.3 169.516 56.75 163.516 56.75ZM178.966 77V76.7C182.086 76.7 181.726 73.4 181.726 67.01V56.42C181.726 50.39 184.486 46.55 189.226 46.55C190.336 46.55 191.446 46.61 192.736 47.36C192.916 48.74 191.806 49.34 190.996 49.34C189.286 49.34 188.896 47.63 187.216 47.63C184.846 47.63 184.726 51.11 184.726 54.98V55.4H189.316V56.3H184.726V67.01C184.726 73.4 184.366 76.7 187.486 76.7V77H178.966ZM204.161 53.72L205.751 47H227.171L228.761 53.72H228.611C226.841 50.6 224.021 47.6 219.041 47.6H217.961V67.01C217.961 73.4 217.601 76.7 220.721 76.7V77H212.201V76.7C215.321 76.7 214.961 73.4 214.961 67.01V47.6H213.881C208.901 47.6 206.081 50.6 204.311 53.72H204.161ZM229.499 76.7C232.619 76.7 232.259 73.4 232.259 67.01V57.23C232.289 51.74 232.379 48.92 229.499 48.92V48.62C231.449 48.62 233.639 47.72 235.289 46.55C235.289 46.55 235.259 51.38 235.259 57.14V63.08C236.459 59.48 239.159 54.95 242.759 54.95C246.179 54.95 246.989 60.29 248.039 63.95C249.569 69.26 250.889 76.7 254.249 76.7V77H250.349C247.979 77 247.319 73.64 246.329 69.41C245.909 67.61 245.339 65.24 244.889 63.44C243.959 59.72 242.969 57.05 241.229 57.05C238.199 57.05 235.259 62.99 235.259 66.5V67.01C235.259 73.4 234.899 76.7 238.019 76.7V77H229.499V76.7ZM264.649 77.45C258.469 77.45 253.339 72.41 253.339 66.2C253.339 59.99 258.469 54.95 264.649 54.95C270.829 54.95 273.349 59.09 273.349 61.64C273.349 64.19 271.249 64.73 269.389 64.73H255.889C255.889 70.52 260.719 74.96 266.209 74.96C270.319 74.96 273.469 72.5 274.669 69.5L274.969 69.62C273.739 74.15 269.599 77.45 264.649 77.45ZM255.889 64.1C258.859 64.04 260.689 63.95 263.989 63.95C267.079 63.95 270.289 63.83 270.289 61.25C270.289 58.01 267.499 56 263.359 56C258.889 56 256.129 59.21 255.889 64.1ZM78.785 93.3V93H97.895L99.515 98.76H99.365C97.175 95.64 92.465 93.6 87.005 93.6H84.545V107.4H97.415L98.105 110.22C95.645 109.11 92.615 108 86.525 108H84.545V113.01C84.545 119.4 84.185 122.7 87.305 122.7V123H78.785V122.7C81.905 122.7 81.545 119.4 81.545 113.01V102.99C81.545 96.6 81.905 93.3 78.785 93.3ZM99.8166 103.02C101.767 103.02 103.957 102.12 105.607 100.95C105.607 100.95 105.577 106.62 105.577 112.41V117.54C105.577 120.54 106.927 121.8 108.787 121.8C112.087 121.8 116.677 117.72 116.857 112.23C116.857 111.63 116.857 111.06 116.857 110.46C116.857 106.77 117.067 103.32 114.097 103.32V103.02C116.047 103.02 118.237 102.12 119.887 100.95C119.887 100.95 119.857 105.6 119.857 111.39C119.857 117.78 119.497 121.08 122.617 121.08V121.38C120.667 121.38 118.477 122.28 116.827 123.45C116.827 123.45 116.827 120.24 116.857 115.53C115.567 119.1 112.387 123.45 108.187 123.45C102.097 123.45 102.547 117.45 102.547 117.45C102.547 117.45 102.577 115.53 102.577 113.01C102.577 106.62 102.937 103.32 99.8166 103.32V103.02ZM122.925 102.3V101.4C124.875 101.4 127.995 97.59 128.805 95.04H129.105C129.105 95.04 129.075 97.68 129.075 101.4H133.845V102.3H129.075C129.075 103.35 129.075 104.46 129.075 105.63V118.47C129.075 120.12 129.555 122.46 131.265 122.46C132.705 122.46 133.845 121.62 134.535 120.51L134.835 120.72C134.265 121.74 132.525 123.45 130.575 123.45C127.005 123.45 126.075 120.81 126.075 117.87V102.3H122.925ZM135.149 103.02C137.099 103.02 139.289 102.12 140.939 100.95C140.939 100.95 140.909 106.62 140.909 112.41V117.54C140.909 120.54 142.259 121.8 144.119 121.8C147.419 121.8 152.009 117.72 152.189 112.23C152.189 111.63 152.189 111.06 152.189 110.46C152.189 106.77 152.399 103.32 149.429 103.32V103.02C151.379 103.02 153.569 102.12 155.219 100.95C155.219 100.95 155.189 105.6 155.189 111.39C155.189 117.78 154.829 121.08 157.949 121.08V121.38C155.999 121.38 153.809 122.28 152.159 123.45C152.159 123.45 152.159 120.24 152.189 115.53C150.899 119.1 147.719 123.45 143.519 123.45C137.429 123.45 137.879 117.45 137.879 117.45C137.879 117.45 137.909 115.53 137.909 113.01C137.909 106.62 138.269 103.32 135.149 103.32V103.02ZM161.317 113.01C161.317 106.62 161.677 103.32 158.557 103.32V103.02C160.507 103.02 162.697 102.12 164.347 100.95C164.347 100.95 164.317 104.94 164.317 110.01C164.437 105.78 168.367 100.95 172.897 100.95C173.617 100.95 174.697 100.98 175.297 101.4C175.927 103.2 174.787 104.31 173.077 104.31C171.847 104.31 171.397 103.71 169.657 103.71C166.237 103.71 164.317 108.81 164.317 113.97C164.317 119.4 163.957 122.7 167.077 122.7V123H158.557V122.7C161.677 122.7 161.317 119.4 161.317 113.01ZM185.884 123.45C179.704 123.45 174.574 118.41 174.574 112.2C174.574 105.99 179.704 100.95 185.884 100.95C192.064 100.95 194.584 105.09 194.584 107.64C194.584 110.19 192.484 110.73 190.624 110.73H177.124C177.124 116.52 181.954 120.96 187.444 120.96C191.554 120.96 194.704 118.5 195.904 115.5L196.204 115.62C194.974 120.15 190.834 123.45 185.884 123.45ZM177.124 110.1C180.094 110.04 181.924 109.95 185.224 109.95C188.314 109.95 191.524 109.83 191.524 107.25C191.524 104.01 188.734 102 184.594 102C180.124 102 177.364 105.21 177.124 110.1Z" fill="white"/>
</svg>
