<svg width="505" height="227" viewBox="0 0 505 227" fill="none" xmlns="http://www.w3.org/2000/svg">
<path d="M0.825 13.32L3.74 1H43.01L45.925 13.32H45.65C42.405 7.6 37.235 2.1 28.105 2.1H26.125V37.685C26.125 49.4 25.465 55.45 31.185 55.45V56H15.565V55.45C21.285 55.45 20.625 49.4 20.625 37.685V2.1H18.645C9.515 2.1 4.345 7.6 1.1 13.32H0.825ZM47.2785 55.45C52.9985 55.45 52.3385 49.4 52.3385 37.685V19.755C52.3935 9.69 52.5585 4.52 47.2785 4.52V3.97C50.8535 3.97 54.8685 2.32 57.8935 0.174994C57.8935 0.174994 57.8385 9.03 57.8385 19.59V30.48C60.0385 23.88 64.9885 15.575 71.5885 15.575C77.8585 15.575 79.3435 25.365 81.2685 32.075C84.0735 41.81 86.4935 55.45 92.6535 55.45V56H85.5035C81.1585 56 79.9485 49.84 78.1335 42.085C77.3635 38.785 76.3185 34.44 75.4935 31.14C73.7885 24.32 71.9735 19.425 68.7835 19.425C63.2285 19.425 57.8385 30.315 57.8385 36.75V37.685C57.8385 49.4 57.1785 55.45 62.8985 55.45V56H47.2785V55.45ZM111.719 56.825C100.389 56.825 90.9842 47.585 90.9842 36.2C90.9842 24.815 100.389 15.575 111.719 15.575C123.049 15.575 127.669 23.165 127.669 27.84C127.669 32.515 123.819 33.505 120.409 33.505H95.6592C95.6592 44.12 104.514 52.26 114.579 52.26C122.114 52.26 127.889 47.75 130.089 42.25L130.639 42.47C128.384 50.775 120.794 56.825 111.719 56.825ZM95.6592 32.35C101.104 32.24 104.459 32.075 110.509 32.075C116.174 32.075 122.059 31.855 122.059 27.125C122.059 21.185 116.944 17.5 109.354 17.5C101.159 17.5 96.0992 23.385 95.6592 32.35ZM151.538 1.55V1H186.573L189.543 11.56H189.268C185.253 5.84 176.618 2.1 166.608 2.1H162.098V27.4H185.693L186.958 32.57C182.448 30.535 176.893 28.5 165.728 28.5H162.098V37.685C162.098 49.4 161.438 55.45 167.158 55.45V56H151.538V55.45C157.258 55.45 156.598 49.4 156.598 37.685V19.315C156.598 7.6 157.258 1.55 151.538 1.55ZM189.531 47.64C189.531 36.09 203.721 33.065 213.731 26.025C212.026 19.865 210.926 16.675 207.406 16.675C202.401 16.675 198.551 24.705 193.821 24.705C191.896 24.705 190.466 23.33 190.796 21.46C191.896 19.315 199.871 15.575 207.186 15.575C218.021 15.575 219.231 27.29 222.421 37.3C227.151 52.04 227.866 55.45 233.366 55.45V56H225.006C222.311 56 221.816 54.79 220.386 49.455C220.001 48.025 217.856 40.6 216.206 34.825C214.391 46.815 208.671 56.825 199.101 56.825C192.941 56.825 189.531 52.7 189.531 47.64ZM214.061 27.07C205.866 33.285 195.031 37.41 195.031 46.595C195.031 50.225 197.616 52.865 201.246 52.865C212.466 52.865 215.491 35.76 214.941 30.425C214.611 29.325 214.336 28.225 214.061 27.07ZM263.505 47.035C263.505 35.705 233.64 41.37 233.64 26.85C233.64 19.15 243.045 15.575 250.855 15.575C256.96 15.575 261.58 17.005 265.815 20.305C266.2 22.505 264.55 24.265 262.295 24.265C257.455 24.265 256.3 17.005 247.665 17.005C243.65 17.005 238.04 19.48 238.04 24.485C238.04 36.53 267.465 29.05 267.465 45.825C267.465 53.525 258.83 56.825 251.13 56.825C243.98 56.825 240.295 55.34 234.85 51.655V40.325H235.4C236.995 48.63 243.265 55.615 252.01 55.615C257.62 55.615 263.505 52.645 263.505 47.035ZM270.233 55.45C275.953 55.45 275.293 49.4 275.293 37.685V19.755C275.348 9.69 275.513 4.52 270.233 4.52V3.97C273.808 3.97 277.823 2.32 280.848 0.174994C280.848 0.174994 280.793 9.03 280.793 19.59V30.48C282.993 23.88 287.943 15.575 294.543 15.575C300.813 15.575 302.298 25.365 304.223 32.075C307.028 41.81 309.448 55.45 315.608 55.45V56H308.458C304.113 56 302.903 49.84 301.088 42.085C300.318 38.785 299.273 34.44 298.448 31.14C296.743 24.32 294.928 19.425 291.738 19.425C286.183 19.425 280.793 30.315 280.793 36.75V37.685C280.793 49.4 280.133 55.45 285.853 55.45V56H270.233V55.45ZM316.693 19.92V19.37C320.268 19.37 324.283 17.72 327.308 15.575C327.308 15.575 327.253 25.97 327.253 37.685C327.253 49.4 326.593 55.45 332.313 55.45V56H316.693V55.45C322.413 55.45 321.753 49.4 321.753 37.685C321.753 25.97 322.413 19.92 316.693 19.92ZM324.118 14.09C321.368 14.09 319.113 11.835 319.113 9.03C319.113 6.28 321.368 4.025 324.118 4.025C326.923 4.025 329.178 6.28 329.178 9.03C329.178 11.835 326.923 14.09 324.118 14.09ZM335.047 36.2C335.047 24.815 344.452 15.575 355.782 15.575C367.112 15.575 376.517 24.815 376.517 36.2C376.517 47.585 367.112 56.825 355.782 56.825C344.452 56.825 335.047 47.585 335.047 36.2ZM351.217 18.875C343.737 18.875 337.577 24.32 338.347 33.505C338.787 43.35 349.402 53.525 360.402 53.525C367.882 53.525 373.987 48.08 373.217 38.895C372.832 29.05 362.217 18.875 351.217 18.875ZM384.326 37.685C384.326 25.97 384.986 19.92 379.266 19.92V19.37C382.841 19.37 386.856 17.72 389.881 15.575C389.881 15.575 389.826 22.01 389.826 30.48C392.026 23.88 396.976 15.575 403.576 15.575C409.846 15.575 411.331 25.365 413.256 32.075C416.061 41.81 418.481 55.45 424.641 55.45V56H417.491C413.146 56 411.936 49.84 410.121 42.085C409.351 38.785 408.306 34.44 407.481 31.14C405.776 24.32 403.961 19.425 400.771 19.425C395.216 19.425 389.881 30.26 389.826 36.695V37.685C389.826 49.4 389.166 55.45 394.886 55.45V56H379.266V55.45C384.986 55.45 384.326 49.4 384.326 37.685ZM0.825 86.55V86H35.86L38.83 96.56H38.555C34.54 90.84 25.905 87.1 15.895 87.1H11.385V112.4H34.98L36.245 117.57C31.735 115.535 26.18 113.5 15.015 113.5H11.385V122.685C11.385 134.4 10.725 140.45 16.445 140.45V141H0.825V140.45C6.545 140.45 5.885 134.4 5.885 122.685V104.315C5.885 92.6 6.545 86.55 0.825 86.55ZM38.818 132.64C38.818 121.09 53.008 118.065 63.018 111.025C61.313 104.865 60.213 101.675 56.693 101.675C51.688 101.675 47.838 109.705 43.108 109.705C41.183 109.705 39.753 108.33 40.083 106.46C41.183 104.315 49.158 100.575 56.473 100.575C67.308 100.575 68.518 112.29 71.708 122.3C76.438 137.04 77.153 140.45 82.653 140.45V141H74.293C71.598 141 71.103 139.79 69.673 134.455C69.288 133.025 67.143 125.6 65.493 119.825C63.678 131.815 57.958 141.825 48.388 141.825C42.228 141.825 38.818 137.7 38.818 132.64ZM63.348 112.07C55.153 118.285 44.318 122.41 44.318 131.595C44.318 135.225 46.903 137.865 50.533 137.865C61.753 137.865 64.778 120.76 64.228 115.425C63.898 114.325 63.623 113.225 63.348 112.07ZM80.1883 121.2C80.1883 109.815 89.5933 100.575 100.923 100.575C110.713 100.575 117.148 106.35 119.018 110.75C119.018 110.75 118.413 113.115 115.828 113.115C110.933 113.115 109.283 102.665 98.5583 102.5C90.0333 102.5 84.8633 108.88 84.8633 118.505C84.8633 129.12 93.7183 137.26 103.783 137.26C111.318 137.26 117.093 132.75 119.293 127.25L119.843 127.47C117.588 135.775 109.998 141.825 100.923 141.825C89.5933 141.825 80.1883 132.585 80.1883 121.2ZM120.688 103.05V101.4C124.263 101.4 129.983 94.415 131.468 89.74H132.018C132.018 89.74 131.963 94.58 131.963 101.4H140.708V103.05H131.963C131.963 104.975 131.963 107.01 131.963 109.155V132.695C131.963 135.72 132.843 140.01 135.978 140.01C138.618 140.01 140.708 138.47 141.973 136.435L142.523 136.82C141.478 138.69 138.288 141.825 134.713 141.825C128.168 141.825 126.463 136.985 126.463 131.595V103.05H120.688ZM140.345 121.2C140.345 109.815 149.75 100.575 161.08 100.575C172.41 100.575 181.815 109.815 181.815 121.2C181.815 132.585 172.41 141.825 161.08 141.825C149.75 141.825 140.345 132.585 140.345 121.2ZM156.515 103.875C149.035 103.875 142.875 109.32 143.645 118.505C144.085 128.35 154.7 138.525 165.7 138.525C173.18 138.525 179.285 133.08 178.515 123.895C178.13 114.05 167.515 103.875 156.515 103.875ZM189.624 122.685C189.624 110.97 190.284 104.92 184.564 104.92V104.37C188.139 104.37 192.154 102.72 195.179 100.575C195.179 100.575 195.124 107.89 195.124 117.185C195.344 109.43 202.549 100.575 210.854 100.575C212.174 100.575 214.154 100.63 215.254 101.4C216.409 104.7 214.319 106.735 211.184 106.735C208.929 106.735 208.104 105.635 204.914 105.635C198.644 105.635 195.124 114.985 195.124 124.445C195.124 134.4 194.464 140.45 200.184 140.45V141H184.564V140.45C190.284 140.45 189.624 134.4 189.624 122.685ZM225.824 160.8C220.544 160.8 215.979 156.95 215.979 151.67C215.979 145.29 222.359 141 228.739 141C231.544 141 235.889 141.825 238.639 141.825C239.134 141.825 239.574 141.825 240.014 141.77C238.474 140.945 237.099 138.36 235.669 134.345C234.569 131.21 233.139 126.59 231.984 123.18C228.519 112.84 225.934 101.95 220.214 101.95V101.4H237.814V101.95C235.064 101.95 233.359 103.545 233.359 106.24C233.359 108.825 235.284 115.095 237.209 121.365C239.794 129.835 242.324 138.415 244.194 138.415C245.074 138.415 246.119 137.645 246.119 133.74C246.119 124.94 244.579 120.32 244.579 111.685C244.579 106.735 246.834 100.575 252.059 100.575C257.944 100.575 260.749 108.275 260.749 114.82C260.749 137.37 242.434 160.8 225.824 160.8ZM220.819 150.9C220.819 155.3 225.219 157.94 229.564 157.94C243.919 157.94 256.129 136.6 256.129 117.845C256.129 111.685 254.974 105.745 250.739 105.745C247.164 105.745 246.614 110.64 246.614 114.325C246.614 123.235 247.329 129.23 247.329 134.62C247.329 135.72 247.109 137.535 246.229 139.075C245.899 139.79 244.194 142.925 238.804 142.925C234.844 142.925 233.414 142.705 229.729 142.705C224.394 142.705 220.819 146.17 220.819 150.9ZM284.397 121.2C284.397 109.815 293.802 100.575 305.132 100.575C316.462 100.575 325.867 109.815 325.867 121.2C325.867 132.585 316.462 141.825 305.132 141.825C293.802 141.825 284.397 132.585 284.397 121.2ZM300.567 103.875C293.087 103.875 286.927 109.32 287.697 118.505C288.137 128.35 298.752 138.525 309.752 138.525C317.232 138.525 323.337 133.08 322.567 123.895C322.182 114.05 311.567 103.875 300.567 103.875ZM328.891 141V140.45C334.611 140.45 333.951 134.4 333.951 122.685V103.27C333.951 92.215 339.011 85.175 347.701 85.175C349.736 85.175 351.771 85.285 354.136 86.66C354.466 89.19 352.431 90.29 350.946 90.29C347.811 90.29 347.096 87.155 344.016 87.155C339.671 87.155 339.451 93.535 339.451 100.63V101.4H347.866V103.05H339.451V122.685C339.451 134.4 338.791 140.45 344.511 140.45V141H328.891ZM375.083 98.32L377.998 86H417.268L420.183 98.32H419.908C416.663 92.6 411.493 87.1 402.363 87.1H400.383V122.685C400.383 134.4 399.723 140.45 405.443 140.45V141H389.823V140.45C395.543 140.45 394.883 134.4 394.883 122.685V87.1H392.903C383.773 87.1 378.603 92.6 375.358 98.32H375.083ZM421.536 140.45C427.256 140.45 426.596 134.4 426.596 122.685V104.755C426.651 94.69 426.816 89.52 421.536 89.52V88.97C425.111 88.97 429.126 87.32 432.151 85.175C432.151 85.175 432.096 94.03 432.096 104.59V115.48C434.296 108.88 439.246 100.575 445.846 100.575C452.116 100.575 453.601 110.365 455.526 117.075C458.331 126.81 460.751 140.45 466.911 140.45V141H459.761C455.416 141 454.206 134.84 452.391 127.085C451.621 123.785 450.576 119.44 449.751 116.14C448.046 109.32 446.231 104.425 443.041 104.425C437.486 104.425 432.096 115.315 432.096 121.75V122.685C432.096 134.4 431.436 140.45 437.156 140.45V141H421.536V140.45ZM485.977 141.825C474.647 141.825 465.242 132.585 465.242 121.2C465.242 109.815 474.647 100.575 485.977 100.575C497.307 100.575 501.927 108.165 501.927 112.84C501.927 117.515 498.077 118.505 494.667 118.505H469.917C469.917 129.12 478.772 137.26 488.837 137.26C496.372 137.26 502.147 132.75 504.347 127.25L504.897 127.47C502.642 135.775 495.052 141.825 485.977 141.825ZM469.917 117.35C475.362 117.24 478.717 117.075 484.767 117.075C490.432 117.075 496.317 116.855 496.317 112.125C496.317 106.185 491.202 102.5 483.612 102.5C475.417 102.5 470.357 108.385 469.917 117.35ZM0.825 171.55V171H35.86L38.83 181.56H38.555C34.54 175.84 25.905 172.1 15.895 172.1H11.385V197.4H34.98L36.245 202.57C31.735 200.535 26.18 198.5 15.015 198.5H11.385V207.685C11.385 219.4 10.725 225.45 16.445 225.45V226H0.825V225.45C6.545 225.45 5.885 219.4 5.885 207.685V189.315C5.885 177.6 6.545 171.55 0.825 171.55ZM39.383 189.37C42.958 189.37 46.973 187.72 49.998 185.575C49.998 185.575 49.943 195.97 49.943 206.585V215.99C49.943 221.49 52.418 223.8 55.828 223.8C61.878 223.8 70.293 216.32 70.623 206.255C70.623 205.155 70.623 204.11 70.623 203.01C70.623 196.245 71.008 189.92 65.563 189.92V189.37C69.138 189.37 73.153 187.72 76.178 185.575C76.178 185.575 76.123 194.1 76.123 204.715C76.123 216.43 75.463 222.48 81.183 222.48V223.03C77.608 223.03 73.593 224.68 70.568 226.825C70.568 226.825 70.568 220.94 70.623 212.305C68.258 218.85 62.428 226.825 54.728 226.825C43.563 226.825 44.388 215.825 44.388 215.825C44.388 215.825 44.443 212.305 44.443 207.685C44.443 195.97 45.103 189.92 39.383 189.92V189.37ZM81.748 188.05V186.4C85.323 186.4 91.043 179.415 92.528 174.74H93.078C93.078 174.74 93.023 179.58 93.023 186.4H101.768V188.05H93.023C93.023 189.975 93.023 192.01 93.023 194.155V217.695C93.023 220.72 93.903 225.01 97.038 225.01C99.678 225.01 101.768 223.47 103.033 221.435L103.583 221.82C102.538 223.69 99.348 226.825 95.773 226.825C89.228 226.825 87.523 221.985 87.523 216.595V188.05H81.748ZM104.158 189.37C107.733 189.37 111.748 187.72 114.773 185.575C114.773 185.575 114.718 195.97 114.718 206.585V215.99C114.718 221.49 117.193 223.8 120.603 223.8C126.653 223.8 135.068 216.32 135.398 206.255C135.398 205.155 135.398 204.11 135.398 203.01C135.398 196.245 135.783 189.92 130.338 189.92V189.37C133.913 189.37 137.928 187.72 140.953 185.575C140.953 185.575 140.898 194.1 140.898 204.715C140.898 216.43 140.238 222.48 145.958 222.48V223.03C142.383 223.03 138.368 224.68 135.343 226.825C135.343 226.825 135.343 220.94 135.398 212.305C133.033 218.85 127.203 226.825 119.503 226.825C108.338 226.825 109.163 215.825 109.163 215.825C109.163 215.825 109.218 212.305 109.218 207.685C109.218 195.97 109.878 189.92 104.158 189.92V189.37ZM152.133 207.685C152.133 195.97 152.793 189.92 147.073 189.92V189.37C150.648 189.37 154.663 187.72 157.688 185.575C157.688 185.575 157.633 192.89 157.633 202.185C157.853 194.43 165.058 185.575 173.363 185.575C174.683 185.575 176.663 185.63 177.763 186.4C178.918 189.7 176.828 191.735 173.693 191.735C171.438 191.735 170.613 190.635 167.423 190.635C161.153 190.635 157.633 199.985 157.633 209.445C157.633 219.4 156.973 225.45 162.693 225.45V226H147.073V225.45C152.793 225.45 152.133 219.4 152.133 207.685ZM197.173 226.825C185.843 226.825 176.438 217.585 176.438 206.2C176.438 194.815 185.843 185.575 197.173 185.575C208.503 185.575 213.123 193.165 213.123 197.84C213.123 202.515 209.273 203.505 205.863 203.505H181.113C181.113 214.12 189.968 222.26 200.033 222.26C207.568 222.26 213.343 217.75 215.543 212.25L216.093 212.47C213.838 220.775 206.248 226.825 197.173 226.825ZM181.113 202.35C186.558 202.24 189.913 202.075 195.963 202.075C201.628 202.075 207.513 201.855 207.513 197.125C207.513 191.185 202.398 187.5 194.808 187.5C186.613 187.5 181.553 193.385 181.113 202.35Z" fill="white"/>
</svg>
