<svg width="647" height="56" viewBox="0 0 647 56" fill="none" xmlns="http://www.w3.org/2000/svg">
<path d="M18.8027 42.1811C8.60266 42.1811 0.322656 32.9411 0.322656 21.5811C0.322656 10.2211 8.60266 0.98105 18.8027 0.98105C29.0027 0.98105 37.2827 10.2211 37.2827 21.5811C37.2827 32.9411 29.0027 42.1811 18.8027 42.1811ZM4.00266 19.7811C4.00266 31.2211 12.4427 40.4611 21.3627 40.4611C29.2027 40.4611 33.5227 33.8211 33.5227 23.3011C33.5227 11.8611 25.0827 2.62105 16.2027 2.62105C8.32266 2.62105 4.00266 9.26105 4.00266 19.7811ZM39.2789 14.9411C41.8789 14.9411 44.7989 13.7411 46.9989 12.1811C46.9989 12.1811 46.9589 19.7411 46.9589 27.4611V34.3011C46.9589 38.3011 48.7589 39.9811 51.2389 39.9811C55.6389 39.9811 61.7589 34.5411 61.9989 27.2211C61.9989 26.4211 61.9989 25.6611 61.9989 24.8611C61.9989 19.9411 62.2789 15.3411 58.3189 15.3411V14.9411C60.9189 14.9411 63.8389 13.7411 66.0389 12.1811C66.0389 12.1811 65.9989 18.3811 65.9989 26.1011C65.9989 34.6211 65.5189 39.0211 69.6789 39.0211V39.4211C67.0789 39.4211 64.1589 40.6211 61.9589 42.1811C61.9589 42.1811 61.9589 37.9011 61.9989 31.6211C60.2789 36.3811 56.0389 42.1811 50.4389 42.1811C42.3189 42.1811 42.9189 34.1811 42.9189 34.1811C42.9189 34.1811 42.9589 31.6211 42.9589 28.2611C42.9589 19.7411 43.4389 15.3411 39.2789 15.3411V14.9411ZM74.1698 28.2611C74.1698 19.7411 74.6498 15.3411 70.4898 15.3411V14.9411C73.0898 14.9411 76.0098 13.7411 78.2098 12.1811C78.2098 12.1811 78.1698 17.5011 78.1698 24.2611C78.3298 18.6211 83.5698 12.1811 89.6098 12.1811C90.5698 12.1811 92.0098 12.2211 92.8098 12.7811C93.6498 15.1811 92.1298 16.6611 89.8498 16.6611C88.2098 16.6611 87.6098 15.8611 85.2898 15.8611C80.7298 15.8611 78.1698 22.6611 78.1698 29.5411C78.1698 36.7811 77.6898 41.1811 81.8498 41.1811V41.5811H70.4898V41.1811C74.6498 41.1811 74.1698 36.7811 74.1698 28.2611ZM108.034 10.5411L110.154 1.58105H138.714L140.834 10.5411H140.634C138.274 6.38105 134.514 2.38105 127.874 2.38105H126.434V28.2611C126.434 36.7811 125.954 41.1811 130.114 41.1811V41.5811H118.754V41.1811C122.914 41.1811 122.434 36.7811 122.434 28.2611V2.38105H120.994C114.354 2.38105 110.594 6.38105 108.234 10.5411H108.034ZM131.416 27.1811C131.416 18.9011 138.256 12.1811 146.496 12.1811C154.736 12.1811 161.576 18.9011 161.576 27.1811C161.576 35.4611 154.736 42.1811 146.496 42.1811C138.256 42.1811 131.416 35.4611 131.416 27.1811ZM143.176 14.5811C137.736 14.5811 133.256 18.5411 133.816 25.2211C134.136 32.3811 141.856 39.7811 149.856 39.7811C155.296 39.7811 159.736 35.8211 159.176 29.1411C158.896 21.9811 151.176 14.5811 143.176 14.5811ZM167.256 15.2211C167.296 7.90105 167.416 4.14105 163.576 4.14105V3.74105C166.176 3.74105 169.096 2.54105 171.296 0.98105C171.296 0.98105 171.256 7.42105 171.256 15.1011V26.4611C175.536 22.9011 182.376 17.1811 182.376 14.3011C182.376 13.9011 182.336 13.3011 181.616 12.7811H189.696V13.0211C187.816 13.0211 181.496 18.8211 175.696 23.8211C181.456 24.3811 183.816 29.5011 185.576 34.6611C186.856 38.3811 188.496 41.1811 190.896 41.1811V41.5811H185.696C182.976 41.5811 182.576 37.9011 180.416 32.3811C178.696 28.0211 176.256 26.7411 173.856 26.7411C173.176 26.7411 172.496 26.8611 171.856 27.0211C171.656 27.1811 171.456 27.3411 171.256 27.5011V28.2611C171.256 36.7811 170.776 41.1811 174.936 41.1811V41.5811H163.576V41.1811C167.736 41.1811 167.256 36.7811 167.256 28.2611V15.2211ZM204.387 42.1811C196.147 42.1811 189.307 35.4611 189.307 27.1811C189.307 18.9011 196.147 12.1811 204.387 12.1811C212.627 12.1811 215.987 17.7011 215.987 21.1011C215.987 24.5011 213.187 25.2211 210.707 25.2211H192.707C192.707 32.9411 199.147 38.8611 206.467 38.8611C211.947 38.8611 216.147 35.5811 217.747 31.5811L218.147 31.7411C216.507 37.7811 210.987 42.1811 204.387 42.1811ZM192.707 24.3811C196.667 24.3011 199.107 24.1811 203.507 24.1811C207.627 24.1811 211.907 24.0211 211.907 20.5811C211.907 16.2611 208.187 13.5811 202.667 13.5811C196.707 13.5811 193.027 17.8611 192.707 24.3811ZM222.842 28.2611C222.842 19.7411 223.322 15.3411 219.162 15.3411V14.9411C221.762 14.9411 224.682 13.7411 226.882 12.1811C226.882 12.1811 226.842 16.8611 226.842 23.0211C228.442 18.2211 232.042 12.1811 236.842 12.1811C241.402 12.1811 242.482 19.3011 243.882 24.1811C245.922 31.2611 247.682 41.1811 252.162 41.1811V41.5811H246.962C243.802 41.5811 242.922 37.1011 241.602 31.4611C241.042 29.0611 240.282 25.9011 239.682 23.5011C238.442 18.5411 237.122 14.9811 234.802 14.9811C230.762 14.9811 226.882 22.8611 226.842 27.5411V28.2611C226.842 36.7811 226.362 41.1811 230.522 41.1811V41.5811H219.162V41.1811C223.322 41.1811 222.842 36.7811 222.842 28.2611ZM267.135 1.58105H283.255C292.495 1.58105 297.095 5.90105 297.095 12.3011C297.095 19.3011 290.695 23.3411 283.815 23.4211C291.295 25.1811 296.895 33.1811 298.015 41.5811H293.455C292.495 32.9411 286.735 23.2611 278.495 23.4211H274.815V28.2611C274.815 36.7811 274.335 41.1811 278.495 41.1811V41.5811H267.135V41.1811C271.295 41.1811 270.815 36.7811 270.815 28.2611V14.9011C270.815 6.38105 271.295 1.98105 267.135 1.98105V1.58105ZM274.815 22.7011H280.775C287.855 22.7011 293.055 18.5011 293.055 12.3011C293.055 6.58105 288.575 2.38105 281.895 2.38105H274.815V22.7011ZM314.309 42.1811C306.069 42.1811 299.229 35.4611 299.229 27.1811C299.229 18.9011 306.069 12.1811 314.309 12.1811C322.549 12.1811 325.909 17.7011 325.909 21.1011C325.909 24.5011 323.109 25.2211 320.629 25.2211H302.629C302.629 32.9411 309.069 38.8611 316.389 38.8611C321.869 38.8611 326.069 35.5811 327.669 31.5811L328.069 31.7411C326.429 37.7811 320.909 42.1811 314.309 42.1811ZM302.629 24.3811C306.589 24.3011 309.029 24.1811 313.429 24.1811C317.549 24.1811 321.829 24.0211 321.829 20.5811C321.829 16.2611 318.109 13.5811 312.589 13.5811C306.629 13.5811 302.949 17.8611 302.629 24.3811ZM325.48 12.7811H338.28V13.1811C336.28 13.1811 335.04 14.3411 335.04 16.3011C335.04 18.1811 336.4 22.7011 337.68 27.3011C338.64 30.7411 339.56 34.3011 340.08 36.1411C340.92 39.2211 341.16 39.9011 341.64 39.9011C342.84 39.9011 345.48 23.5811 346.04 20.0211C344.6 16.1411 342.88 13.1811 340.4 13.1811V12.7811H353.2V13.1811C351.2 13.1811 349.96 14.3411 349.96 16.3011C349.96 18.1811 351.32 22.7011 352.6 27.3011C353.56 30.7411 354.48 34.3011 355 36.1411C355.84 39.2211 356.08 39.9011 356.56 39.9011C357.92 39.9011 360.64 22.0611 360.64 22.0611C361.16 19.3011 361.48 13.2211 356.76 13.2211V12.7811H369.84V13.1811C365.68 13.1811 363.88 17.6611 362.4 23.3411C362.4 23.3411 360.76 29.1411 360.08 31.5811C358.68 36.6211 357.92 42.1811 354.96 42.1811C352.96 42.1811 352.4 40.3811 351.24 36.7411C350.48 34.3811 349.56 31.1411 348.8 28.6211C348.32 27.0611 347.84 25.4211 347.36 23.8211C346.92 25.3011 345.72 29.5811 345.16 31.5811C343.76 36.6211 343 42.1811 340.04 42.1811C338.04 42.1811 337.48 40.3811 336.32 36.7411C335.56 34.3811 334.68 31.1411 333.88 28.6211C331.68 21.5811 329.64 13.1811 325.48 13.1811V12.7811ZM369.454 35.5011C369.454 27.1011 379.774 24.9011 387.054 19.7811C385.814 15.3011 385.014 12.9811 382.454 12.9811C378.814 12.9811 376.014 18.8211 372.574 18.8211C371.174 18.8211 370.134 17.8211 370.374 16.4611C371.174 14.9011 376.974 12.1811 382.294 12.1811C390.174 12.1811 391.054 20.7011 393.374 27.9811C396.814 38.7011 397.334 41.1811 401.334 41.1811V41.5811H395.254C393.294 41.5811 392.934 40.7011 391.894 36.8211C391.614 35.7811 390.054 30.3811 388.854 26.1811C387.534 34.9011 383.374 42.1811 376.414 42.1811C371.934 42.1811 369.454 39.1811 369.454 35.5011ZM387.294 20.5411C381.334 25.0611 373.454 28.0611 373.454 34.7411C373.454 37.3811 375.334 39.3011 377.974 39.3011C386.134 39.3011 388.334 26.8611 387.934 22.9811C387.694 22.1811 387.494 21.3811 387.294 20.5411ZM406.006 28.2611C406.006 19.7411 406.486 15.3411 402.326 15.3411V14.9411C404.926 14.9411 407.846 13.7411 410.046 12.1811C410.046 12.1811 410.006 17.5011 410.006 24.2611C410.166 18.6211 415.406 12.1811 421.446 12.1811C422.406 12.1811 423.846 12.2211 424.646 12.7811C425.486 15.1811 423.966 16.6611 421.686 16.6611C420.046 16.6611 419.446 15.8611 417.126 15.8611C412.566 15.8611 410.006 22.6611 410.006 29.5411C410.006 36.7811 409.526 41.1811 413.686 41.1811V41.5811H402.326V41.1811C406.486 41.1811 406.006 36.7811 406.006 28.2611ZM422.901 28.7011C422.901 18.7011 430.781 12.7411 438.541 12.2211C438.221 10.9811 437.981 10.1811 437.981 10.1811C436.541 5.78105 436.381 3.54105 433.861 3.54105C432.901 3.54105 432.181 3.74105 431.101 4.02105V3.62105C433.861 2.66105 436.861 0.98105 438.181 0.98105C439.901 0.98105 440.101 2.70105 440.781 4.98105C440.781 4.98105 443.861 17.1011 445.861 24.1811C447.861 31.2611 449.661 41.1811 454.141 41.1811V41.5811H448.941C446.821 41.5811 445.741 39.5411 444.821 36.4611C442.741 39.6611 439.301 42.1811 434.861 42.1811C426.261 42.1811 422.901 35.9411 422.901 28.7011ZM438.781 13.0211C431.101 13.4611 426.581 20.5011 426.581 27.5011C426.581 33.9011 429.501 40.8211 436.141 40.8211C439.941 40.8211 442.741 38.3011 444.541 35.4611C444.221 34.2211 443.901 32.9011 443.581 31.4611C442.141 25.2611 440.501 19.1411 438.781 13.0211ZM470.323 11.4611C470.323 9.50105 472.043 0.98105 484.843 0.98105C492.763 0.98105 495.843 4.94105 495.843 4.94105C495.443 6.90105 494.083 7.22105 493.203 7.22105C490.283 7.22105 485.803 2.66105 480.523 2.66105C476.283 2.66105 473.403 5.46105 473.403 9.66105C473.403 21.5811 497.483 17.6611 497.483 30.9811C497.483 40.0611 490.283 42.1811 483.243 42.1811C477.403 42.1811 471.843 38.9011 470.523 37.3011V30.7011C473.523 36.2611 478.323 41.0611 486.363 41.0611C490.603 41.0611 494.923 38.4211 494.923 33.3011C494.923 21.0611 470.323 25.5011 470.323 11.4611ZM497.099 55.9811C493.259 55.9811 489.939 53.1811 489.939 49.3411C489.939 44.7011 494.579 41.5811 499.219 41.5811C501.259 41.5811 504.419 42.1811 506.419 42.1811C506.779 42.1811 507.099 42.1811 507.419 42.1411C506.299 41.5411 505.299 39.6611 504.259 36.7411C503.459 34.4611 502.419 31.1011 501.579 28.6211C499.059 21.1011 497.179 13.1811 493.019 13.1811V12.7811H505.819V13.1811C503.819 13.1811 502.579 14.3411 502.579 16.3011C502.579 18.1811 503.979 22.7411 505.379 27.3011C507.259 33.4611 509.099 39.7011 510.459 39.7011C511.099 39.7011 511.859 39.1411 511.859 36.3011C511.859 29.9011 510.739 26.5411 510.739 20.2611C510.739 16.6611 512.379 12.1811 516.179 12.1811C520.459 12.1811 522.499 17.7811 522.499 22.5411C522.499 38.9411 509.179 55.9811 497.099 55.9811ZM493.459 48.7811C493.459 51.9811 496.659 53.9011 499.819 53.9011C510.259 53.9011 519.139 38.3811 519.139 24.7411C519.139 20.2611 518.299 15.9411 515.219 15.9411C512.619 15.9411 512.219 19.5011 512.219 22.1811C512.219 28.6611 512.739 33.0211 512.739 36.9411C512.739 37.7411 512.579 39.0611 511.939 40.1811C511.699 40.7011 510.459 42.9811 506.539 42.9811C503.659 42.9811 502.619 42.8211 499.939 42.8211C496.059 42.8211 493.459 45.3411 493.459 48.7811ZM547.433 35.0611C547.433 26.8211 525.713 30.9411 525.713 20.3811C525.713 14.7811 532.553 12.1811 538.233 12.1811C542.673 12.1811 546.033 13.2211 549.113 15.6211C549.393 17.2211 548.193 18.5011 546.553 18.5011C543.033 18.5011 542.193 13.2211 535.913 13.2211C532.993 13.2211 528.913 15.0211 528.913 18.6611C528.913 27.4211 550.313 21.9811 550.313 34.1811C550.313 39.7811 544.033 42.1811 538.433 42.1811C533.233 42.1811 530.553 41.1011 526.593 38.4211V30.1811H526.993C528.153 36.2211 532.713 41.3011 539.073 41.3011C543.153 41.3011 547.433 39.1411 547.433 35.0611ZM551.926 13.9811V12.7811C554.526 12.7811 558.686 7.70105 559.766 4.30105H560.166C560.166 4.30105 560.126 7.82105 560.126 12.7811H566.486V13.9811H560.126C560.126 15.3811 560.126 16.8611 560.126 18.4211V35.5411C560.126 37.7411 560.766 40.8611 563.046 40.8611C564.966 40.8611 566.486 39.7411 567.406 38.2611L567.806 38.5411C567.046 39.9011 564.726 42.1811 562.126 42.1811C557.366 42.1811 556.126 38.6611 556.126 34.7411V13.9811H551.926ZM581.301 42.1811C573.061 42.1811 566.221 35.4611 566.221 27.1811C566.221 18.9011 573.061 12.1811 581.301 12.1811C589.541 12.1811 592.901 17.7011 592.901 21.1011C592.901 24.5011 590.101 25.2211 587.621 25.2211H569.621C569.621 32.9411 576.061 38.8611 583.381 38.8611C588.861 38.8611 593.061 35.5811 594.661 31.5811L595.061 31.7411C593.421 37.7811 587.901 42.1811 581.301 42.1811ZM569.621 24.3811C573.581 24.3011 576.021 24.1811 580.421 24.1811C584.541 24.1811 588.821 24.0211 588.821 20.5811C588.821 16.2611 585.101 13.5811 579.581 13.5811C573.621 13.5811 569.941 17.8611 569.621 24.3811ZM599.756 28.2611C599.756 19.7411 600.236 15.3411 596.076 15.3411V14.9411C598.676 14.9411 601.596 13.7411 603.796 12.1811C603.796 12.1811 603.756 16.8611 603.756 23.0211C605.356 18.2211 608.956 12.1811 613.756 12.1811C618.356 12.1811 619.196 19.3811 620.796 24.1811C620.876 24.4211 620.956 24.7011 620.996 24.9411C622.196 20.0211 626.076 12.1811 631.556 12.1811C636.156 12.1811 637.196 19.3011 638.596 24.1811C640.636 31.2611 642.396 41.1811 646.876 41.1811V41.5811H641.676C638.516 41.5811 637.636 37.1011 636.316 31.4611C635.756 29.0611 634.996 25.9011 634.396 23.5011C633.156 18.5411 631.836 14.9811 629.516 14.9811C625.636 14.9811 621.836 22.3411 621.556 27.0611C623.316 33.6611 625.196 41.1811 629.076 41.1811V41.5811H623.876C620.716 41.5811 619.836 37.1011 618.516 31.4611C617.956 29.0611 617.196 25.9011 616.596 23.5011C615.356 18.5411 614.036 14.9811 611.716 14.9811C607.716 14.9811 603.796 22.8611 603.756 27.5411V28.2611C603.796 36.7811 603.276 41.1811 607.436 41.1811V41.5811H596.076V41.1811C600.236 41.1811 599.756 36.7811 599.756 28.2611Z" fill="#F5F9FC"/>
</svg>
